%TF.GenerationSoftware,KiCad,Pcbnew,5.1.9-73d0e3b20d~88~ubuntu18.04.1*%
%TF.CreationDate,2021-08-18T08:01:23-04:00*%
%TF.ProjectId,spdif-decoder,73706469-662d-4646-9563-6f6465722e6b,rev?*%
%TF.SameCoordinates,Original*%
%TF.FileFunction,Soldermask,Bot*%
%TF.FilePolarity,Negative*%
%FSLAX46Y46*%
G04 Gerber Fmt 4.6, Leading zero omitted, Abs format (unit mm)*
G04 Created by KiCad (PCBNEW 5.1.9-73d0e3b20d~88~ubuntu18.04.1) date 2021-08-18 08:01:23*
%MOMM*%
%LPD*%
G01*
G04 APERTURE LIST*
%ADD10C,1.500000*%
%ADD11C,1.524000*%
%ADD12C,4.300000*%
%ADD13C,1.600000*%
%ADD14R,1.600000X1.600000*%
%ADD15C,4.000000*%
%ADD16C,2.000000*%
%ADD17O,1.600000X1.600000*%
%ADD18C,1.800000*%
%ADD19R,1.800000X1.800000*%
G04 APERTURE END LIST*
D10*
%TO.C,J2*%
X105530000Y-143265000D03*
X95130000Y-143265000D03*
D11*
X97790000Y-139065000D03*
X100330000Y-139065000D03*
X102870000Y-139065000D03*
%TD*%
D12*
%TO.C,H4*%
X49530000Y-76200000D03*
%TD*%
%TO.C,H3*%
X113030000Y-76200000D03*
%TD*%
%TO.C,H2*%
X113030000Y-146050000D03*
%TD*%
%TO.C,H1*%
X49530000Y-146050000D03*
%TD*%
D13*
%TO.C,C4*%
X109220000Y-94615000D03*
X109220000Y-92115000D03*
%TD*%
%TO.C,U3*%
X77470000Y-109855000D03*
X69850000Y-109855000D03*
X77470000Y-92075000D03*
X77470000Y-94615000D03*
X77470000Y-97155000D03*
X77470000Y-99695000D03*
X77470000Y-102235000D03*
X77470000Y-104775000D03*
X77470000Y-107315000D03*
X69850000Y-107315000D03*
X69850000Y-104775000D03*
X69850000Y-102235000D03*
X69850000Y-99695000D03*
X69850000Y-97155000D03*
X69850000Y-94615000D03*
D14*
X69850000Y-92075000D03*
%TD*%
D15*
%TO.C,J1*%
X57840000Y-81765000D03*
X104940000Y-81765000D03*
D13*
X96625000Y-80345000D03*
X93855000Y-80345000D03*
X91085000Y-80345000D03*
X88315000Y-80345000D03*
X85545000Y-80345000D03*
X82775000Y-80345000D03*
X80005000Y-80345000D03*
X77235000Y-80345000D03*
X74465000Y-80345000D03*
X71695000Y-80345000D03*
X68925000Y-80345000D03*
X66155000Y-80345000D03*
X98010000Y-83185000D03*
X95240000Y-83185000D03*
X92470000Y-83185000D03*
X89700000Y-83185000D03*
X86930000Y-83185000D03*
X84160000Y-83185000D03*
X81390000Y-83185000D03*
X78620000Y-83185000D03*
X75850000Y-83185000D03*
X73080000Y-83185000D03*
X70310000Y-83185000D03*
X67540000Y-83185000D03*
D14*
X64770000Y-83185000D03*
%TD*%
D16*
%TO.C,SW1*%
X101600000Y-116690000D03*
X106100000Y-116690000D03*
X101600000Y-123190000D03*
X106100000Y-123190000D03*
%TD*%
D14*
%TO.C,U5*%
X99060000Y-92075000D03*
D13*
X99060000Y-94615000D03*
X99060000Y-97155000D03*
X99060000Y-99695000D03*
X99060000Y-102235000D03*
X99060000Y-104775000D03*
X99060000Y-107315000D03*
X106680000Y-107315000D03*
X106680000Y-104775000D03*
X106680000Y-102235000D03*
X106680000Y-99695000D03*
X106680000Y-97155000D03*
X106680000Y-94615000D03*
X106680000Y-92075000D03*
X99060000Y-109855000D03*
X106680000Y-109855000D03*
%TD*%
%TO.C,U4*%
X92075000Y-109855000D03*
X84455000Y-109855000D03*
X92075000Y-92075000D03*
X92075000Y-94615000D03*
X92075000Y-97155000D03*
X92075000Y-99695000D03*
X92075000Y-102235000D03*
X92075000Y-104775000D03*
X92075000Y-107315000D03*
X84455000Y-107315000D03*
X84455000Y-104775000D03*
X84455000Y-102235000D03*
X84455000Y-99695000D03*
X84455000Y-97155000D03*
X84455000Y-94615000D03*
D14*
X84455000Y-92075000D03*
%TD*%
D13*
%TO.C,U2*%
X62865000Y-109855000D03*
X55245000Y-109855000D03*
X62865000Y-92075000D03*
X62865000Y-94615000D03*
X62865000Y-97155000D03*
X62865000Y-99695000D03*
X62865000Y-102235000D03*
X62865000Y-104775000D03*
X62865000Y-107315000D03*
X55245000Y-107315000D03*
X55245000Y-104775000D03*
X55245000Y-102235000D03*
X55245000Y-99695000D03*
X55245000Y-97155000D03*
X55245000Y-94615000D03*
D14*
X55245000Y-92075000D03*
%TD*%
D13*
%TO.C,U1*%
X69850000Y-123825000D03*
X69850000Y-121285000D03*
X67310000Y-123825000D03*
X67310000Y-121285000D03*
X64770000Y-123825000D03*
X64770000Y-121285000D03*
X62230000Y-123825000D03*
X62230000Y-121285000D03*
X59690000Y-123825000D03*
X59690000Y-121285000D03*
X72390000Y-149225000D03*
X72390000Y-146685000D03*
X72390000Y-144145000D03*
X72390000Y-141605000D03*
X72390000Y-139065000D03*
X72390000Y-136525000D03*
X72390000Y-133985000D03*
X72390000Y-131445000D03*
X72390000Y-128905000D03*
X72390000Y-126365000D03*
X72390000Y-123825000D03*
X72390000Y-121285000D03*
X72390000Y-118745000D03*
X59690000Y-146685000D03*
X57150000Y-149225000D03*
X57150000Y-146685000D03*
X57150000Y-144145000D03*
X57150000Y-141605000D03*
X57150000Y-139065000D03*
X57150000Y-136525000D03*
X57150000Y-133985000D03*
X57150000Y-131445000D03*
X57150000Y-128905000D03*
X57150000Y-126365000D03*
X57150000Y-123825000D03*
X57150000Y-121285000D03*
X57150000Y-118745000D03*
X72390000Y-116205000D03*
X69850000Y-116205000D03*
X67310000Y-116205000D03*
X57150000Y-116205000D03*
X59690000Y-116205000D03*
X62230000Y-116205000D03*
X64770000Y-116205000D03*
%TD*%
D17*
%TO.C,R2*%
X86360000Y-141605000D03*
D13*
X86360000Y-149225000D03*
%TD*%
D17*
%TO.C,R6*%
X95250000Y-122555000D03*
D13*
X95250000Y-130175000D03*
%TD*%
D17*
%TO.C,R5*%
X89535000Y-122555000D03*
D13*
X89535000Y-130175000D03*
%TD*%
D17*
%TO.C,R4*%
X83820000Y-122555000D03*
D13*
X83820000Y-130175000D03*
%TD*%
D17*
%TO.C,R3*%
X78105000Y-122555000D03*
D13*
X78105000Y-130175000D03*
%TD*%
D17*
%TO.C,R1*%
X79375000Y-141605000D03*
D13*
X79375000Y-149225000D03*
%TD*%
D17*
%TO.C,L1*%
X91440000Y-133985000D03*
D13*
X93980000Y-133985000D03*
%TD*%
D18*
%TO.C,D2*%
X87630000Y-137795000D03*
D19*
X85090000Y-137795000D03*
%TD*%
D18*
%TO.C,D6*%
X96520000Y-118745000D03*
D19*
X93980000Y-118745000D03*
%TD*%
D18*
%TO.C,D5*%
X90805000Y-118745000D03*
D19*
X88265000Y-118745000D03*
%TD*%
D18*
%TO.C,D4*%
X85090000Y-118745000D03*
D19*
X82550000Y-118745000D03*
%TD*%
D18*
%TO.C,D3*%
X79375000Y-118745000D03*
D19*
X76835000Y-118745000D03*
%TD*%
D18*
%TO.C,D1*%
X80645000Y-137795000D03*
D19*
X78105000Y-137795000D03*
%TD*%
D13*
%TO.C,C5*%
X98425000Y-134239000D03*
X98425000Y-131739000D03*
%TD*%
%TO.C,C3*%
X94615000Y-92115000D03*
X94615000Y-94615000D03*
%TD*%
%TO.C,C2*%
X80010000Y-92115000D03*
X80010000Y-94615000D03*
%TD*%
%TO.C,C1*%
X65405000Y-92115000D03*
X65405000Y-94615000D03*
%TD*%
M02*
