M48
; DRILL file {KiCad 5.1.9-73d0e3b20d~88~ubuntu18.04.1} date Wed Aug 18 08:01:09 2021
; FORMAT={-:-/ absolute / inch / decimal}
; #@! TF.CreationDate,2021-08-18T08:01:09-04:00
; #@! TF.GenerationSoftware,Kicad,Pcbnew,5.1.9-73d0e3b20d~88~ubuntu18.04.1
; #@! TF.FileFunction,Plated,1,2,PTH
FMAT,2
INCH
T1C0.0157
T2C0.0315
T3C0.0354
T4C0.0386
T5C0.0394
T6C0.0433
T7C0.1260
%
G90
G05
T1
X2.4Y-4.45
X2.45Y-5.375
X2.5Y-4.45
X2.525Y-5.525
X2.5673Y-3.9577
X2.6Y-3.85
X2.6Y-4.0
X2.6Y-4.45
X2.625Y-5.4
X2.65Y-3.925
X2.675Y-3.775
X2.7Y-4.45
X2.85Y-4.075
X2.875Y-3.875
X2.875Y-4.225
X2.875Y-4.325
X2.9Y-4.125
X2.9Y-4.4
X2.99Y-4.13
X2.99Y-4.2
X3.075Y-4.45
X3.15Y-4.225
X3.15Y-4.325
X3.175Y-3.975
X3.2Y-4.225
X3.2Y-4.325
X3.2Y-4.475
X3.2485Y-3.8699
X3.25Y-3.95
X3.25Y-4.225
X3.25Y-4.325
X3.2596Y-3.9077
X3.275Y-4.475
X3.325Y-5.275
X3.3455Y-3.5419
X3.35Y-4.475
X3.3801Y-3.6136
X3.3908Y-3.5067
X3.4152Y-3.4758
X3.4187Y-3.6332
X3.425Y-4.475
X3.4544Y-3.4726
X3.4574Y-3.608
X3.4797Y-3.5756
X3.4972Y-3.4222
X3.5187Y-3.5698
X3.525Y-3.45
X3.547Y-3.597
X3.575Y-3.45
X3.575Y-4.55
X3.625Y-4.5
X3.675Y-4.45
X3.725Y-3.825
X3.725Y-3.925
X3.725Y-4.025
X3.725Y-4.125
X3.725Y-4.225
X3.725Y-4.4
X3.8Y-3.625
X3.8Y-3.675
X3.95Y-3.475
X4.05Y-3.925
X4.05Y-4.025
X4.05Y-4.125
X4.05Y-4.225
T2
X2.575Y-3.6266
X2.575Y-3.725
X3.075Y-4.825
X3.075Y-5.125
X3.125Y-5.575
X3.125Y-5.875
X3.15Y-3.6266
X3.15Y-3.725
X3.3Y-4.825
X3.3Y-5.125
X3.4Y-5.575
X3.4Y-5.875
X3.525Y-4.825
X3.525Y-5.125
X3.6Y-5.275
X3.7Y-5.275
X3.725Y-3.6266
X3.725Y-3.725
X3.75Y-4.825
X3.75Y-5.125
X3.875Y-5.1866
X3.875Y-5.285
X4.3Y-3.6266
X4.3Y-3.725
T3
X3.025Y-4.675
X3.075Y-5.425
X3.125Y-4.675
X3.175Y-5.425
X3.25Y-4.675
X3.35Y-4.675
X3.35Y-5.425
X3.45Y-5.425
X3.475Y-4.675
X3.575Y-4.675
X3.7Y-4.675
X3.8Y-4.675
T4
X3.85Y-5.475
X3.95Y-5.475
X4.05Y-5.475
T5
X2.175Y-3.625
X2.175Y-3.725
X2.175Y-3.825
X2.175Y-3.925
X2.175Y-4.025
X2.175Y-4.125
X2.175Y-4.225
X2.175Y-4.325
X2.475Y-3.625
X2.475Y-3.725
X2.475Y-3.825
X2.475Y-3.925
X2.475Y-4.025
X2.475Y-4.125
X2.475Y-4.225
X2.475Y-4.325
X2.55Y-3.275
X2.6045Y-3.1632
X2.6591Y-3.275
X2.7136Y-3.1632
X2.75Y-3.625
X2.75Y-3.725
X2.75Y-3.825
X2.75Y-3.925
X2.75Y-4.025
X2.75Y-4.125
X2.75Y-4.225
X2.75Y-4.325
X2.7681Y-3.275
X2.8226Y-3.1632
X2.8772Y-3.275
X2.9317Y-3.1632
X2.9862Y-3.275
X3.0407Y-3.1632
X3.05Y-3.625
X3.05Y-3.725
X3.05Y-3.825
X3.05Y-3.925
X3.05Y-4.025
X3.05Y-4.125
X3.05Y-4.225
X3.05Y-4.325
X3.0953Y-3.275
X3.1498Y-3.1632
X3.2043Y-3.275
X3.2589Y-3.1632
X3.3134Y-3.275
X3.325Y-3.625
X3.325Y-3.725
X3.325Y-3.825
X3.325Y-3.925
X3.325Y-4.025
X3.325Y-4.125
X3.325Y-4.225
X3.325Y-4.325
X3.3679Y-3.1632
X3.4224Y-3.275
X3.477Y-3.1632
X3.5315Y-3.275
X3.586Y-3.1632
X3.625Y-3.625
X3.625Y-3.725
X3.625Y-3.825
X3.625Y-3.925
X3.625Y-4.025
X3.625Y-4.125
X3.625Y-4.225
X3.625Y-4.325
X3.6406Y-3.275
X3.6951Y-3.1632
X3.7453Y-5.6404
X3.7496Y-3.275
X3.8041Y-3.1632
X3.8587Y-3.275
X3.9Y-3.625
X3.9Y-3.725
X3.9Y-3.825
X3.9Y-3.925
X3.9Y-4.025
X3.9Y-4.125
X3.9Y-4.225
X3.9Y-4.325
X4.1547Y-5.6404
X4.2Y-3.625
X4.2Y-3.725
X4.2Y-3.825
X4.2Y-3.925
X4.2Y-4.025
X4.2Y-4.125
X4.2Y-4.225
X4.2Y-4.325
T6
X2.25Y-4.575
X2.25Y-4.675
X2.25Y-4.775
X2.25Y-4.875
X2.25Y-4.975
X2.25Y-5.075
X2.25Y-5.175
X2.25Y-5.275
X2.25Y-5.375
X2.25Y-5.475
X2.25Y-5.575
X2.25Y-5.675
X2.25Y-5.775
X2.25Y-5.875
X2.35Y-4.575
X2.35Y-4.775
X2.35Y-4.875
X2.35Y-5.775
X2.45Y-4.575
X2.45Y-4.775
X2.45Y-4.875
X2.55Y-4.575
X2.55Y-4.775
X2.55Y-4.875
X2.65Y-4.575
X2.65Y-4.775
X2.65Y-4.875
X2.75Y-4.575
X2.75Y-4.775
X2.75Y-4.875
X2.85Y-4.575
X2.85Y-4.675
X2.85Y-4.775
X2.85Y-4.875
X2.85Y-4.975
X2.85Y-5.075
X2.85Y-5.175
X2.85Y-5.275
X2.85Y-5.375
X2.85Y-5.475
X2.85Y-5.575
X2.85Y-5.675
X2.85Y-5.775
X2.85Y-5.875
X4.0Y-4.5941
X4.0Y-4.85
X4.1772Y-4.5941
X4.1772Y-4.85
T7
X2.2772Y-3.2191
X4.1315Y-3.2191
T0
M30
