%TF.GenerationSoftware,KiCad,Pcbnew,5.1.9-73d0e3b20d~88~ubuntu18.04.1*%
%TF.CreationDate,2021-08-18T08:01:23-04:00*%
%TF.ProjectId,spdif-decoder,73706469-662d-4646-9563-6f6465722e6b,rev?*%
%TF.SameCoordinates,Original*%
%TF.FileFunction,Legend,Top*%
%TF.FilePolarity,Positive*%
%FSLAX46Y46*%
G04 Gerber Fmt 4.6, Leading zero omitted, Abs format (unit mm)*
G04 Created by KiCad (PCBNEW 5.1.9-73d0e3b20d~88~ubuntu18.04.1) date 2021-08-18 08:01:23*
%MOMM*%
%LPD*%
G01*
G04 APERTURE LIST*
%ADD10C,0.150000*%
%ADD11C,0.200000*%
%ADD12C,0.100000*%
%ADD13C,0.120000*%
%ADD14C,0.254000*%
G04 APERTURE END LIST*
D10*
X113101428Y-85347142D02*
X113101428Y-85013809D01*
X112577619Y-85013809D02*
X113577619Y-85013809D01*
X113577619Y-85490000D01*
X112577619Y-85870952D02*
X113244285Y-85870952D01*
X113577619Y-85870952D02*
X113530000Y-85823333D01*
X113482380Y-85870952D01*
X113530000Y-85918571D01*
X113577619Y-85870952D01*
X113482380Y-85870952D01*
X112577619Y-86347142D02*
X113244285Y-86347142D01*
X113053809Y-86347142D02*
X113149047Y-86394761D01*
X113196666Y-86442380D01*
X113244285Y-86537619D01*
X113244285Y-86632857D01*
X112577619Y-86966190D02*
X113244285Y-86966190D01*
X113149047Y-86966190D02*
X113196666Y-87013809D01*
X113244285Y-87109047D01*
X113244285Y-87251904D01*
X113196666Y-87347142D01*
X113101428Y-87394761D01*
X112577619Y-87394761D01*
X113101428Y-87394761D02*
X113196666Y-87442380D01*
X113244285Y-87537619D01*
X113244285Y-87680476D01*
X113196666Y-87775714D01*
X113101428Y-87823333D01*
X112577619Y-87823333D01*
X113244285Y-88204285D02*
X112577619Y-88394761D01*
X113053809Y-88585238D01*
X112577619Y-88775714D01*
X113244285Y-88966190D01*
X112577619Y-89775714D02*
X113101428Y-89775714D01*
X113196666Y-89728095D01*
X113244285Y-89632857D01*
X113244285Y-89442380D01*
X113196666Y-89347142D01*
X112625238Y-89775714D02*
X112577619Y-89680476D01*
X112577619Y-89442380D01*
X112625238Y-89347142D01*
X112720476Y-89299523D01*
X112815714Y-89299523D01*
X112910952Y-89347142D01*
X112958571Y-89442380D01*
X112958571Y-89680476D01*
X113006190Y-89775714D01*
X112577619Y-90251904D02*
X113244285Y-90251904D01*
X113053809Y-90251904D02*
X113149047Y-90299523D01*
X113196666Y-90347142D01*
X113244285Y-90442380D01*
X113244285Y-90537619D01*
X112625238Y-91251904D02*
X112577619Y-91156666D01*
X112577619Y-90966190D01*
X112625238Y-90870952D01*
X112720476Y-90823333D01*
X113101428Y-90823333D01*
X113196666Y-90870952D01*
X113244285Y-90966190D01*
X113244285Y-91156666D01*
X113196666Y-91251904D01*
X113101428Y-91299523D01*
X113006190Y-91299523D01*
X112910952Y-90823333D01*
X112625238Y-91775714D02*
X112577619Y-91775714D01*
X112482380Y-91728095D01*
X112434761Y-91680476D01*
X112577619Y-93394761D02*
X113577619Y-93394761D01*
X112625238Y-93394761D02*
X112577619Y-93299523D01*
X112577619Y-93109047D01*
X112625238Y-93013809D01*
X112672857Y-92966190D01*
X112768095Y-92918571D01*
X113053809Y-92918571D01*
X113149047Y-92966190D01*
X113196666Y-93013809D01*
X113244285Y-93109047D01*
X113244285Y-93299523D01*
X113196666Y-93394761D01*
X112625238Y-94251904D02*
X112577619Y-94156666D01*
X112577619Y-93966190D01*
X112625238Y-93870952D01*
X112720476Y-93823333D01*
X113101428Y-93823333D01*
X113196666Y-93870952D01*
X113244285Y-93966190D01*
X113244285Y-94156666D01*
X113196666Y-94251904D01*
X113101428Y-94299523D01*
X113006190Y-94299523D01*
X112910952Y-93823333D01*
X112625238Y-94680476D02*
X112577619Y-94775714D01*
X112577619Y-94966190D01*
X112625238Y-95061428D01*
X112720476Y-95109047D01*
X112768095Y-95109047D01*
X112863333Y-95061428D01*
X112910952Y-94966190D01*
X112910952Y-94823333D01*
X112958571Y-94728095D01*
X113053809Y-94680476D01*
X113101428Y-94680476D01*
X113196666Y-94728095D01*
X113244285Y-94823333D01*
X113244285Y-94966190D01*
X113196666Y-95061428D01*
X112577619Y-95537619D02*
X113244285Y-95537619D01*
X113577619Y-95537619D02*
X113530000Y-95490000D01*
X113482380Y-95537619D01*
X113530000Y-95585238D01*
X113577619Y-95537619D01*
X113482380Y-95537619D01*
X113244285Y-96442380D02*
X112434761Y-96442380D01*
X112339523Y-96394761D01*
X112291904Y-96347142D01*
X112244285Y-96251904D01*
X112244285Y-96109047D01*
X112291904Y-96013809D01*
X112625238Y-96442380D02*
X112577619Y-96347142D01*
X112577619Y-96156666D01*
X112625238Y-96061428D01*
X112672857Y-96013809D01*
X112768095Y-95966190D01*
X113053809Y-95966190D01*
X113149047Y-96013809D01*
X113196666Y-96061428D01*
X113244285Y-96156666D01*
X113244285Y-96347142D01*
X113196666Y-96442380D01*
X113244285Y-96918571D02*
X112577619Y-96918571D01*
X113149047Y-96918571D02*
X113196666Y-96966190D01*
X113244285Y-97061428D01*
X113244285Y-97204285D01*
X113196666Y-97299523D01*
X113101428Y-97347142D01*
X112577619Y-97347142D01*
X113244285Y-98442380D02*
X113244285Y-98823333D01*
X112577619Y-98585238D02*
X113434761Y-98585238D01*
X113530000Y-98632857D01*
X113577619Y-98728095D01*
X113577619Y-98823333D01*
X112577619Y-99156666D02*
X113244285Y-99156666D01*
X113577619Y-99156666D02*
X113530000Y-99109047D01*
X113482380Y-99156666D01*
X113530000Y-99204285D01*
X113577619Y-99156666D01*
X113482380Y-99156666D01*
X112577619Y-99775714D02*
X112625238Y-99680476D01*
X112720476Y-99632857D01*
X113577619Y-99632857D01*
X112625238Y-100537619D02*
X112577619Y-100442380D01*
X112577619Y-100251904D01*
X112625238Y-100156666D01*
X112720476Y-100109047D01*
X113101428Y-100109047D01*
X113196666Y-100156666D01*
X113244285Y-100251904D01*
X113244285Y-100442380D01*
X113196666Y-100537619D01*
X113101428Y-100585238D01*
X113006190Y-100585238D01*
X112910952Y-100109047D01*
X112625238Y-100966190D02*
X112577619Y-101061428D01*
X112577619Y-101251904D01*
X112625238Y-101347142D01*
X112720476Y-101394761D01*
X112768095Y-101394761D01*
X112863333Y-101347142D01*
X112910952Y-101251904D01*
X112910952Y-101109047D01*
X112958571Y-101013809D01*
X113053809Y-100966190D01*
X113101428Y-100966190D01*
X113196666Y-101013809D01*
X113244285Y-101109047D01*
X113244285Y-101251904D01*
X113196666Y-101347142D01*
X112625238Y-101870952D02*
X112577619Y-101870952D01*
X112482380Y-101823333D01*
X112434761Y-101775714D01*
X112577619Y-103490000D02*
X113577619Y-103490000D01*
X112625238Y-103490000D02*
X112577619Y-103394761D01*
X112577619Y-103204285D01*
X112625238Y-103109047D01*
X112672857Y-103061428D01*
X112768095Y-103013809D01*
X113053809Y-103013809D01*
X113149047Y-103061428D01*
X113196666Y-103109047D01*
X113244285Y-103204285D01*
X113244285Y-103394761D01*
X113196666Y-103490000D01*
X112577619Y-104109047D02*
X112625238Y-104013809D01*
X112672857Y-103966190D01*
X112768095Y-103918571D01*
X113053809Y-103918571D01*
X113149047Y-103966190D01*
X113196666Y-104013809D01*
X113244285Y-104109047D01*
X113244285Y-104251904D01*
X113196666Y-104347142D01*
X113149047Y-104394761D01*
X113053809Y-104442380D01*
X112768095Y-104442380D01*
X112672857Y-104394761D01*
X112625238Y-104347142D01*
X112577619Y-104251904D01*
X112577619Y-104109047D01*
X112625238Y-105299523D02*
X112577619Y-105204285D01*
X112577619Y-105013809D01*
X112625238Y-104918571D01*
X112672857Y-104870952D01*
X112768095Y-104823333D01*
X113053809Y-104823333D01*
X113149047Y-104870952D01*
X113196666Y-104918571D01*
X113244285Y-105013809D01*
X113244285Y-105204285D01*
X113196666Y-105299523D01*
X112625238Y-105680476D02*
X112577619Y-105775714D01*
X112577619Y-105966190D01*
X112625238Y-106061428D01*
X112720476Y-106109047D01*
X112768095Y-106109047D01*
X112863333Y-106061428D01*
X112910952Y-105966190D01*
X112910952Y-105823333D01*
X112958571Y-105728095D01*
X113053809Y-105680476D01*
X113101428Y-105680476D01*
X113196666Y-105728095D01*
X113244285Y-105823333D01*
X113244285Y-105966190D01*
X113196666Y-106061428D01*
X112672857Y-106537619D02*
X112625238Y-106585238D01*
X112577619Y-106537619D01*
X112625238Y-106490000D01*
X112672857Y-106537619D01*
X112577619Y-106537619D01*
X113196666Y-106537619D02*
X113149047Y-106585238D01*
X113101428Y-106537619D01*
X113149047Y-106490000D01*
X113196666Y-106537619D01*
X113101428Y-106537619D01*
X113244285Y-108204285D02*
X112434761Y-108204285D01*
X112339523Y-108156666D01*
X112291904Y-108109047D01*
X112244285Y-108013809D01*
X112244285Y-107870952D01*
X112291904Y-107775714D01*
X112625238Y-108204285D02*
X112577619Y-108109047D01*
X112577619Y-107918571D01*
X112625238Y-107823333D01*
X112672857Y-107775714D01*
X112768095Y-107728095D01*
X113053809Y-107728095D01*
X113149047Y-107775714D01*
X113196666Y-107823333D01*
X113244285Y-107918571D01*
X113244285Y-108109047D01*
X113196666Y-108204285D01*
X112577619Y-108680476D02*
X113244285Y-108680476D01*
X113577619Y-108680476D02*
X113530000Y-108632857D01*
X113482380Y-108680476D01*
X113530000Y-108728095D01*
X113577619Y-108680476D01*
X113482380Y-108680476D01*
X113244285Y-109013809D02*
X113244285Y-109394761D01*
X113577619Y-109156666D02*
X112720476Y-109156666D01*
X112625238Y-109204285D01*
X112577619Y-109299523D01*
X112577619Y-109394761D01*
X112577619Y-109728095D02*
X113577619Y-109728095D01*
X112577619Y-110156666D02*
X113101428Y-110156666D01*
X113196666Y-110109047D01*
X113244285Y-110013809D01*
X113244285Y-109870952D01*
X113196666Y-109775714D01*
X113149047Y-109728095D01*
X113244285Y-111061428D02*
X112577619Y-111061428D01*
X113244285Y-110632857D02*
X112720476Y-110632857D01*
X112625238Y-110680476D01*
X112577619Y-110775714D01*
X112577619Y-110918571D01*
X112625238Y-111013809D01*
X112672857Y-111061428D01*
X112577619Y-111537619D02*
X113577619Y-111537619D01*
X113196666Y-111537619D02*
X113244285Y-111632857D01*
X113244285Y-111823333D01*
X113196666Y-111918571D01*
X113149047Y-111966190D01*
X113053809Y-112013809D01*
X112768095Y-112013809D01*
X112672857Y-111966190D01*
X112625238Y-111918571D01*
X112577619Y-111823333D01*
X112577619Y-111632857D01*
X112625238Y-111537619D01*
X112672857Y-112442380D02*
X112625238Y-112489999D01*
X112577619Y-112442380D01*
X112625238Y-112394761D01*
X112672857Y-112442380D01*
X112577619Y-112442380D01*
X112625238Y-113347142D02*
X112577619Y-113251904D01*
X112577619Y-113061428D01*
X112625238Y-112966190D01*
X112672857Y-112918571D01*
X112768095Y-112870952D01*
X113053809Y-112870952D01*
X113149047Y-112918571D01*
X113196666Y-112966190D01*
X113244285Y-113061428D01*
X113244285Y-113251904D01*
X113196666Y-113347142D01*
X112577619Y-113918571D02*
X112625238Y-113823333D01*
X112672857Y-113775714D01*
X112768095Y-113728095D01*
X113053809Y-113728095D01*
X113149047Y-113775714D01*
X113196666Y-113823333D01*
X113244285Y-113918571D01*
X113244285Y-114061428D01*
X113196666Y-114156666D01*
X113149047Y-114204285D01*
X113053809Y-114251904D01*
X112768095Y-114251904D01*
X112672857Y-114204285D01*
X112625238Y-114156666D01*
X112577619Y-114061428D01*
X112577619Y-113918571D01*
X112577619Y-114680476D02*
X113244285Y-114680476D01*
X113149047Y-114680476D02*
X113196666Y-114728095D01*
X113244285Y-114823333D01*
X113244285Y-114966190D01*
X113196666Y-115061428D01*
X113101428Y-115109047D01*
X112577619Y-115109047D01*
X113101428Y-115109047D02*
X113196666Y-115156666D01*
X113244285Y-115251904D01*
X113244285Y-115394761D01*
X113196666Y-115489999D01*
X113101428Y-115537619D01*
X112577619Y-115537619D01*
X113625238Y-116728095D02*
X112339523Y-115870952D01*
X112577619Y-117061428D02*
X113244285Y-117061428D01*
X113149047Y-117061428D02*
X113196666Y-117109047D01*
X113244285Y-117204285D01*
X113244285Y-117347142D01*
X113196666Y-117442380D01*
X113101428Y-117489999D01*
X112577619Y-117489999D01*
X113101428Y-117489999D02*
X113196666Y-117537619D01*
X113244285Y-117632857D01*
X113244285Y-117775714D01*
X113196666Y-117870952D01*
X113101428Y-117918571D01*
X112577619Y-117918571D01*
X112577619Y-118823333D02*
X113101428Y-118823333D01*
X113196666Y-118775714D01*
X113244285Y-118680476D01*
X113244285Y-118489999D01*
X113196666Y-118394761D01*
X112625238Y-118823333D02*
X112577619Y-118728095D01*
X112577619Y-118489999D01*
X112625238Y-118394761D01*
X112720476Y-118347142D01*
X112815714Y-118347142D01*
X112910952Y-118394761D01*
X112958571Y-118489999D01*
X112958571Y-118728095D01*
X113006190Y-118823333D01*
X112577619Y-119728095D02*
X113577619Y-119728095D01*
X112625238Y-119728095D02*
X112577619Y-119632857D01*
X112577619Y-119442380D01*
X112625238Y-119347142D01*
X112672857Y-119299523D01*
X112768095Y-119251904D01*
X113053809Y-119251904D01*
X113149047Y-119299523D01*
X113196666Y-119347142D01*
X113244285Y-119442380D01*
X113244285Y-119632857D01*
X113196666Y-119728095D01*
X112577619Y-120632857D02*
X113577619Y-120632857D01*
X112625238Y-120632857D02*
X112577619Y-120537619D01*
X112577619Y-120347142D01*
X112625238Y-120251904D01*
X112672857Y-120204285D01*
X112768095Y-120156666D01*
X113053809Y-120156666D01*
X113149047Y-120204285D01*
X113196666Y-120251904D01*
X113244285Y-120347142D01*
X113244285Y-120537619D01*
X113196666Y-120632857D01*
X112577619Y-121251904D02*
X112625238Y-121156666D01*
X112672857Y-121109047D01*
X112768095Y-121061428D01*
X113053809Y-121061428D01*
X113149047Y-121109047D01*
X113196666Y-121156666D01*
X113244285Y-121251904D01*
X113244285Y-121394761D01*
X113196666Y-121489999D01*
X113149047Y-121537619D01*
X113053809Y-121585238D01*
X112768095Y-121585238D01*
X112672857Y-121537619D01*
X112625238Y-121489999D01*
X112577619Y-121394761D01*
X112577619Y-121251904D01*
X112577619Y-121918571D02*
X113244285Y-122442380D01*
X113244285Y-121918571D02*
X112577619Y-122442380D01*
X112577619Y-122966190D02*
X112625238Y-122870952D01*
X112720476Y-122823333D01*
X113577619Y-122823333D01*
X112577619Y-123775714D02*
X113101428Y-123775714D01*
X113196666Y-123728095D01*
X113244285Y-123632857D01*
X113244285Y-123442380D01*
X113196666Y-123347142D01*
X112625238Y-123775714D02*
X112577619Y-123680476D01*
X112577619Y-123442380D01*
X112625238Y-123347142D01*
X112720476Y-123299523D01*
X112815714Y-123299523D01*
X112910952Y-123347142D01*
X112958571Y-123442380D01*
X112958571Y-123680476D01*
X113006190Y-123775714D01*
X112577619Y-124251904D02*
X113577619Y-124251904D01*
X113196666Y-124251904D02*
X113244285Y-124347142D01*
X113244285Y-124537619D01*
X113196666Y-124632857D01*
X113149047Y-124680476D01*
X113053809Y-124728095D01*
X112768095Y-124728095D01*
X112672857Y-124680476D01*
X112625238Y-124632857D01*
X112577619Y-124537619D01*
X112577619Y-124347142D01*
X112625238Y-124251904D01*
X113625238Y-125870952D02*
X112339523Y-125013809D01*
X112625238Y-126156666D02*
X112577619Y-126251904D01*
X112577619Y-126442380D01*
X112625238Y-126537619D01*
X112720476Y-126585238D01*
X112768095Y-126585238D01*
X112863333Y-126537619D01*
X112910952Y-126442380D01*
X112910952Y-126299523D01*
X112958571Y-126204285D01*
X113053809Y-126156666D01*
X113101428Y-126156666D01*
X113196666Y-126204285D01*
X113244285Y-126299523D01*
X113244285Y-126442380D01*
X113196666Y-126537619D01*
X113244285Y-127013809D02*
X112244285Y-127013809D01*
X113196666Y-127013809D02*
X113244285Y-127109047D01*
X113244285Y-127299523D01*
X113196666Y-127394761D01*
X113149047Y-127442380D01*
X113053809Y-127489999D01*
X112768095Y-127489999D01*
X112672857Y-127442380D01*
X112625238Y-127394761D01*
X112577619Y-127299523D01*
X112577619Y-127109047D01*
X112625238Y-127013809D01*
X112577619Y-128347142D02*
X113577619Y-128347142D01*
X112625238Y-128347142D02*
X112577619Y-128251904D01*
X112577619Y-128061428D01*
X112625238Y-127966190D01*
X112672857Y-127918571D01*
X112768095Y-127870952D01*
X113053809Y-127870952D01*
X113149047Y-127918571D01*
X113196666Y-127966190D01*
X113244285Y-128061428D01*
X113244285Y-128251904D01*
X113196666Y-128347142D01*
X112577619Y-128823333D02*
X113244285Y-128823333D01*
X113577619Y-128823333D02*
X113530000Y-128775714D01*
X113482380Y-128823333D01*
X113530000Y-128870952D01*
X113577619Y-128823333D01*
X113482380Y-128823333D01*
X113244285Y-129156666D02*
X113244285Y-129537619D01*
X112577619Y-129299523D02*
X113434761Y-129299523D01*
X113530000Y-129347142D01*
X113577619Y-129442380D01*
X113577619Y-129537619D01*
X112958571Y-129870952D02*
X112958571Y-130632857D01*
X112625238Y-131061428D02*
X112577619Y-131156666D01*
X112577619Y-131347142D01*
X112625238Y-131442380D01*
X112720476Y-131489999D01*
X112768095Y-131489999D01*
X112863333Y-131442380D01*
X112910952Y-131347142D01*
X112910952Y-131204285D01*
X112958571Y-131109047D01*
X113053809Y-131061428D01*
X113101428Y-131061428D01*
X113196666Y-131109047D01*
X113244285Y-131204285D01*
X113244285Y-131347142D01*
X113196666Y-131442380D01*
X113244285Y-131918571D02*
X112244285Y-131918571D01*
X113196666Y-131918571D02*
X113244285Y-132013809D01*
X113244285Y-132204285D01*
X113196666Y-132299523D01*
X113149047Y-132347142D01*
X113053809Y-132394761D01*
X112768095Y-132394761D01*
X112672857Y-132347142D01*
X112625238Y-132299523D01*
X112577619Y-132204285D01*
X112577619Y-132013809D01*
X112625238Y-131918571D01*
X112577619Y-132966190D02*
X112625238Y-132870952D01*
X112720476Y-132823333D01*
X113577619Y-132823333D01*
X112577619Y-133347142D02*
X113244285Y-133347142D01*
X113577619Y-133347142D02*
X113530000Y-133299523D01*
X113482380Y-133347142D01*
X113530000Y-133394761D01*
X113577619Y-133347142D01*
X113482380Y-133347142D01*
X113244285Y-133680476D02*
X113244285Y-134061428D01*
X113577619Y-133823333D02*
X112720476Y-133823333D01*
X112625238Y-133870952D01*
X112577619Y-133966190D01*
X112577619Y-134061428D01*
X113244285Y-134251904D02*
X113244285Y-134632857D01*
X113577619Y-134394761D02*
X112720476Y-134394761D01*
X112625238Y-134442380D01*
X112577619Y-134537619D01*
X112577619Y-134632857D01*
X112625238Y-135347142D02*
X112577619Y-135251904D01*
X112577619Y-135061428D01*
X112625238Y-134966190D01*
X112720476Y-134918571D01*
X113101428Y-134918571D01*
X113196666Y-134966190D01*
X113244285Y-135061428D01*
X113244285Y-135251904D01*
X113196666Y-135347142D01*
X113101428Y-135394761D01*
X113006190Y-135394761D01*
X112910952Y-134918571D01*
X112577619Y-135823333D02*
X113244285Y-135823333D01*
X113053809Y-135823333D02*
X113149047Y-135870952D01*
X113196666Y-135918571D01*
X113244285Y-136013809D01*
X113244285Y-136109047D01*
X49982380Y-124020952D02*
X48982380Y-124020952D01*
X48982380Y-123782857D01*
X49030000Y-123640000D01*
X49125238Y-123544761D01*
X49220476Y-123497142D01*
X49410952Y-123449523D01*
X49553809Y-123449523D01*
X49744285Y-123497142D01*
X49839523Y-123544761D01*
X49934761Y-123640000D01*
X49982380Y-123782857D01*
X49982380Y-124020952D01*
X49934761Y-122640000D02*
X49982380Y-122735238D01*
X49982380Y-122925714D01*
X49934761Y-123020952D01*
X49839523Y-123068571D01*
X49458571Y-123068571D01*
X49363333Y-123020952D01*
X49315714Y-122925714D01*
X49315714Y-122735238D01*
X49363333Y-122640000D01*
X49458571Y-122592380D01*
X49553809Y-122592380D01*
X49649047Y-123068571D01*
X49934761Y-122211428D02*
X49982380Y-122116190D01*
X49982380Y-121925714D01*
X49934761Y-121830476D01*
X49839523Y-121782857D01*
X49791904Y-121782857D01*
X49696666Y-121830476D01*
X49649047Y-121925714D01*
X49649047Y-122068571D01*
X49601428Y-122163809D01*
X49506190Y-122211428D01*
X49458571Y-122211428D01*
X49363333Y-122163809D01*
X49315714Y-122068571D01*
X49315714Y-121925714D01*
X49363333Y-121830476D01*
X49982380Y-121354285D02*
X49315714Y-121354285D01*
X48982380Y-121354285D02*
X49030000Y-121401904D01*
X49077619Y-121354285D01*
X49030000Y-121306666D01*
X48982380Y-121354285D01*
X49077619Y-121354285D01*
X49315714Y-120449523D02*
X50125238Y-120449523D01*
X50220476Y-120497142D01*
X50268095Y-120544761D01*
X50315714Y-120640000D01*
X50315714Y-120782857D01*
X50268095Y-120878095D01*
X49934761Y-120449523D02*
X49982380Y-120544761D01*
X49982380Y-120735238D01*
X49934761Y-120830476D01*
X49887142Y-120878095D01*
X49791904Y-120925714D01*
X49506190Y-120925714D01*
X49410952Y-120878095D01*
X49363333Y-120830476D01*
X49315714Y-120735238D01*
X49315714Y-120544761D01*
X49363333Y-120449523D01*
X49315714Y-119973333D02*
X49982380Y-119973333D01*
X49410952Y-119973333D02*
X49363333Y-119925714D01*
X49315714Y-119830476D01*
X49315714Y-119687619D01*
X49363333Y-119592380D01*
X49458571Y-119544761D01*
X49982380Y-119544761D01*
X49934761Y-118687619D02*
X49982380Y-118782857D01*
X49982380Y-118973333D01*
X49934761Y-119068571D01*
X49839523Y-119116190D01*
X49458571Y-119116190D01*
X49363333Y-119068571D01*
X49315714Y-118973333D01*
X49315714Y-118782857D01*
X49363333Y-118687619D01*
X49458571Y-118640000D01*
X49553809Y-118640000D01*
X49649047Y-119116190D01*
X49982380Y-117782857D02*
X48982380Y-117782857D01*
X49934761Y-117782857D02*
X49982380Y-117878095D01*
X49982380Y-118068571D01*
X49934761Y-118163809D01*
X49887142Y-118211428D01*
X49791904Y-118259047D01*
X49506190Y-118259047D01*
X49410952Y-118211428D01*
X49363333Y-118163809D01*
X49315714Y-118068571D01*
X49315714Y-117878095D01*
X49363333Y-117782857D01*
X49982380Y-116544761D02*
X48982380Y-116544761D01*
X49363333Y-116544761D02*
X49315714Y-116449523D01*
X49315714Y-116259047D01*
X49363333Y-116163809D01*
X49410952Y-116116190D01*
X49506190Y-116068571D01*
X49791904Y-116068571D01*
X49887142Y-116116190D01*
X49934761Y-116163809D01*
X49982380Y-116259047D01*
X49982380Y-116449523D01*
X49934761Y-116544761D01*
X49315714Y-115735238D02*
X49982380Y-115497142D01*
X49315714Y-115259047D02*
X49982380Y-115497142D01*
X50220476Y-115592380D01*
X50268095Y-115640000D01*
X50315714Y-115735238D01*
X49982380Y-113544761D02*
X49506190Y-113878095D01*
X49982380Y-114116190D02*
X48982380Y-114116190D01*
X48982380Y-113735238D01*
X49030000Y-113640000D01*
X49077619Y-113592380D01*
X49172857Y-113544761D01*
X49315714Y-113544761D01*
X49410952Y-113592380D01*
X49458571Y-113640000D01*
X49506190Y-113735238D01*
X49506190Y-114116190D01*
X49982380Y-112973333D02*
X49934761Y-113068571D01*
X49887142Y-113116190D01*
X49791904Y-113163809D01*
X49506190Y-113163809D01*
X49410952Y-113116190D01*
X49363333Y-113068571D01*
X49315714Y-112973333D01*
X49315714Y-112830476D01*
X49363333Y-112735238D01*
X49410952Y-112687619D01*
X49506190Y-112640000D01*
X49791904Y-112640000D01*
X49887142Y-112687619D01*
X49934761Y-112735238D01*
X49982380Y-112830476D01*
X49982380Y-112973333D01*
X49934761Y-112259047D02*
X49982380Y-112163809D01*
X49982380Y-111973333D01*
X49934761Y-111878095D01*
X49839523Y-111830476D01*
X49791904Y-111830476D01*
X49696666Y-111878095D01*
X49649047Y-111973333D01*
X49649047Y-112116190D01*
X49601428Y-112211428D01*
X49506190Y-112259047D01*
X49458571Y-112259047D01*
X49363333Y-112211428D01*
X49315714Y-112116190D01*
X49315714Y-111973333D01*
X49363333Y-111878095D01*
X49934761Y-111449523D02*
X49982380Y-111354285D01*
X49982380Y-111163809D01*
X49934761Y-111068571D01*
X49839523Y-111020952D01*
X49791904Y-111020952D01*
X49696666Y-111068571D01*
X49649047Y-111163809D01*
X49649047Y-111306666D01*
X49601428Y-111401904D01*
X49506190Y-111449523D01*
X49458571Y-111449523D01*
X49363333Y-111401904D01*
X49315714Y-111306666D01*
X49315714Y-111163809D01*
X49363333Y-111068571D01*
X49982380Y-109830476D02*
X48982380Y-109830476D01*
X49696666Y-109497142D01*
X48982380Y-109163809D01*
X49982380Y-109163809D01*
X49982380Y-108259047D02*
X49458571Y-108259047D01*
X49363333Y-108306666D01*
X49315714Y-108401904D01*
X49315714Y-108592380D01*
X49363333Y-108687619D01*
X49934761Y-108259047D02*
X49982380Y-108354285D01*
X49982380Y-108592380D01*
X49934761Y-108687619D01*
X49839523Y-108735238D01*
X49744285Y-108735238D01*
X49649047Y-108687619D01*
X49601428Y-108592380D01*
X49601428Y-108354285D01*
X49553809Y-108259047D01*
X49982380Y-107354285D02*
X48982380Y-107354285D01*
X49934761Y-107354285D02*
X49982380Y-107449523D01*
X49982380Y-107640000D01*
X49934761Y-107735238D01*
X49887142Y-107782857D01*
X49791904Y-107830476D01*
X49506190Y-107830476D01*
X49410952Y-107782857D01*
X49363333Y-107735238D01*
X49315714Y-107640000D01*
X49315714Y-107449523D01*
X49363333Y-107354285D01*
X49982380Y-106449523D02*
X48982380Y-106449523D01*
X49934761Y-106449523D02*
X49982380Y-106544761D01*
X49982380Y-106735238D01*
X49934761Y-106830476D01*
X49887142Y-106878095D01*
X49791904Y-106925714D01*
X49506190Y-106925714D01*
X49410952Y-106878095D01*
X49363333Y-106830476D01*
X49315714Y-106735238D01*
X49315714Y-106544761D01*
X49363333Y-106449523D01*
X49982380Y-105830476D02*
X49934761Y-105925714D01*
X49887142Y-105973333D01*
X49791904Y-106020952D01*
X49506190Y-106020952D01*
X49410952Y-105973333D01*
X49363333Y-105925714D01*
X49315714Y-105830476D01*
X49315714Y-105687619D01*
X49363333Y-105592380D01*
X49410952Y-105544761D01*
X49506190Y-105497142D01*
X49791904Y-105497142D01*
X49887142Y-105544761D01*
X49934761Y-105592380D01*
X49982380Y-105687619D01*
X49982380Y-105830476D01*
X49982380Y-105163809D02*
X49315714Y-104640000D01*
X49315714Y-105163809D02*
X49982380Y-104640000D01*
X49506190Y-102878095D02*
X49458571Y-102925714D01*
X49410952Y-103020952D01*
X49410952Y-103116190D01*
X49458571Y-103211428D01*
X49506190Y-103259047D01*
X49601428Y-103306666D01*
X49696666Y-103306666D01*
X49791904Y-103259047D01*
X49839523Y-103211428D01*
X49887142Y-103116190D01*
X49887142Y-103020952D01*
X49839523Y-102925714D01*
X49791904Y-102878095D01*
X49410952Y-102878095D02*
X49791904Y-102878095D01*
X49839523Y-102830476D01*
X49839523Y-102782857D01*
X49791904Y-102687619D01*
X49696666Y-102640000D01*
X49458571Y-102640000D01*
X49315714Y-102735238D01*
X49220476Y-102878095D01*
X49172857Y-103068571D01*
X49220476Y-103259047D01*
X49315714Y-103401904D01*
X49458571Y-103497142D01*
X49649047Y-103544761D01*
X49839523Y-103497142D01*
X49982380Y-103401904D01*
X50077619Y-103259047D01*
X50125238Y-103068571D01*
X50077619Y-102878095D01*
X49982380Y-102735238D01*
X48982380Y-101449523D02*
X49791904Y-101449523D01*
X49887142Y-101401904D01*
X49934761Y-101354285D01*
X49982380Y-101259047D01*
X49982380Y-101068571D01*
X49934761Y-100973333D01*
X49887142Y-100925714D01*
X49791904Y-100878095D01*
X48982380Y-100878095D01*
X49315714Y-100401904D02*
X49982380Y-100401904D01*
X49410952Y-100401904D02*
X49363333Y-100354285D01*
X49315714Y-100259047D01*
X49315714Y-100116190D01*
X49363333Y-100020952D01*
X49458571Y-99973333D01*
X49982380Y-99973333D01*
X49982380Y-99497142D02*
X49315714Y-99497142D01*
X48982380Y-99497142D02*
X49030000Y-99544761D01*
X49077619Y-99497142D01*
X49030000Y-99449523D01*
X48982380Y-99497142D01*
X49077619Y-99497142D01*
X49315714Y-99116190D02*
X49982380Y-98878095D01*
X49315714Y-98640000D01*
X49934761Y-97878095D02*
X49982380Y-97973333D01*
X49982380Y-98163809D01*
X49934761Y-98259047D01*
X49839523Y-98306666D01*
X49458571Y-98306666D01*
X49363333Y-98259047D01*
X49315714Y-98163809D01*
X49315714Y-97973333D01*
X49363333Y-97878095D01*
X49458571Y-97830476D01*
X49553809Y-97830476D01*
X49649047Y-98306666D01*
X49982380Y-97401904D02*
X49315714Y-97401904D01*
X49506190Y-97401904D02*
X49410952Y-97354285D01*
X49363333Y-97306666D01*
X49315714Y-97211428D01*
X49315714Y-97116190D01*
X49934761Y-96830476D02*
X49982380Y-96735238D01*
X49982380Y-96544761D01*
X49934761Y-96449523D01*
X49839523Y-96401904D01*
X49791904Y-96401904D01*
X49696666Y-96449523D01*
X49649047Y-96544761D01*
X49649047Y-96687619D01*
X49601428Y-96782857D01*
X49506190Y-96830476D01*
X49458571Y-96830476D01*
X49363333Y-96782857D01*
X49315714Y-96687619D01*
X49315714Y-96544761D01*
X49363333Y-96449523D01*
X49982380Y-95973333D02*
X49315714Y-95973333D01*
X48982380Y-95973333D02*
X49030000Y-96020952D01*
X49077619Y-95973333D01*
X49030000Y-95925714D01*
X48982380Y-95973333D01*
X49077619Y-95973333D01*
X49315714Y-95640000D02*
X49315714Y-95259047D01*
X48982380Y-95497142D02*
X49839523Y-95497142D01*
X49934761Y-95449523D01*
X49982380Y-95354285D01*
X49982380Y-95259047D01*
X49315714Y-95020952D02*
X49982380Y-94782857D01*
X49315714Y-94544761D02*
X49982380Y-94782857D01*
X50220476Y-94878095D01*
X50268095Y-94925714D01*
X50315714Y-95020952D01*
X49982380Y-93259047D02*
X49934761Y-93354285D01*
X49887142Y-93401904D01*
X49791904Y-93449523D01*
X49506190Y-93449523D01*
X49410952Y-93401904D01*
X49363333Y-93354285D01*
X49315714Y-93259047D01*
X49315714Y-93116190D01*
X49363333Y-93020952D01*
X49410952Y-92973333D01*
X49506190Y-92925714D01*
X49791904Y-92925714D01*
X49887142Y-92973333D01*
X49934761Y-93020952D01*
X49982380Y-93116190D01*
X49982380Y-93259047D01*
X49315714Y-92640000D02*
X49315714Y-92259047D01*
X49982380Y-92497142D02*
X49125238Y-92497142D01*
X49030000Y-92449523D01*
X48982380Y-92354285D01*
X48982380Y-92259047D01*
X49982380Y-90592380D02*
X49506190Y-90925714D01*
X49982380Y-91163809D02*
X48982380Y-91163809D01*
X48982380Y-90782857D01*
X49030000Y-90687619D01*
X49077619Y-90640000D01*
X49172857Y-90592380D01*
X49315714Y-90592380D01*
X49410952Y-90640000D01*
X49458571Y-90687619D01*
X49506190Y-90782857D01*
X49506190Y-91163809D01*
X49982380Y-90020952D02*
X49934761Y-90116190D01*
X49887142Y-90163809D01*
X49791904Y-90211428D01*
X49506190Y-90211428D01*
X49410952Y-90163809D01*
X49363333Y-90116190D01*
X49315714Y-90020952D01*
X49315714Y-89878095D01*
X49363333Y-89782857D01*
X49410952Y-89735238D01*
X49506190Y-89687619D01*
X49791904Y-89687619D01*
X49887142Y-89735238D01*
X49934761Y-89782857D01*
X49982380Y-89878095D01*
X49982380Y-90020952D01*
X49934761Y-88830476D02*
X49982380Y-88925714D01*
X49982380Y-89116190D01*
X49934761Y-89211428D01*
X49887142Y-89259047D01*
X49791904Y-89306666D01*
X49506190Y-89306666D01*
X49410952Y-89259047D01*
X49363333Y-89211428D01*
X49315714Y-89116190D01*
X49315714Y-88925714D01*
X49363333Y-88830476D01*
X49982380Y-88401904D02*
X48982380Y-88401904D01*
X49982380Y-87973333D02*
X49458571Y-87973333D01*
X49363333Y-88020952D01*
X49315714Y-88116190D01*
X49315714Y-88259047D01*
X49363333Y-88354285D01*
X49410952Y-88401904D01*
X49934761Y-87116190D02*
X49982380Y-87211428D01*
X49982380Y-87401904D01*
X49934761Y-87497142D01*
X49839523Y-87544761D01*
X49458571Y-87544761D01*
X49363333Y-87497142D01*
X49315714Y-87401904D01*
X49315714Y-87211428D01*
X49363333Y-87116190D01*
X49458571Y-87068571D01*
X49553809Y-87068571D01*
X49649047Y-87544761D01*
X49934761Y-86687619D02*
X49982380Y-86592380D01*
X49982380Y-86401904D01*
X49934761Y-86306666D01*
X49839523Y-86259047D01*
X49791904Y-86259047D01*
X49696666Y-86306666D01*
X49649047Y-86401904D01*
X49649047Y-86544761D01*
X49601428Y-86640000D01*
X49506190Y-86687619D01*
X49458571Y-86687619D01*
X49363333Y-86640000D01*
X49315714Y-86544761D01*
X49315714Y-86401904D01*
X49363333Y-86306666D01*
X49315714Y-85973333D02*
X49315714Y-85592380D01*
X48982380Y-85830476D02*
X49839523Y-85830476D01*
X49934761Y-85782857D01*
X49982380Y-85687619D01*
X49982380Y-85592380D01*
X49934761Y-84878095D02*
X49982380Y-84973333D01*
X49982380Y-85163809D01*
X49934761Y-85259047D01*
X49839523Y-85306666D01*
X49458571Y-85306666D01*
X49363333Y-85259047D01*
X49315714Y-85163809D01*
X49315714Y-84973333D01*
X49363333Y-84878095D01*
X49458571Y-84830476D01*
X49553809Y-84830476D01*
X49649047Y-85306666D01*
X49982380Y-84401904D02*
X49315714Y-84401904D01*
X49506190Y-84401904D02*
X49410952Y-84354285D01*
X49363333Y-84306666D01*
X49315714Y-84211428D01*
X49315714Y-84116190D01*
X50882571Y-136562761D02*
X51415904Y-136372285D01*
X50882571Y-136181809D01*
X51377809Y-135572285D02*
X51415904Y-135648476D01*
X51415904Y-135800857D01*
X51377809Y-135877047D01*
X51301619Y-135915142D01*
X50996857Y-135915142D01*
X50920666Y-135877047D01*
X50882571Y-135800857D01*
X50882571Y-135648476D01*
X50920666Y-135572285D01*
X50996857Y-135534190D01*
X51073047Y-135534190D01*
X51149238Y-135915142D01*
X51415904Y-135191333D02*
X50882571Y-135191333D01*
X51034952Y-135191333D02*
X50958761Y-135153238D01*
X50920666Y-135115142D01*
X50882571Y-135038952D01*
X50882571Y-134962761D01*
X51377809Y-134734190D02*
X51415904Y-134658000D01*
X51415904Y-134505619D01*
X51377809Y-134429428D01*
X51301619Y-134391333D01*
X51263523Y-134391333D01*
X51187333Y-134429428D01*
X51149238Y-134505619D01*
X51149238Y-134619904D01*
X51111142Y-134696095D01*
X51034952Y-134734190D01*
X50996857Y-134734190D01*
X50920666Y-134696095D01*
X50882571Y-134619904D01*
X50882571Y-134505619D01*
X50920666Y-134429428D01*
X51415904Y-134048476D02*
X50882571Y-134048476D01*
X50615904Y-134048476D02*
X50654000Y-134086571D01*
X50692095Y-134048476D01*
X50654000Y-134010380D01*
X50615904Y-134048476D01*
X50692095Y-134048476D01*
X51415904Y-133553238D02*
X51377809Y-133629428D01*
X51339714Y-133667523D01*
X51263523Y-133705619D01*
X51034952Y-133705619D01*
X50958761Y-133667523D01*
X50920666Y-133629428D01*
X50882571Y-133553238D01*
X50882571Y-133438952D01*
X50920666Y-133362761D01*
X50958761Y-133324666D01*
X51034952Y-133286571D01*
X51263523Y-133286571D01*
X51339714Y-133324666D01*
X51377809Y-133362761D01*
X51415904Y-133438952D01*
X51415904Y-133553238D01*
X50882571Y-132943714D02*
X51415904Y-132943714D01*
X50958761Y-132943714D02*
X50920666Y-132905619D01*
X50882571Y-132829428D01*
X50882571Y-132715142D01*
X50920666Y-132638952D01*
X50996857Y-132600857D01*
X51415904Y-132600857D01*
X50692095Y-131648476D02*
X50654000Y-131610380D01*
X50615904Y-131534190D01*
X50615904Y-131343714D01*
X50654000Y-131267523D01*
X50692095Y-131229428D01*
X50768285Y-131191333D01*
X50844476Y-131191333D01*
X50958761Y-131229428D01*
X51415904Y-131686571D01*
X51415904Y-131191333D01*
X49323523Y-138848476D02*
X49418761Y-138619904D01*
X49418761Y-138238952D01*
X49323523Y-138086571D01*
X49228285Y-138010380D01*
X49037809Y-137934190D01*
X48847333Y-137934190D01*
X48656857Y-138010380D01*
X48561619Y-138086571D01*
X48466380Y-138238952D01*
X48371142Y-138543714D01*
X48275904Y-138696095D01*
X48180666Y-138772285D01*
X47990190Y-138848476D01*
X47799714Y-138848476D01*
X47609238Y-138772285D01*
X47514000Y-138696095D01*
X47418761Y-138543714D01*
X47418761Y-138162761D01*
X47514000Y-137934190D01*
X47323523Y-136105619D02*
X49894952Y-137477047D01*
X49418761Y-135572285D02*
X47418761Y-135572285D01*
X47418761Y-134962761D01*
X47514000Y-134810380D01*
X47609238Y-134734190D01*
X47799714Y-134658000D01*
X48085428Y-134658000D01*
X48275904Y-134734190D01*
X48371142Y-134810380D01*
X48466380Y-134962761D01*
X48466380Y-135572285D01*
X49418761Y-133743714D02*
X49323523Y-133896095D01*
X49133047Y-133972285D01*
X47418761Y-133972285D01*
X49418761Y-133134190D02*
X48085428Y-133134190D01*
X47418761Y-133134190D02*
X47514000Y-133210380D01*
X47609238Y-133134190D01*
X47514000Y-133058000D01*
X47418761Y-133134190D01*
X47609238Y-133134190D01*
X48085428Y-132600857D02*
X48085428Y-131991333D01*
X47418761Y-132372285D02*
X49133047Y-132372285D01*
X49323523Y-132296095D01*
X49418761Y-132143714D01*
X49418761Y-131991333D01*
X48085428Y-131686571D02*
X48085428Y-131077047D01*
X47418761Y-131458000D02*
X49133047Y-131458000D01*
X49323523Y-131381809D01*
X49418761Y-131229428D01*
X49418761Y-131077047D01*
X49323523Y-129934190D02*
X49418761Y-130086571D01*
X49418761Y-130391333D01*
X49323523Y-130543714D01*
X49133047Y-130619904D01*
X48371142Y-130619904D01*
X48180666Y-130543714D01*
X48085428Y-130391333D01*
X48085428Y-130086571D01*
X48180666Y-129934190D01*
X48371142Y-129858000D01*
X48561619Y-129858000D01*
X48752095Y-130619904D01*
X49418761Y-129172285D02*
X48085428Y-129172285D01*
X48466380Y-129172285D02*
X48275904Y-129096095D01*
X48180666Y-129019904D01*
X48085428Y-128867523D01*
X48085428Y-128715142D01*
X101409809Y-126519714D02*
X101347904Y-126591142D01*
X101162190Y-126662571D01*
X101038380Y-126662571D01*
X100852666Y-126591142D01*
X100728857Y-126448285D01*
X100666952Y-126305428D01*
X100605047Y-126019714D01*
X100605047Y-125805428D01*
X100666952Y-125519714D01*
X100728857Y-125376857D01*
X100852666Y-125234000D01*
X101038380Y-125162571D01*
X101162190Y-125162571D01*
X101347904Y-125234000D01*
X101409809Y-125305428D01*
X102214571Y-125162571D02*
X102462190Y-125162571D01*
X102586000Y-125234000D01*
X102709809Y-125376857D01*
X102771714Y-125662571D01*
X102771714Y-126162571D01*
X102709809Y-126448285D01*
X102586000Y-126591142D01*
X102462190Y-126662571D01*
X102214571Y-126662571D01*
X102090761Y-126591142D01*
X101966952Y-126448285D01*
X101905047Y-126162571D01*
X101905047Y-125662571D01*
X101966952Y-125376857D01*
X102090761Y-125234000D01*
X102214571Y-125162571D01*
X103328857Y-126662571D02*
X103328857Y-125162571D01*
X104071714Y-126662571D01*
X104071714Y-125162571D01*
X105124095Y-125876857D02*
X104690761Y-125876857D01*
X104690761Y-126662571D02*
X104690761Y-125162571D01*
X105309809Y-125162571D01*
X105805047Y-126662571D02*
X105805047Y-125162571D01*
X107105047Y-125234000D02*
X106981238Y-125162571D01*
X106795523Y-125162571D01*
X106609809Y-125234000D01*
X106486000Y-125376857D01*
X106424095Y-125519714D01*
X106362190Y-125805428D01*
X106362190Y-126019714D01*
X106424095Y-126305428D01*
X106486000Y-126448285D01*
X106609809Y-126591142D01*
X106795523Y-126662571D01*
X106919333Y-126662571D01*
X107105047Y-126591142D01*
X107166952Y-126519714D01*
X107166952Y-126019714D01*
X106919333Y-126019714D01*
X93919047Y-115462857D02*
X94104761Y-115534285D01*
X94166666Y-115605714D01*
X94228571Y-115748571D01*
X94228571Y-115962857D01*
X94166666Y-116105714D01*
X94104761Y-116177142D01*
X93980952Y-116248571D01*
X93485714Y-116248571D01*
X93485714Y-114748571D01*
X93919047Y-114748571D01*
X94042857Y-114820000D01*
X94104761Y-114891428D01*
X94166666Y-115034285D01*
X94166666Y-115177142D01*
X94104761Y-115320000D01*
X94042857Y-115391428D01*
X93919047Y-115462857D01*
X93485714Y-115462857D01*
X94785714Y-116248571D02*
X94785714Y-114748571D01*
X95219047Y-114748571D02*
X95961904Y-114748571D01*
X95590476Y-116248571D02*
X95590476Y-114748571D01*
X96271428Y-114748571D02*
X97076190Y-114748571D01*
X96642857Y-115320000D01*
X96828571Y-115320000D01*
X96952380Y-115391428D01*
X97014285Y-115462857D01*
X97076190Y-115605714D01*
X97076190Y-115962857D01*
X97014285Y-116105714D01*
X96952380Y-116177142D01*
X96828571Y-116248571D01*
X96457142Y-116248571D01*
X96333333Y-116177142D01*
X96271428Y-116105714D01*
X88204047Y-115462857D02*
X88389761Y-115534285D01*
X88451666Y-115605714D01*
X88513571Y-115748571D01*
X88513571Y-115962857D01*
X88451666Y-116105714D01*
X88389761Y-116177142D01*
X88265952Y-116248571D01*
X87770714Y-116248571D01*
X87770714Y-114748571D01*
X88204047Y-114748571D01*
X88327857Y-114820000D01*
X88389761Y-114891428D01*
X88451666Y-115034285D01*
X88451666Y-115177142D01*
X88389761Y-115320000D01*
X88327857Y-115391428D01*
X88204047Y-115462857D01*
X87770714Y-115462857D01*
X89070714Y-116248571D02*
X89070714Y-114748571D01*
X89504047Y-114748571D02*
X90246904Y-114748571D01*
X89875476Y-116248571D02*
X89875476Y-114748571D01*
X90618333Y-114891428D02*
X90680238Y-114820000D01*
X90804047Y-114748571D01*
X91113571Y-114748571D01*
X91237380Y-114820000D01*
X91299285Y-114891428D01*
X91361190Y-115034285D01*
X91361190Y-115177142D01*
X91299285Y-115391428D01*
X90556428Y-116248571D01*
X91361190Y-116248571D01*
X82489047Y-115462857D02*
X82674761Y-115534285D01*
X82736666Y-115605714D01*
X82798571Y-115748571D01*
X82798571Y-115962857D01*
X82736666Y-116105714D01*
X82674761Y-116177142D01*
X82550952Y-116248571D01*
X82055714Y-116248571D01*
X82055714Y-114748571D01*
X82489047Y-114748571D01*
X82612857Y-114820000D01*
X82674761Y-114891428D01*
X82736666Y-115034285D01*
X82736666Y-115177142D01*
X82674761Y-115320000D01*
X82612857Y-115391428D01*
X82489047Y-115462857D01*
X82055714Y-115462857D01*
X83355714Y-116248571D02*
X83355714Y-114748571D01*
X83789047Y-114748571D02*
X84531904Y-114748571D01*
X84160476Y-116248571D02*
X84160476Y-114748571D01*
X85646190Y-116248571D02*
X84903333Y-116248571D01*
X85274761Y-116248571D02*
X85274761Y-114748571D01*
X85150952Y-114962857D01*
X85027142Y-115105714D01*
X84903333Y-115177142D01*
X76774047Y-115462857D02*
X76959761Y-115534285D01*
X77021666Y-115605714D01*
X77083571Y-115748571D01*
X77083571Y-115962857D01*
X77021666Y-116105714D01*
X76959761Y-116177142D01*
X76835952Y-116248571D01*
X76340714Y-116248571D01*
X76340714Y-114748571D01*
X76774047Y-114748571D01*
X76897857Y-114820000D01*
X76959761Y-114891428D01*
X77021666Y-115034285D01*
X77021666Y-115177142D01*
X76959761Y-115320000D01*
X76897857Y-115391428D01*
X76774047Y-115462857D01*
X76340714Y-115462857D01*
X77640714Y-116248571D02*
X77640714Y-114748571D01*
X78074047Y-114748571D02*
X78816904Y-114748571D01*
X78445476Y-116248571D02*
X78445476Y-114748571D01*
X79497857Y-114748571D02*
X79621666Y-114748571D01*
X79745476Y-114820000D01*
X79807380Y-114891428D01*
X79869285Y-115034285D01*
X79931190Y-115320000D01*
X79931190Y-115677142D01*
X79869285Y-115962857D01*
X79807380Y-116105714D01*
X79745476Y-116177142D01*
X79621666Y-116248571D01*
X79497857Y-116248571D01*
X79374047Y-116177142D01*
X79312142Y-116105714D01*
X79250238Y-115962857D01*
X79188333Y-115677142D01*
X79188333Y-115320000D01*
X79250238Y-115034285D01*
X79312142Y-114891428D01*
X79374047Y-114820000D01*
X79497857Y-114748571D01*
X77610714Y-135298571D02*
X77610714Y-133798571D01*
X78105952Y-133798571D01*
X78229761Y-133870000D01*
X78291666Y-133941428D01*
X78353571Y-134084285D01*
X78353571Y-134298571D01*
X78291666Y-134441428D01*
X78229761Y-134512857D01*
X78105952Y-134584285D01*
X77610714Y-134584285D01*
X79158333Y-133798571D02*
X79405952Y-133798571D01*
X79529761Y-133870000D01*
X79653571Y-134012857D01*
X79715476Y-134298571D01*
X79715476Y-134798571D01*
X79653571Y-135084285D01*
X79529761Y-135227142D01*
X79405952Y-135298571D01*
X79158333Y-135298571D01*
X79034523Y-135227142D01*
X78910714Y-135084285D01*
X78848809Y-134798571D01*
X78848809Y-134298571D01*
X78910714Y-134012857D01*
X79034523Y-133870000D01*
X79158333Y-133798571D01*
X80148809Y-133798571D02*
X80458333Y-135298571D01*
X80705952Y-134227142D01*
X80953571Y-135298571D01*
X81263095Y-133798571D01*
X83140952Y-135227142D02*
X83326666Y-135298571D01*
X83636190Y-135298571D01*
X83760000Y-135227142D01*
X83821904Y-135155714D01*
X83883809Y-135012857D01*
X83883809Y-134870000D01*
X83821904Y-134727142D01*
X83760000Y-134655714D01*
X83636190Y-134584285D01*
X83388571Y-134512857D01*
X83264761Y-134441428D01*
X83202857Y-134370000D01*
X83140952Y-134227142D01*
X83140952Y-134084285D01*
X83202857Y-133941428D01*
X83264761Y-133870000D01*
X83388571Y-133798571D01*
X83698095Y-133798571D01*
X83883809Y-133870000D01*
X85369523Y-133727142D02*
X84255238Y-135655714D01*
X85802857Y-135298571D02*
X85802857Y-133798571D01*
X86298095Y-133798571D01*
X86421904Y-133870000D01*
X86483809Y-133941428D01*
X86545714Y-134084285D01*
X86545714Y-134298571D01*
X86483809Y-134441428D01*
X86421904Y-134512857D01*
X86298095Y-134584285D01*
X85802857Y-134584285D01*
X87102857Y-135298571D02*
X87102857Y-133798571D01*
X87412380Y-133798571D01*
X87598095Y-133870000D01*
X87721904Y-134012857D01*
X87783809Y-134155714D01*
X87845714Y-134441428D01*
X87845714Y-134655714D01*
X87783809Y-134941428D01*
X87721904Y-135084285D01*
X87598095Y-135227142D01*
X87412380Y-135298571D01*
X87102857Y-135298571D01*
X88402857Y-135298571D02*
X88402857Y-133798571D01*
X89455238Y-134512857D02*
X89021904Y-134512857D01*
X89021904Y-135298571D02*
X89021904Y-133798571D01*
X89640952Y-133798571D01*
D11*
%TO.C,J2*%
X102770000Y-135865000D02*
X102770000Y-135865000D01*
X102970000Y-135865000D02*
X102970000Y-135865000D01*
D12*
X106830000Y-136365000D02*
X106830000Y-149865000D01*
X93830000Y-136365000D02*
X106830000Y-136365000D01*
X93830000Y-149865000D02*
X93830000Y-136365000D01*
X106830000Y-149865000D02*
X93830000Y-149865000D01*
D11*
X102970000Y-135865000D02*
G75*
G02*
X102770000Y-135865000I-100000J0D01*
G01*
X102770000Y-135865000D02*
G75*
G02*
X102970000Y-135865000I100000J0D01*
G01*
D13*
%TO.C,C4*%
X110275000Y-91745000D02*
X110340000Y-91745000D01*
X108100000Y-91745000D02*
X108165000Y-91745000D01*
X110275000Y-94985000D02*
X110340000Y-94985000D01*
X108100000Y-94985000D02*
X108165000Y-94985000D01*
X110340000Y-94985000D02*
X110340000Y-91745000D01*
X108100000Y-94985000D02*
X108100000Y-91745000D01*
D12*
%TO.C,U3*%
X70150000Y-110775000D02*
X70150000Y-110975000D01*
X70150000Y-110975000D02*
X70450000Y-110975000D01*
X76750000Y-110975000D02*
X77050000Y-110975000D01*
X77050000Y-110975000D02*
X77050000Y-110775000D01*
X69770000Y-90875000D02*
X69520000Y-90875000D01*
X70150000Y-90875000D02*
X69780000Y-90875000D01*
X71450000Y-89875000D02*
X71150000Y-89875000D01*
X71150000Y-89875000D02*
X70150000Y-90875000D01*
X77130000Y-90465000D02*
X77130000Y-90065000D01*
X77130000Y-90065000D02*
X76730000Y-90065000D01*
D13*
%TO.C,J1*%
X108000000Y-70505000D02*
X108000000Y-85045000D01*
X108000000Y-85045000D02*
X54780000Y-85045000D01*
X54780000Y-85045000D02*
X54780000Y-70505000D01*
X65020000Y-85939338D02*
X64520000Y-85939338D01*
X64520000Y-85939338D02*
X64770000Y-85506325D01*
X64770000Y-85506325D02*
X65020000Y-85939338D01*
%TO.C,SW1*%
X107100000Y-122190000D02*
X107100000Y-117690000D01*
X103100000Y-123440000D02*
X104600000Y-123440000D01*
X100600000Y-117690000D02*
X100600000Y-122190000D01*
X104600000Y-116440000D02*
X103100000Y-116440000D01*
D12*
%TO.C,U5*%
X106340000Y-90065000D02*
X105940000Y-90065000D01*
X106340000Y-90465000D02*
X106340000Y-90065000D01*
X100360000Y-89875000D02*
X99360000Y-90875000D01*
X100660000Y-89875000D02*
X100360000Y-89875000D01*
X99360000Y-90875000D02*
X98990000Y-90875000D01*
X98980000Y-90875000D02*
X98730000Y-90875000D01*
X106260000Y-110975000D02*
X106260000Y-110775000D01*
X105960000Y-110975000D02*
X106260000Y-110975000D01*
X99360000Y-110975000D02*
X99660000Y-110975000D01*
X99360000Y-110775000D02*
X99360000Y-110975000D01*
%TO.C,U4*%
X84755000Y-110775000D02*
X84755000Y-110975000D01*
X84755000Y-110975000D02*
X85055000Y-110975000D01*
X91355000Y-110975000D02*
X91655000Y-110975000D01*
X91655000Y-110975000D02*
X91655000Y-110775000D01*
X84375000Y-90875000D02*
X84125000Y-90875000D01*
X84755000Y-90875000D02*
X84385000Y-90875000D01*
X86055000Y-89875000D02*
X85755000Y-89875000D01*
X85755000Y-89875000D02*
X84755000Y-90875000D01*
X91735000Y-90465000D02*
X91735000Y-90065000D01*
X91735000Y-90065000D02*
X91335000Y-90065000D01*
%TO.C,U2*%
X55545000Y-110775000D02*
X55545000Y-110975000D01*
X55545000Y-110975000D02*
X55845000Y-110975000D01*
X62145000Y-110975000D02*
X62445000Y-110975000D01*
X62445000Y-110975000D02*
X62445000Y-110775000D01*
X55165000Y-90875000D02*
X54915000Y-90875000D01*
X55545000Y-90875000D02*
X55175000Y-90875000D01*
X56845000Y-89875000D02*
X56545000Y-89875000D01*
X56545000Y-89875000D02*
X55545000Y-90875000D01*
X62525000Y-90465000D02*
X62525000Y-90065000D01*
X62525000Y-90065000D02*
X62125000Y-90065000D01*
%TO.C,U1*%
G36*
X64897000Y-136652000D02*
G01*
X64643000Y-136398000D01*
X65024000Y-136144000D01*
X65278000Y-136398000D01*
X64897000Y-136652000D01*
G37*
X64897000Y-136652000D02*
X64643000Y-136398000D01*
X65024000Y-136144000D01*
X65278000Y-136398000D01*
X64897000Y-136652000D01*
G36*
X64516000Y-136271000D02*
G01*
X64262000Y-136017000D01*
X64643000Y-135763000D01*
X64897000Y-136017000D01*
X64516000Y-136271000D01*
G37*
X64516000Y-136271000D02*
X64262000Y-136017000D01*
X64643000Y-135763000D01*
X64897000Y-136017000D01*
X64516000Y-136271000D01*
G36*
X65278000Y-134366000D02*
G01*
X65024000Y-134112000D01*
X65405000Y-133858000D01*
X65659000Y-134112000D01*
X65278000Y-134366000D01*
G37*
X65278000Y-134366000D02*
X65024000Y-134112000D01*
X65405000Y-133858000D01*
X65659000Y-134112000D01*
X65278000Y-134366000D01*
G36*
X64770000Y-134747000D02*
G01*
X64516000Y-134493000D01*
X64897000Y-134239000D01*
X65151000Y-134493000D01*
X64770000Y-134747000D01*
G37*
X64770000Y-134747000D02*
X64516000Y-134493000D01*
X64897000Y-134239000D01*
X65151000Y-134493000D01*
X64770000Y-134747000D01*
G36*
X64262000Y-135128000D02*
G01*
X64008000Y-134874000D01*
X64389000Y-134620000D01*
X64643000Y-134874000D01*
X64262000Y-135128000D01*
G37*
X64262000Y-135128000D02*
X64008000Y-134874000D01*
X64389000Y-134620000D01*
X64643000Y-134874000D01*
X64262000Y-135128000D01*
G36*
X65151000Y-135128000D02*
G01*
X64897000Y-134874000D01*
X65278000Y-134620000D01*
X65532000Y-134874000D01*
X65151000Y-135128000D01*
G37*
X65151000Y-135128000D02*
X64897000Y-134874000D01*
X65278000Y-134620000D01*
X65532000Y-134874000D01*
X65151000Y-135128000D01*
G36*
X64643000Y-135509000D02*
G01*
X64389000Y-135255000D01*
X64770000Y-135001000D01*
X65024000Y-135255000D01*
X64643000Y-135509000D01*
G37*
X64643000Y-135509000D02*
X64389000Y-135255000D01*
X64770000Y-135001000D01*
X65024000Y-135255000D01*
X64643000Y-135509000D01*
G36*
X64135000Y-135890000D02*
G01*
X63881000Y-135636000D01*
X64262000Y-135382000D01*
X64516000Y-135636000D01*
X64135000Y-135890000D01*
G37*
X64135000Y-135890000D02*
X63881000Y-135636000D01*
X64262000Y-135382000D01*
X64516000Y-135636000D01*
X64135000Y-135890000D01*
D10*
X62865000Y-127635000D02*
X59690000Y-127635000D01*
X62865000Y-125095000D02*
X62865000Y-127635000D01*
X59690000Y-125095000D02*
X62865000Y-125095000D01*
X59690000Y-127635000D02*
X59690000Y-125095000D01*
X73660000Y-150495000D02*
X55880000Y-150495000D01*
X73660000Y-114935000D02*
X73660000Y-150495000D01*
X55880000Y-114935000D02*
X73660000Y-114935000D01*
X55880000Y-150495000D02*
X55880000Y-114935000D01*
X69850000Y-128270000D02*
X69850000Y-138430000D01*
X59690000Y-128270000D02*
X59690000Y-138430000D01*
X59690000Y-138430000D02*
X69850000Y-138430000D01*
X69850000Y-128270000D02*
X59690000Y-128270000D01*
X63500000Y-122555000D02*
X63500000Y-117983000D01*
X66040000Y-122555000D02*
X63500000Y-122555000D01*
X66040000Y-117983000D02*
X66040000Y-122555000D01*
X63500000Y-117983000D02*
X66040000Y-117983000D01*
X68580000Y-145415000D02*
X68580000Y-150495000D01*
X60960000Y-145415000D02*
X60960000Y-150495000D01*
X68580000Y-145415000D02*
X60960000Y-145415000D01*
X60960000Y-151765000D02*
X60960000Y-150495000D01*
X68580000Y-151765000D02*
X60960000Y-151765000D01*
X68580000Y-150495000D02*
X68580000Y-151765000D01*
D13*
%TO.C,R2*%
X85320000Y-148685000D02*
X84990000Y-148685000D01*
X84990000Y-148685000D02*
X84990000Y-142145000D01*
X84990000Y-142145000D02*
X85320000Y-142145000D01*
X87400000Y-148685000D02*
X87730000Y-148685000D01*
X87730000Y-148685000D02*
X87730000Y-142145000D01*
X87730000Y-142145000D02*
X87400000Y-142145000D01*
%TO.C,R6*%
X94210000Y-129635000D02*
X93880000Y-129635000D01*
X93880000Y-129635000D02*
X93880000Y-123095000D01*
X93880000Y-123095000D02*
X94210000Y-123095000D01*
X96290000Y-129635000D02*
X96620000Y-129635000D01*
X96620000Y-129635000D02*
X96620000Y-123095000D01*
X96620000Y-123095000D02*
X96290000Y-123095000D01*
%TO.C,R5*%
X88495000Y-129635000D02*
X88165000Y-129635000D01*
X88165000Y-129635000D02*
X88165000Y-123095000D01*
X88165000Y-123095000D02*
X88495000Y-123095000D01*
X90575000Y-129635000D02*
X90905000Y-129635000D01*
X90905000Y-129635000D02*
X90905000Y-123095000D01*
X90905000Y-123095000D02*
X90575000Y-123095000D01*
%TO.C,R4*%
X82780000Y-129635000D02*
X82450000Y-129635000D01*
X82450000Y-129635000D02*
X82450000Y-123095000D01*
X82450000Y-123095000D02*
X82780000Y-123095000D01*
X84860000Y-129635000D02*
X85190000Y-129635000D01*
X85190000Y-129635000D02*
X85190000Y-123095000D01*
X85190000Y-123095000D02*
X84860000Y-123095000D01*
%TO.C,R3*%
X77065000Y-129635000D02*
X76735000Y-129635000D01*
X76735000Y-129635000D02*
X76735000Y-123095000D01*
X76735000Y-123095000D02*
X77065000Y-123095000D01*
X79145000Y-129635000D02*
X79475000Y-129635000D01*
X79475000Y-129635000D02*
X79475000Y-123095000D01*
X79475000Y-123095000D02*
X79145000Y-123095000D01*
%TO.C,R1*%
X78335000Y-148685000D02*
X78005000Y-148685000D01*
X78005000Y-148685000D02*
X78005000Y-142145000D01*
X78005000Y-142145000D02*
X78335000Y-142145000D01*
X80415000Y-148685000D02*
X80745000Y-148685000D01*
X80745000Y-148685000D02*
X80745000Y-142145000D01*
X80745000Y-142145000D02*
X80415000Y-142145000D01*
%TO.C,L1*%
X95200000Y-133985000D02*
G75*
G03*
X95200000Y-133985000I-1220000J0D01*
G01*
X92760000Y-133985000D02*
X92540000Y-133985000D01*
%TO.C,D2*%
X84800000Y-136559000D02*
X84800000Y-136715000D01*
X84800000Y-138875000D02*
X84800000Y-139031000D01*
X87401130Y-138874837D02*
G75*
G02*
X85319039Y-138875000I-1041130J1079837D01*
G01*
X87401130Y-136715163D02*
G75*
G03*
X85319039Y-136715000I-1041130J-1079837D01*
G01*
X88032335Y-138873608D02*
G75*
G02*
X84800000Y-139030516I-1672335J1078608D01*
G01*
X88032335Y-136716392D02*
G75*
G03*
X84800000Y-136559484I-1672335J-1078608D01*
G01*
%TO.C,D6*%
X93690000Y-117509000D02*
X93690000Y-117665000D01*
X93690000Y-119825000D02*
X93690000Y-119981000D01*
X96291130Y-119824837D02*
G75*
G02*
X94209039Y-119825000I-1041130J1079837D01*
G01*
X96291130Y-117665163D02*
G75*
G03*
X94209039Y-117665000I-1041130J-1079837D01*
G01*
X96922335Y-119823608D02*
G75*
G02*
X93690000Y-119980516I-1672335J1078608D01*
G01*
X96922335Y-117666392D02*
G75*
G03*
X93690000Y-117509484I-1672335J-1078608D01*
G01*
%TO.C,D5*%
X87975000Y-117509000D02*
X87975000Y-117665000D01*
X87975000Y-119825000D02*
X87975000Y-119981000D01*
X90576130Y-119824837D02*
G75*
G02*
X88494039Y-119825000I-1041130J1079837D01*
G01*
X90576130Y-117665163D02*
G75*
G03*
X88494039Y-117665000I-1041130J-1079837D01*
G01*
X91207335Y-119823608D02*
G75*
G02*
X87975000Y-119980516I-1672335J1078608D01*
G01*
X91207335Y-117666392D02*
G75*
G03*
X87975000Y-117509484I-1672335J-1078608D01*
G01*
%TO.C,D4*%
X82260000Y-117509000D02*
X82260000Y-117665000D01*
X82260000Y-119825000D02*
X82260000Y-119981000D01*
X84861130Y-119824837D02*
G75*
G02*
X82779039Y-119825000I-1041130J1079837D01*
G01*
X84861130Y-117665163D02*
G75*
G03*
X82779039Y-117665000I-1041130J-1079837D01*
G01*
X85492335Y-119823608D02*
G75*
G02*
X82260000Y-119980516I-1672335J1078608D01*
G01*
X85492335Y-117666392D02*
G75*
G03*
X82260000Y-117509484I-1672335J-1078608D01*
G01*
%TO.C,D3*%
X76545000Y-117509000D02*
X76545000Y-117665000D01*
X76545000Y-119825000D02*
X76545000Y-119981000D01*
X79146130Y-119824837D02*
G75*
G02*
X77064039Y-119825000I-1041130J1079837D01*
G01*
X79146130Y-117665163D02*
G75*
G03*
X77064039Y-117665000I-1041130J-1079837D01*
G01*
X79777335Y-119823608D02*
G75*
G02*
X76545000Y-119980516I-1672335J1078608D01*
G01*
X79777335Y-117666392D02*
G75*
G03*
X76545000Y-117509484I-1672335J-1078608D01*
G01*
%TO.C,D1*%
X77815000Y-136559000D02*
X77815000Y-136715000D01*
X77815000Y-138875000D02*
X77815000Y-139031000D01*
X80416130Y-138874837D02*
G75*
G02*
X78334039Y-138875000I-1041130J1079837D01*
G01*
X80416130Y-136715163D02*
G75*
G03*
X78334039Y-136715000I-1041130J-1079837D01*
G01*
X81047335Y-138873608D02*
G75*
G02*
X77815000Y-139030516I-1672335J1078608D01*
G01*
X81047335Y-136716392D02*
G75*
G03*
X77815000Y-136559484I-1672335J-1078608D01*
G01*
%TO.C,C5*%
X99545000Y-131369000D02*
X99545000Y-134609000D01*
X97305000Y-131369000D02*
X97305000Y-134609000D01*
X99545000Y-131369000D02*
X99480000Y-131369000D01*
X97370000Y-131369000D02*
X97305000Y-131369000D01*
X99545000Y-134609000D02*
X99480000Y-134609000D01*
X97370000Y-134609000D02*
X97305000Y-134609000D01*
%TO.C,C3*%
X93495000Y-94985000D02*
X93495000Y-91745000D01*
X95735000Y-94985000D02*
X95735000Y-91745000D01*
X93495000Y-94985000D02*
X93560000Y-94985000D01*
X95670000Y-94985000D02*
X95735000Y-94985000D01*
X93495000Y-91745000D02*
X93560000Y-91745000D01*
X95670000Y-91745000D02*
X95735000Y-91745000D01*
%TO.C,C2*%
X78890000Y-94985000D02*
X78890000Y-91745000D01*
X81130000Y-94985000D02*
X81130000Y-91745000D01*
X78890000Y-94985000D02*
X78955000Y-94985000D01*
X81065000Y-94985000D02*
X81130000Y-94985000D01*
X78890000Y-91745000D02*
X78955000Y-91745000D01*
X81065000Y-91745000D02*
X81130000Y-91745000D01*
%TO.C,C1*%
X64285000Y-94985000D02*
X64285000Y-91745000D01*
X66525000Y-94985000D02*
X66525000Y-91745000D01*
X64285000Y-94985000D02*
X64350000Y-94985000D01*
X66460000Y-94985000D02*
X66525000Y-94985000D01*
X64285000Y-91745000D02*
X64350000Y-91745000D01*
X66460000Y-91745000D02*
X66525000Y-91745000D01*
%TO.C,J2*%
D14*
X99906666Y-142419523D02*
X99906666Y-143326666D01*
X99846190Y-143508095D01*
X99725238Y-143629047D01*
X99543809Y-143689523D01*
X99422857Y-143689523D01*
X100450952Y-142540476D02*
X100511428Y-142480000D01*
X100632380Y-142419523D01*
X100934761Y-142419523D01*
X101055714Y-142480000D01*
X101116190Y-142540476D01*
X101176666Y-142661428D01*
X101176666Y-142782380D01*
X101116190Y-142963809D01*
X100390476Y-143689523D01*
X101176666Y-143689523D01*
%TO.C,H4*%
D10*
X48768095Y-76652380D02*
X48768095Y-75652380D01*
X48768095Y-76128571D02*
X49339523Y-76128571D01*
X49339523Y-76652380D02*
X49339523Y-75652380D01*
X50244285Y-75985714D02*
X50244285Y-76652380D01*
X50006190Y-75604761D02*
X49768095Y-76319047D01*
X50387142Y-76319047D01*
%TO.C,H3*%
X112268095Y-76652380D02*
X112268095Y-75652380D01*
X112268095Y-76128571D02*
X112839523Y-76128571D01*
X112839523Y-76652380D02*
X112839523Y-75652380D01*
X113220476Y-75652380D02*
X113839523Y-75652380D01*
X113506190Y-76033333D01*
X113649047Y-76033333D01*
X113744285Y-76080952D01*
X113791904Y-76128571D01*
X113839523Y-76223809D01*
X113839523Y-76461904D01*
X113791904Y-76557142D01*
X113744285Y-76604761D01*
X113649047Y-76652380D01*
X113363333Y-76652380D01*
X113268095Y-76604761D01*
X113220476Y-76557142D01*
%TO.C,H2*%
X112268095Y-146502380D02*
X112268095Y-145502380D01*
X112268095Y-145978571D02*
X112839523Y-145978571D01*
X112839523Y-146502380D02*
X112839523Y-145502380D01*
X113268095Y-145597619D02*
X113315714Y-145550000D01*
X113410952Y-145502380D01*
X113649047Y-145502380D01*
X113744285Y-145550000D01*
X113791904Y-145597619D01*
X113839523Y-145692857D01*
X113839523Y-145788095D01*
X113791904Y-145930952D01*
X113220476Y-146502380D01*
X113839523Y-146502380D01*
%TO.C,H1*%
X48768095Y-146502380D02*
X48768095Y-145502380D01*
X48768095Y-145978571D02*
X49339523Y-145978571D01*
X49339523Y-146502380D02*
X49339523Y-145502380D01*
X50339523Y-146502380D02*
X49768095Y-146502380D01*
X50053809Y-146502380D02*
X50053809Y-145502380D01*
X49958571Y-145645238D01*
X49863333Y-145740476D01*
X49768095Y-145788095D01*
%TO.C,C4*%
X110212142Y-90336666D02*
X110259761Y-90384285D01*
X110307380Y-90527142D01*
X110307380Y-90622380D01*
X110259761Y-90765238D01*
X110164523Y-90860476D01*
X110069285Y-90908095D01*
X109878809Y-90955714D01*
X109735952Y-90955714D01*
X109545476Y-90908095D01*
X109450238Y-90860476D01*
X109355000Y-90765238D01*
X109307380Y-90622380D01*
X109307380Y-90527142D01*
X109355000Y-90384285D01*
X109402619Y-90336666D01*
X109640714Y-89479523D02*
X110307380Y-89479523D01*
X109259761Y-89717619D02*
X109974047Y-89955714D01*
X109974047Y-89336666D01*
%TO.C,U3*%
X73028095Y-88327380D02*
X73028095Y-89136904D01*
X73075714Y-89232142D01*
X73123333Y-89279761D01*
X73218571Y-89327380D01*
X73409047Y-89327380D01*
X73504285Y-89279761D01*
X73551904Y-89232142D01*
X73599523Y-89136904D01*
X73599523Y-88327380D01*
X73980476Y-88327380D02*
X74599523Y-88327380D01*
X74266190Y-88708333D01*
X74409047Y-88708333D01*
X74504285Y-88755952D01*
X74551904Y-88803571D01*
X74599523Y-88898809D01*
X74599523Y-89136904D01*
X74551904Y-89232142D01*
X74504285Y-89279761D01*
X74409047Y-89327380D01*
X74123333Y-89327380D01*
X74028095Y-89279761D01*
X73980476Y-89232142D01*
%TO.C,J1*%
X81056666Y-85437380D02*
X81056666Y-86151666D01*
X81009047Y-86294523D01*
X80913809Y-86389761D01*
X80770952Y-86437380D01*
X80675714Y-86437380D01*
X82056666Y-86437380D02*
X81485238Y-86437380D01*
X81770952Y-86437380D02*
X81770952Y-85437380D01*
X81675714Y-85580238D01*
X81580476Y-85675476D01*
X81485238Y-85723095D01*
%TO.C,SW1*%
X100004761Y-121273333D02*
X100052380Y-121130476D01*
X100052380Y-120892380D01*
X100004761Y-120797142D01*
X99957142Y-120749523D01*
X99861904Y-120701904D01*
X99766666Y-120701904D01*
X99671428Y-120749523D01*
X99623809Y-120797142D01*
X99576190Y-120892380D01*
X99528571Y-121082857D01*
X99480952Y-121178095D01*
X99433333Y-121225714D01*
X99338095Y-121273333D01*
X99242857Y-121273333D01*
X99147619Y-121225714D01*
X99100000Y-121178095D01*
X99052380Y-121082857D01*
X99052380Y-120844761D01*
X99100000Y-120701904D01*
X99052380Y-120368571D02*
X100052380Y-120130476D01*
X99338095Y-119940000D01*
X100052380Y-119749523D01*
X99052380Y-119511428D01*
X100052380Y-118606666D02*
X100052380Y-119178095D01*
X100052380Y-118892380D02*
X99052380Y-118892380D01*
X99195238Y-118987619D01*
X99290476Y-119082857D01*
X99338095Y-119178095D01*
%TO.C,U5*%
X102238095Y-88327380D02*
X102238095Y-89136904D01*
X102285714Y-89232142D01*
X102333333Y-89279761D01*
X102428571Y-89327380D01*
X102619047Y-89327380D01*
X102714285Y-89279761D01*
X102761904Y-89232142D01*
X102809523Y-89136904D01*
X102809523Y-88327380D01*
X103761904Y-88327380D02*
X103285714Y-88327380D01*
X103238095Y-88803571D01*
X103285714Y-88755952D01*
X103380952Y-88708333D01*
X103619047Y-88708333D01*
X103714285Y-88755952D01*
X103761904Y-88803571D01*
X103809523Y-88898809D01*
X103809523Y-89136904D01*
X103761904Y-89232142D01*
X103714285Y-89279761D01*
X103619047Y-89327380D01*
X103380952Y-89327380D01*
X103285714Y-89279761D01*
X103238095Y-89232142D01*
%TO.C,U4*%
X87633095Y-88327380D02*
X87633095Y-89136904D01*
X87680714Y-89232142D01*
X87728333Y-89279761D01*
X87823571Y-89327380D01*
X88014047Y-89327380D01*
X88109285Y-89279761D01*
X88156904Y-89232142D01*
X88204523Y-89136904D01*
X88204523Y-88327380D01*
X89109285Y-88660714D02*
X89109285Y-89327380D01*
X88871190Y-88279761D02*
X88633095Y-88994047D01*
X89252142Y-88994047D01*
%TO.C,U2*%
X58423095Y-88327380D02*
X58423095Y-89136904D01*
X58470714Y-89232142D01*
X58518333Y-89279761D01*
X58613571Y-89327380D01*
X58804047Y-89327380D01*
X58899285Y-89279761D01*
X58946904Y-89232142D01*
X58994523Y-89136904D01*
X58994523Y-88327380D01*
X59423095Y-88422619D02*
X59470714Y-88375000D01*
X59565952Y-88327380D01*
X59804047Y-88327380D01*
X59899285Y-88375000D01*
X59946904Y-88422619D01*
X59994523Y-88517857D01*
X59994523Y-88613095D01*
X59946904Y-88755952D01*
X59375476Y-89327380D01*
X59994523Y-89327380D01*
%TO.C,U1*%
X64008095Y-113752380D02*
X64008095Y-114561904D01*
X64055714Y-114657142D01*
X64103333Y-114704761D01*
X64198571Y-114752380D01*
X64389047Y-114752380D01*
X64484285Y-114704761D01*
X64531904Y-114657142D01*
X64579523Y-114561904D01*
X64579523Y-113752380D01*
X65579523Y-114752380D02*
X65008095Y-114752380D01*
X65293809Y-114752380D02*
X65293809Y-113752380D01*
X65198571Y-113895238D01*
X65103333Y-113990476D01*
X65008095Y-114038095D01*
X63370000Y-131253666D02*
X63370000Y-130553666D01*
X63536666Y-130553666D01*
X63636666Y-130587000D01*
X63703333Y-130653666D01*
X63736666Y-130720333D01*
X63770000Y-130853666D01*
X63770000Y-130953666D01*
X63736666Y-131087000D01*
X63703333Y-131153666D01*
X63636666Y-131220333D01*
X63536666Y-131253666D01*
X63370000Y-131253666D01*
X63970000Y-130553666D02*
X64203333Y-131253666D01*
X64436666Y-130553666D01*
X65003333Y-131253666D02*
X64670000Y-131253666D01*
X64670000Y-130553666D01*
X65536666Y-130553666D02*
X65403333Y-130553666D01*
X65336666Y-130587000D01*
X65303333Y-130620333D01*
X65236666Y-130720333D01*
X65203333Y-130853666D01*
X65203333Y-131120333D01*
X65236666Y-131187000D01*
X65270000Y-131220333D01*
X65336666Y-131253666D01*
X65470000Y-131253666D01*
X65536666Y-131220333D01*
X65570000Y-131187000D01*
X65603333Y-131120333D01*
X65603333Y-130953666D01*
X65570000Y-130887000D01*
X65536666Y-130853666D01*
X65470000Y-130820333D01*
X65336666Y-130820333D01*
X65270000Y-130853666D01*
X65236666Y-130887000D01*
X65203333Y-130953666D01*
X65870000Y-131053666D02*
X66203333Y-131053666D01*
X65803333Y-131253666D02*
X66036666Y-130553666D01*
X66270000Y-131253666D01*
X61686666Y-132777666D02*
X61686666Y-132077666D01*
X61920000Y-132577666D01*
X62153333Y-132077666D01*
X62153333Y-132777666D01*
X62486666Y-132777666D02*
X62486666Y-132077666D01*
X62820000Y-132777666D02*
X62820000Y-132077666D01*
X63053333Y-132577666D01*
X63286666Y-132077666D01*
X63286666Y-132777666D01*
X63553333Y-132077666D02*
X64020000Y-132777666D01*
X64020000Y-132077666D02*
X63553333Y-132777666D01*
X64686666Y-132777666D02*
X64453333Y-132444333D01*
X64286666Y-132777666D02*
X64286666Y-132077666D01*
X64553333Y-132077666D01*
X64620000Y-132111000D01*
X64653333Y-132144333D01*
X64686666Y-132211000D01*
X64686666Y-132311000D01*
X64653333Y-132377666D01*
X64620000Y-132411000D01*
X64553333Y-132444333D01*
X64286666Y-132444333D01*
X64886666Y-132077666D02*
X65286666Y-132077666D01*
X65086666Y-132777666D02*
X65086666Y-132077666D01*
X65886666Y-132777666D02*
X65486666Y-132777666D01*
X65686666Y-132777666D02*
X65686666Y-132077666D01*
X65620000Y-132177666D01*
X65553333Y-132244333D01*
X65486666Y-132277666D01*
X66320000Y-132077666D02*
X66386666Y-132077666D01*
X66453333Y-132111000D01*
X66486666Y-132144333D01*
X66520000Y-132211000D01*
X66553333Y-132344333D01*
X66553333Y-132511000D01*
X66520000Y-132644333D01*
X66486666Y-132711000D01*
X66453333Y-132744333D01*
X66386666Y-132777666D01*
X66320000Y-132777666D01*
X66253333Y-132744333D01*
X66220000Y-132711000D01*
X66186666Y-132644333D01*
X66153333Y-132511000D01*
X66153333Y-132344333D01*
X66186666Y-132211000D01*
X66220000Y-132144333D01*
X66253333Y-132111000D01*
X66320000Y-132077666D01*
X67153333Y-132077666D02*
X67020000Y-132077666D01*
X66953333Y-132111000D01*
X66920000Y-132144333D01*
X66853333Y-132244333D01*
X66820000Y-132377666D01*
X66820000Y-132644333D01*
X66853333Y-132711000D01*
X66886666Y-132744333D01*
X66953333Y-132777666D01*
X67086666Y-132777666D01*
X67153333Y-132744333D01*
X67186666Y-132711000D01*
X67220000Y-132644333D01*
X67220000Y-132477666D01*
X67186666Y-132411000D01*
X67153333Y-132377666D01*
X67086666Y-132344333D01*
X66953333Y-132344333D01*
X66886666Y-132377666D01*
X66853333Y-132411000D01*
X66820000Y-132477666D01*
X67486666Y-132144333D02*
X67520000Y-132111000D01*
X67586666Y-132077666D01*
X67753333Y-132077666D01*
X67820000Y-132111000D01*
X67853333Y-132144333D01*
X67886666Y-132211000D01*
X67886666Y-132277666D01*
X67853333Y-132377666D01*
X67453333Y-132777666D01*
X67886666Y-132777666D01*
%TO.C,R2*%
X84442380Y-145581666D02*
X83966190Y-145915000D01*
X84442380Y-146153095D02*
X83442380Y-146153095D01*
X83442380Y-145772142D01*
X83490000Y-145676904D01*
X83537619Y-145629285D01*
X83632857Y-145581666D01*
X83775714Y-145581666D01*
X83870952Y-145629285D01*
X83918571Y-145676904D01*
X83966190Y-145772142D01*
X83966190Y-146153095D01*
X83537619Y-145200714D02*
X83490000Y-145153095D01*
X83442380Y-145057857D01*
X83442380Y-144819761D01*
X83490000Y-144724523D01*
X83537619Y-144676904D01*
X83632857Y-144629285D01*
X83728095Y-144629285D01*
X83870952Y-144676904D01*
X84442380Y-145248333D01*
X84442380Y-144629285D01*
%TO.C,R6*%
X93332380Y-126531666D02*
X92856190Y-126865000D01*
X93332380Y-127103095D02*
X92332380Y-127103095D01*
X92332380Y-126722142D01*
X92380000Y-126626904D01*
X92427619Y-126579285D01*
X92522857Y-126531666D01*
X92665714Y-126531666D01*
X92760952Y-126579285D01*
X92808571Y-126626904D01*
X92856190Y-126722142D01*
X92856190Y-127103095D01*
X92332380Y-125674523D02*
X92332380Y-125865000D01*
X92380000Y-125960238D01*
X92427619Y-126007857D01*
X92570476Y-126103095D01*
X92760952Y-126150714D01*
X93141904Y-126150714D01*
X93237142Y-126103095D01*
X93284761Y-126055476D01*
X93332380Y-125960238D01*
X93332380Y-125769761D01*
X93284761Y-125674523D01*
X93237142Y-125626904D01*
X93141904Y-125579285D01*
X92903809Y-125579285D01*
X92808571Y-125626904D01*
X92760952Y-125674523D01*
X92713333Y-125769761D01*
X92713333Y-125960238D01*
X92760952Y-126055476D01*
X92808571Y-126103095D01*
X92903809Y-126150714D01*
%TO.C,R5*%
X87617380Y-126531666D02*
X87141190Y-126865000D01*
X87617380Y-127103095D02*
X86617380Y-127103095D01*
X86617380Y-126722142D01*
X86665000Y-126626904D01*
X86712619Y-126579285D01*
X86807857Y-126531666D01*
X86950714Y-126531666D01*
X87045952Y-126579285D01*
X87093571Y-126626904D01*
X87141190Y-126722142D01*
X87141190Y-127103095D01*
X86617380Y-125626904D02*
X86617380Y-126103095D01*
X87093571Y-126150714D01*
X87045952Y-126103095D01*
X86998333Y-126007857D01*
X86998333Y-125769761D01*
X87045952Y-125674523D01*
X87093571Y-125626904D01*
X87188809Y-125579285D01*
X87426904Y-125579285D01*
X87522142Y-125626904D01*
X87569761Y-125674523D01*
X87617380Y-125769761D01*
X87617380Y-126007857D01*
X87569761Y-126103095D01*
X87522142Y-126150714D01*
%TO.C,R4*%
X81902380Y-126531666D02*
X81426190Y-126865000D01*
X81902380Y-127103095D02*
X80902380Y-127103095D01*
X80902380Y-126722142D01*
X80950000Y-126626904D01*
X80997619Y-126579285D01*
X81092857Y-126531666D01*
X81235714Y-126531666D01*
X81330952Y-126579285D01*
X81378571Y-126626904D01*
X81426190Y-126722142D01*
X81426190Y-127103095D01*
X81235714Y-125674523D02*
X81902380Y-125674523D01*
X80854761Y-125912619D02*
X81569047Y-126150714D01*
X81569047Y-125531666D01*
%TO.C,R3*%
X76187380Y-126531666D02*
X75711190Y-126865000D01*
X76187380Y-127103095D02*
X75187380Y-127103095D01*
X75187380Y-126722142D01*
X75235000Y-126626904D01*
X75282619Y-126579285D01*
X75377857Y-126531666D01*
X75520714Y-126531666D01*
X75615952Y-126579285D01*
X75663571Y-126626904D01*
X75711190Y-126722142D01*
X75711190Y-127103095D01*
X75187380Y-126198333D02*
X75187380Y-125579285D01*
X75568333Y-125912619D01*
X75568333Y-125769761D01*
X75615952Y-125674523D01*
X75663571Y-125626904D01*
X75758809Y-125579285D01*
X75996904Y-125579285D01*
X76092142Y-125626904D01*
X76139761Y-125674523D01*
X76187380Y-125769761D01*
X76187380Y-126055476D01*
X76139761Y-126150714D01*
X76092142Y-126198333D01*
%TO.C,R1*%
X77457380Y-145581666D02*
X76981190Y-145915000D01*
X77457380Y-146153095D02*
X76457380Y-146153095D01*
X76457380Y-145772142D01*
X76505000Y-145676904D01*
X76552619Y-145629285D01*
X76647857Y-145581666D01*
X76790714Y-145581666D01*
X76885952Y-145629285D01*
X76933571Y-145676904D01*
X76981190Y-145772142D01*
X76981190Y-146153095D01*
X77457380Y-144629285D02*
X77457380Y-145200714D01*
X77457380Y-144915000D02*
X76457380Y-144915000D01*
X76600238Y-145010238D01*
X76695476Y-145105476D01*
X76743095Y-145200714D01*
%TO.C,L1*%
X92543333Y-136657380D02*
X92067142Y-136657380D01*
X92067142Y-135657380D01*
X93400476Y-136657380D02*
X92829047Y-136657380D01*
X93114761Y-136657380D02*
X93114761Y-135657380D01*
X93019523Y-135800238D01*
X92924285Y-135895476D01*
X92829047Y-135943095D01*
%TO.C,D2*%
X87526904Y-140367380D02*
X87526904Y-139367380D01*
X87765000Y-139367380D01*
X87907857Y-139415000D01*
X88003095Y-139510238D01*
X88050714Y-139605476D01*
X88098333Y-139795952D01*
X88098333Y-139938809D01*
X88050714Y-140129285D01*
X88003095Y-140224523D01*
X87907857Y-140319761D01*
X87765000Y-140367380D01*
X87526904Y-140367380D01*
X88479285Y-139462619D02*
X88526904Y-139415000D01*
X88622142Y-139367380D01*
X88860238Y-139367380D01*
X88955476Y-139415000D01*
X89003095Y-139462619D01*
X89050714Y-139557857D01*
X89050714Y-139653095D01*
X89003095Y-139795952D01*
X88431666Y-140367380D01*
X89050714Y-140367380D01*
%TO.C,D6*%
X96416904Y-121317380D02*
X96416904Y-120317380D01*
X96655000Y-120317380D01*
X96797857Y-120365000D01*
X96893095Y-120460238D01*
X96940714Y-120555476D01*
X96988333Y-120745952D01*
X96988333Y-120888809D01*
X96940714Y-121079285D01*
X96893095Y-121174523D01*
X96797857Y-121269761D01*
X96655000Y-121317380D01*
X96416904Y-121317380D01*
X97845476Y-120317380D02*
X97655000Y-120317380D01*
X97559761Y-120365000D01*
X97512142Y-120412619D01*
X97416904Y-120555476D01*
X97369285Y-120745952D01*
X97369285Y-121126904D01*
X97416904Y-121222142D01*
X97464523Y-121269761D01*
X97559761Y-121317380D01*
X97750238Y-121317380D01*
X97845476Y-121269761D01*
X97893095Y-121222142D01*
X97940714Y-121126904D01*
X97940714Y-120888809D01*
X97893095Y-120793571D01*
X97845476Y-120745952D01*
X97750238Y-120698333D01*
X97559761Y-120698333D01*
X97464523Y-120745952D01*
X97416904Y-120793571D01*
X97369285Y-120888809D01*
%TO.C,D5*%
X90701904Y-121317380D02*
X90701904Y-120317380D01*
X90940000Y-120317380D01*
X91082857Y-120365000D01*
X91178095Y-120460238D01*
X91225714Y-120555476D01*
X91273333Y-120745952D01*
X91273333Y-120888809D01*
X91225714Y-121079285D01*
X91178095Y-121174523D01*
X91082857Y-121269761D01*
X90940000Y-121317380D01*
X90701904Y-121317380D01*
X92178095Y-120317380D02*
X91701904Y-120317380D01*
X91654285Y-120793571D01*
X91701904Y-120745952D01*
X91797142Y-120698333D01*
X92035238Y-120698333D01*
X92130476Y-120745952D01*
X92178095Y-120793571D01*
X92225714Y-120888809D01*
X92225714Y-121126904D01*
X92178095Y-121222142D01*
X92130476Y-121269761D01*
X92035238Y-121317380D01*
X91797142Y-121317380D01*
X91701904Y-121269761D01*
X91654285Y-121222142D01*
%TO.C,D4*%
X84986904Y-121317380D02*
X84986904Y-120317380D01*
X85225000Y-120317380D01*
X85367857Y-120365000D01*
X85463095Y-120460238D01*
X85510714Y-120555476D01*
X85558333Y-120745952D01*
X85558333Y-120888809D01*
X85510714Y-121079285D01*
X85463095Y-121174523D01*
X85367857Y-121269761D01*
X85225000Y-121317380D01*
X84986904Y-121317380D01*
X86415476Y-120650714D02*
X86415476Y-121317380D01*
X86177380Y-120269761D02*
X85939285Y-120984047D01*
X86558333Y-120984047D01*
%TO.C,D3*%
X79271904Y-121317380D02*
X79271904Y-120317380D01*
X79510000Y-120317380D01*
X79652857Y-120365000D01*
X79748095Y-120460238D01*
X79795714Y-120555476D01*
X79843333Y-120745952D01*
X79843333Y-120888809D01*
X79795714Y-121079285D01*
X79748095Y-121174523D01*
X79652857Y-121269761D01*
X79510000Y-121317380D01*
X79271904Y-121317380D01*
X80176666Y-120317380D02*
X80795714Y-120317380D01*
X80462380Y-120698333D01*
X80605238Y-120698333D01*
X80700476Y-120745952D01*
X80748095Y-120793571D01*
X80795714Y-120888809D01*
X80795714Y-121126904D01*
X80748095Y-121222142D01*
X80700476Y-121269761D01*
X80605238Y-121317380D01*
X80319523Y-121317380D01*
X80224285Y-121269761D01*
X80176666Y-121222142D01*
%TO.C,D1*%
X80541904Y-140367380D02*
X80541904Y-139367380D01*
X80780000Y-139367380D01*
X80922857Y-139415000D01*
X81018095Y-139510238D01*
X81065714Y-139605476D01*
X81113333Y-139795952D01*
X81113333Y-139938809D01*
X81065714Y-140129285D01*
X81018095Y-140224523D01*
X80922857Y-140319761D01*
X80780000Y-140367380D01*
X80541904Y-140367380D01*
X82065714Y-140367380D02*
X81494285Y-140367380D01*
X81780000Y-140367380D02*
X81780000Y-139367380D01*
X81684761Y-139510238D01*
X81589523Y-139605476D01*
X81494285Y-139653095D01*
%TO.C,C5*%
X101032142Y-133155666D02*
X101079761Y-133203285D01*
X101127380Y-133346142D01*
X101127380Y-133441380D01*
X101079761Y-133584238D01*
X100984523Y-133679476D01*
X100889285Y-133727095D01*
X100698809Y-133774714D01*
X100555952Y-133774714D01*
X100365476Y-133727095D01*
X100270238Y-133679476D01*
X100175000Y-133584238D01*
X100127380Y-133441380D01*
X100127380Y-133346142D01*
X100175000Y-133203285D01*
X100222619Y-133155666D01*
X100127380Y-132250904D02*
X100127380Y-132727095D01*
X100603571Y-132774714D01*
X100555952Y-132727095D01*
X100508333Y-132631857D01*
X100508333Y-132393761D01*
X100555952Y-132298523D01*
X100603571Y-132250904D01*
X100698809Y-132203285D01*
X100936904Y-132203285D01*
X101032142Y-132250904D01*
X101079761Y-132298523D01*
X101127380Y-132393761D01*
X101127380Y-132631857D01*
X101079761Y-132727095D01*
X101032142Y-132774714D01*
%TO.C,C3*%
X95607142Y-90336666D02*
X95654761Y-90384285D01*
X95702380Y-90527142D01*
X95702380Y-90622380D01*
X95654761Y-90765238D01*
X95559523Y-90860476D01*
X95464285Y-90908095D01*
X95273809Y-90955714D01*
X95130952Y-90955714D01*
X94940476Y-90908095D01*
X94845238Y-90860476D01*
X94750000Y-90765238D01*
X94702380Y-90622380D01*
X94702380Y-90527142D01*
X94750000Y-90384285D01*
X94797619Y-90336666D01*
X94702380Y-90003333D02*
X94702380Y-89384285D01*
X95083333Y-89717619D01*
X95083333Y-89574761D01*
X95130952Y-89479523D01*
X95178571Y-89431904D01*
X95273809Y-89384285D01*
X95511904Y-89384285D01*
X95607142Y-89431904D01*
X95654761Y-89479523D01*
X95702380Y-89574761D01*
X95702380Y-89860476D01*
X95654761Y-89955714D01*
X95607142Y-90003333D01*
%TO.C,C2*%
X81002142Y-90336666D02*
X81049761Y-90384285D01*
X81097380Y-90527142D01*
X81097380Y-90622380D01*
X81049761Y-90765238D01*
X80954523Y-90860476D01*
X80859285Y-90908095D01*
X80668809Y-90955714D01*
X80525952Y-90955714D01*
X80335476Y-90908095D01*
X80240238Y-90860476D01*
X80145000Y-90765238D01*
X80097380Y-90622380D01*
X80097380Y-90527142D01*
X80145000Y-90384285D01*
X80192619Y-90336666D01*
X80192619Y-89955714D02*
X80145000Y-89908095D01*
X80097380Y-89812857D01*
X80097380Y-89574761D01*
X80145000Y-89479523D01*
X80192619Y-89431904D01*
X80287857Y-89384285D01*
X80383095Y-89384285D01*
X80525952Y-89431904D01*
X81097380Y-90003333D01*
X81097380Y-89384285D01*
%TO.C,C1*%
X66397142Y-90336666D02*
X66444761Y-90384285D01*
X66492380Y-90527142D01*
X66492380Y-90622380D01*
X66444761Y-90765238D01*
X66349523Y-90860476D01*
X66254285Y-90908095D01*
X66063809Y-90955714D01*
X65920952Y-90955714D01*
X65730476Y-90908095D01*
X65635238Y-90860476D01*
X65540000Y-90765238D01*
X65492380Y-90622380D01*
X65492380Y-90527142D01*
X65540000Y-90384285D01*
X65587619Y-90336666D01*
X66492380Y-89384285D02*
X66492380Y-89955714D01*
X66492380Y-89670000D02*
X65492380Y-89670000D01*
X65635238Y-89765238D01*
X65730476Y-89860476D01*
X65778095Y-89955714D01*
%TD*%
M02*
