M48
; DRILL file {KiCad 5.1.9-73d0e3b20d~88~ubuntu18.04.1} date Sun Apr 18 22:57:55 2021
; FORMAT={-:-/ absolute / inch / decimal}
; #@! TF.CreationDate,2021-04-18T22:57:55-04:00
; #@! TF.GenerationSoftware,Kicad,Pcbnew,5.1.9-73d0e3b20d~88~ubuntu18.04.1
; #@! TF.FileFunction,Plated,1,2,PTH
FMAT,2
INCH
T1C0.0157
T2C0.0299
T3C0.0315
T4C0.0354
T5C0.0394
T6C0.0433
%
G90
G05
T1
X2.65Y-4.95
X3.1Y-3.55
X3.1Y-3.6
X3.15Y-4.95
X3.25Y-3.6
X3.2864Y-5.1136
X3.35Y-4.15
X3.4Y-3.15
X3.4Y-4.25
X3.55Y-3.7
X3.55Y-4.65
X3.55Y-4.75
X3.5546Y-3.7844
X3.65Y-3.35
X3.65Y-3.65
X3.65Y-4.25
X3.7Y-3.9
X3.85Y-4.05
T2
X3.25Y-6.0
X3.35Y-6.0
X3.45Y-6.0
X3.55Y-6.0
T3
X2.35Y-3.25
X2.35Y-3.5
X2.35Y-3.75
X2.35Y-4.0
X2.4Y-4.6
X2.4Y-4.9
X2.65Y-3.25
X2.65Y-3.5
X2.65Y-3.75
X2.65Y-4.0
X2.7Y-4.15
X2.7Y-4.45
X2.95Y-4.15
X2.95Y-4.45
X3.1953Y-6.1654
X3.2Y-5.55
X3.2Y-5.65
X3.35Y-5.7
X3.4484Y-5.7
X3.6016Y-2.8
X3.6016Y-3.75
X3.6016Y-4.7
X3.6047Y-6.1654
X3.7Y-2.8
X3.7Y-3.75
X3.7Y-4.7
T4
X2.6Y-4.65
X2.7Y-4.65
X2.8Y-3.25
X2.8Y-3.5
X2.8Y-3.75
X2.8Y-4.0
X2.9Y-3.25
X2.9Y-3.5
X2.9Y-3.75
X2.9Y-4.0
X2.9Y-4.65
X3.0Y-4.65
T5
X3.2Y-2.8
X3.2Y-2.9
X3.2Y-3.0
X3.2Y-3.1
X3.2Y-3.2
X3.2Y-3.3
X3.2Y-3.4
X3.2Y-3.5
X3.2Y-3.75
X3.2Y-3.85
X3.2Y-3.95
X3.2Y-4.05
X3.2Y-4.15
X3.2Y-4.25
X3.2Y-4.35
X3.2Y-4.45
X3.2Y-4.7
X3.2Y-4.8
X3.2Y-4.9
X3.2Y-5.0
X3.2Y-5.1
X3.2Y-5.2
X3.2Y-5.3
X3.2Y-5.4
X3.5Y-2.8
X3.5Y-2.9
X3.5Y-3.0
X3.5Y-3.1
X3.5Y-3.2
X3.5Y-3.3
X3.5Y-3.4
X3.5Y-3.5
X3.5Y-3.75
X3.5Y-3.85
X3.5Y-3.95
X3.5Y-4.05
X3.5Y-4.15
X3.5Y-4.25
X3.5Y-4.35
X3.5Y-4.45
X3.5Y-4.7
X3.5Y-4.8
X3.5Y-4.9
X3.5Y-5.0
X3.5Y-5.1
X3.5Y-5.2
X3.5Y-5.3
X3.5Y-5.4
X3.95Y-2.95
X3.95Y-3.05
X3.95Y-3.3
X3.95Y-3.4
X3.95Y-3.5
X3.95Y-3.6
X3.95Y-3.7
X3.95Y-3.8
X3.95Y-3.9
X3.95Y-4.0
X3.95Y-4.1
X3.95Y-4.2
X3.95Y-4.3
X3.95Y-4.4
X3.95Y-4.5
X3.95Y-4.6
X3.95Y-4.7
X3.95Y-4.8
X3.95Y-4.9
X3.95Y-5.0
X3.95Y-5.1
X3.95Y-5.2
X3.95Y-5.3
X3.95Y-5.4
X3.95Y-5.5
X3.95Y-5.6
X4.1413Y-5.95
X4.15Y-2.95
X4.15Y-3.05
X4.15Y-3.3
X4.15Y-3.4
X4.15Y-3.5
X4.15Y-3.6
X4.15Y-3.7
X4.15Y-3.8
X4.15Y-3.9
X4.15Y-4.0
X4.15Y-4.1
X4.15Y-4.2
X4.15Y-4.3
X4.15Y-4.4
X4.15Y-4.5
X4.15Y-4.6
X4.15Y-4.7
X4.15Y-4.8
X4.15Y-4.9
X4.15Y-5.0
X4.15Y-5.1
X4.15Y-5.2
X4.15Y-5.3
X4.15Y-5.4
X4.15Y-5.5
X4.15Y-5.6
X4.1959Y-6.0618
X4.2504Y-5.95
X4.3049Y-6.0618
X4.3594Y-5.95
X4.414Y-6.0618
X4.4685Y-5.95
X4.523Y-6.0618
X4.5776Y-5.95
X4.6321Y-6.0618
X4.6866Y-5.95
X4.7411Y-6.0618
X4.75Y-2.95
X4.75Y-3.05
X4.75Y-3.15
X4.75Y-3.25
X4.75Y-3.35
X4.75Y-3.45
X4.75Y-3.55
X4.75Y-3.65
X4.75Y-3.75
X4.75Y-3.85
X4.75Y-3.95
X4.75Y-4.05
X4.75Y-4.15
X4.75Y-4.25
X4.75Y-4.35
X4.75Y-4.45
X4.75Y-4.7
X4.75Y-4.8
X4.75Y-4.9
X4.75Y-5.0
X4.75Y-5.1
X4.75Y-5.2
X4.75Y-5.3
X4.75Y-5.4
X4.75Y-5.5
X4.75Y-5.6
X4.7957Y-5.95
X4.8502Y-6.0618
X4.9047Y-5.95
X4.95Y-2.95
X4.95Y-3.05
X4.95Y-3.15
X4.95Y-3.25
X4.95Y-3.35
X4.95Y-3.45
X4.95Y-3.55
X4.95Y-3.65
X4.95Y-3.75
X4.95Y-3.85
X4.95Y-3.95
X4.95Y-4.05
X4.95Y-4.15
X4.95Y-4.25
X4.95Y-4.35
X4.95Y-4.45
X4.95Y-4.7
X4.95Y-4.8
X4.95Y-4.9
X4.95Y-5.0
X4.95Y-5.1
X4.95Y-5.2
X4.95Y-5.3
X4.95Y-5.4
X4.95Y-5.5
X4.95Y-5.6
X4.9593Y-6.0618
X5.0138Y-5.95
X5.0683Y-6.0618
X5.1228Y-5.95
X5.1774Y-6.0618
X5.2319Y-5.95
X5.2864Y-6.0618
X5.3409Y-5.95
X5.3955Y-6.0618
X5.45Y-5.95
T6
X2.4Y-5.05
X2.4Y-5.15
X2.4Y-5.25
X2.4Y-5.35
X2.4Y-5.45
X2.4Y-5.55
X2.4Y-5.65
X2.4Y-5.75
X2.4Y-5.85
X2.4Y-5.95
X2.4Y-6.05
X2.4Y-6.15
X2.4Y-6.25
X2.4Y-6.35
X2.5Y-5.05
X2.5Y-5.25
X2.5Y-5.35
X2.5Y-6.25
X2.6Y-5.05
X2.6Y-5.25
X2.6Y-5.35
X2.7Y-5.05
X2.7Y-5.25
X2.7Y-5.35
X2.8Y-5.05
X2.8Y-5.25
X2.8Y-5.35
X2.9Y-5.05
X2.9Y-5.25
X2.9Y-5.35
X3.0Y-5.05
X3.0Y-5.15
X3.0Y-5.25
X3.0Y-5.35
X3.0Y-5.45
X3.0Y-5.55
X3.0Y-5.65
X3.0Y-5.75
X3.0Y-5.85
X3.0Y-5.95
X3.0Y-6.05
X3.0Y-6.15
X3.0Y-6.25
X3.0Y-6.35
T0
M30
