%TF.GenerationSoftware,KiCad,Pcbnew,5.1.9-73d0e3b20d~88~ubuntu18.04.1*%
%TF.CreationDate,2021-09-13T22:15:05-04:00*%
%TF.ProjectId,adapter,61646170-7465-4722-9e6b-696361645f70,rev?*%
%TF.SameCoordinates,Original*%
%TF.FileFunction,Legend,Top*%
%TF.FilePolarity,Positive*%
%FSLAX46Y46*%
G04 Gerber Fmt 4.6, Leading zero omitted, Abs format (unit mm)*
G04 Created by KiCad (PCBNEW 5.1.9-73d0e3b20d~88~ubuntu18.04.1) date 2021-09-13 22:15:05*
%MOMM*%
%LPD*%
G01*
G04 APERTURE LIST*
%ADD10C,0.150000*%
%ADD11C,0.120000*%
G04 APERTURE END LIST*
D10*
X101457142Y-113154285D02*
X101457142Y-112487619D01*
X102504761Y-112201904D02*
X102504761Y-113154285D01*
X100504761Y-113154285D01*
X100504761Y-112201904D01*
X101457142Y-111344761D02*
X101457142Y-110678095D01*
X102504761Y-110392380D02*
X102504761Y-111344761D01*
X100504761Y-111344761D01*
X100504761Y-110392380D01*
X100600000Y-108487619D02*
X100504761Y-108678095D01*
X100504761Y-108963809D01*
X100600000Y-109249523D01*
X100790476Y-109440000D01*
X100980952Y-109535238D01*
X101361904Y-109630476D01*
X101647619Y-109630476D01*
X102028571Y-109535238D01*
X102219047Y-109440000D01*
X102409523Y-109249523D01*
X102504761Y-108963809D01*
X102504761Y-108773333D01*
X102409523Y-108487619D01*
X102314285Y-108392380D01*
X101647619Y-108392380D01*
X101647619Y-108773333D01*
X102504761Y-106011428D02*
X100504761Y-106011428D01*
X100504761Y-105535238D01*
X100600000Y-105249523D01*
X100790476Y-105059047D01*
X100980952Y-104963809D01*
X101361904Y-104868571D01*
X101647619Y-104868571D01*
X102028571Y-104963809D01*
X102219047Y-105059047D01*
X102409523Y-105249523D01*
X102504761Y-105535238D01*
X102504761Y-106011428D01*
X102504761Y-104011428D02*
X101171428Y-104011428D01*
X100504761Y-104011428D02*
X100600000Y-104106666D01*
X100695238Y-104011428D01*
X100600000Y-103916190D01*
X100504761Y-104011428D01*
X100695238Y-104011428D01*
X101171428Y-102201904D02*
X102790476Y-102201904D01*
X102980952Y-102297142D01*
X103076190Y-102392380D01*
X103171428Y-102582857D01*
X103171428Y-102868571D01*
X103076190Y-103059047D01*
X102409523Y-102201904D02*
X102504761Y-102392380D01*
X102504761Y-102773333D01*
X102409523Y-102963809D01*
X102314285Y-103059047D01*
X102123809Y-103154285D01*
X101552380Y-103154285D01*
X101361904Y-103059047D01*
X101266666Y-102963809D01*
X101171428Y-102773333D01*
X101171428Y-102392380D01*
X101266666Y-102201904D01*
X102504761Y-101249523D02*
X101171428Y-101249523D01*
X100504761Y-101249523D02*
X100600000Y-101344761D01*
X100695238Y-101249523D01*
X100600000Y-101154285D01*
X100504761Y-101249523D01*
X100695238Y-101249523D01*
X101171428Y-100582857D02*
X101171428Y-99820952D01*
X100504761Y-100297142D02*
X102219047Y-100297142D01*
X102409523Y-100201904D01*
X102504761Y-100011428D01*
X102504761Y-99820952D01*
X102504761Y-98297142D02*
X101457142Y-98297142D01*
X101266666Y-98392380D01*
X101171428Y-98582857D01*
X101171428Y-98963809D01*
X101266666Y-99154285D01*
X102409523Y-98297142D02*
X102504761Y-98487619D01*
X102504761Y-98963809D01*
X102409523Y-99154285D01*
X102219047Y-99249523D01*
X102028571Y-99249523D01*
X101838095Y-99154285D01*
X101742857Y-98963809D01*
X101742857Y-98487619D01*
X101647619Y-98297142D01*
X102504761Y-97059047D02*
X102409523Y-97249523D01*
X102219047Y-97344761D01*
X100504761Y-97344761D01*
X100504761Y-95059047D02*
X100504761Y-93916190D01*
X102504761Y-94487619D02*
X100504761Y-94487619D01*
X102504761Y-93249523D02*
X101171428Y-93249523D01*
X101552380Y-93249523D02*
X101361904Y-93154285D01*
X101266666Y-93059047D01*
X101171428Y-92868571D01*
X101171428Y-92678095D01*
X102504761Y-92011428D02*
X101171428Y-92011428D01*
X100504761Y-92011428D02*
X100600000Y-92106666D01*
X100695238Y-92011428D01*
X100600000Y-91916190D01*
X100504761Y-92011428D01*
X100695238Y-92011428D01*
X101171428Y-90201904D02*
X102790476Y-90201904D01*
X102980952Y-90297142D01*
X103076190Y-90392380D01*
X103171428Y-90582857D01*
X103171428Y-90868571D01*
X103076190Y-91059047D01*
X102409523Y-90201904D02*
X102504761Y-90392380D01*
X102504761Y-90773333D01*
X102409523Y-90963809D01*
X102314285Y-91059047D01*
X102123809Y-91154285D01*
X101552380Y-91154285D01*
X101361904Y-91059047D01*
X101266666Y-90963809D01*
X101171428Y-90773333D01*
X101171428Y-90392380D01*
X101266666Y-90201904D01*
X101171428Y-88392380D02*
X102790476Y-88392380D01*
X102980952Y-88487619D01*
X103076190Y-88582857D01*
X103171428Y-88773333D01*
X103171428Y-89059047D01*
X103076190Y-89249523D01*
X102409523Y-88392380D02*
X102504761Y-88582857D01*
X102504761Y-88963809D01*
X102409523Y-89154285D01*
X102314285Y-89249523D01*
X102123809Y-89344761D01*
X101552380Y-89344761D01*
X101361904Y-89249523D01*
X101266666Y-89154285D01*
X101171428Y-88963809D01*
X101171428Y-88582857D01*
X101266666Y-88392380D01*
X102409523Y-86678095D02*
X102504761Y-86868571D01*
X102504761Y-87249523D01*
X102409523Y-87440000D01*
X102219047Y-87535238D01*
X101457142Y-87535238D01*
X101266666Y-87440000D01*
X101171428Y-87249523D01*
X101171428Y-86868571D01*
X101266666Y-86678095D01*
X101457142Y-86582857D01*
X101647619Y-86582857D01*
X101838095Y-87535238D01*
X102504761Y-85725714D02*
X101171428Y-85725714D01*
X101552380Y-85725714D02*
X101361904Y-85630476D01*
X101266666Y-85535238D01*
X101171428Y-85344761D01*
X101171428Y-85154285D01*
X102314285Y-81820952D02*
X102409523Y-81916190D01*
X102504761Y-82201904D01*
X102504761Y-82392380D01*
X102409523Y-82678095D01*
X102219047Y-82868571D01*
X102028571Y-82963809D01*
X101647619Y-83059047D01*
X101361904Y-83059047D01*
X100980952Y-82963809D01*
X100790476Y-82868571D01*
X100600000Y-82678095D01*
X100504761Y-82392380D01*
X100504761Y-82201904D01*
X100600000Y-81916190D01*
X100695238Y-81820952D01*
X102504761Y-80678095D02*
X102409523Y-80868571D01*
X102314285Y-80963809D01*
X102123809Y-81059047D01*
X101552380Y-81059047D01*
X101361904Y-80963809D01*
X101266666Y-80868571D01*
X101171428Y-80678095D01*
X101171428Y-80392380D01*
X101266666Y-80201904D01*
X101361904Y-80106666D01*
X101552380Y-80011428D01*
X102123809Y-80011428D01*
X102314285Y-80106666D01*
X102409523Y-80201904D01*
X102504761Y-80392380D01*
X102504761Y-80678095D01*
X101171428Y-79154285D02*
X102504761Y-79154285D01*
X101361904Y-79154285D02*
X101266666Y-79059047D01*
X101171428Y-78868571D01*
X101171428Y-78582857D01*
X101266666Y-78392380D01*
X101457142Y-78297142D01*
X102504761Y-78297142D01*
X101171428Y-77535238D02*
X102504761Y-77059047D01*
X101171428Y-76582857D01*
X102409523Y-75059047D02*
X102504761Y-75249523D01*
X102504761Y-75630476D01*
X102409523Y-75820952D01*
X102219047Y-75916190D01*
X101457142Y-75916190D01*
X101266666Y-75820952D01*
X101171428Y-75630476D01*
X101171428Y-75249523D01*
X101266666Y-75059047D01*
X101457142Y-74963809D01*
X101647619Y-74963809D01*
X101838095Y-75916190D01*
X102504761Y-74106666D02*
X101171428Y-74106666D01*
X101552380Y-74106666D02*
X101361904Y-74011428D01*
X101266666Y-73916190D01*
X101171428Y-73725714D01*
X101171428Y-73535238D01*
X101171428Y-73154285D02*
X101171428Y-72392380D01*
X100504761Y-72868571D02*
X102219047Y-72868571D01*
X102409523Y-72773333D01*
X102504761Y-72582857D01*
X102504761Y-72392380D01*
X102409523Y-70963809D02*
X102504761Y-71154285D01*
X102504761Y-71535238D01*
X102409523Y-71725714D01*
X102219047Y-71820952D01*
X101457142Y-71820952D01*
X101266666Y-71725714D01*
X101171428Y-71535238D01*
X101171428Y-71154285D01*
X101266666Y-70963809D01*
X101457142Y-70868571D01*
X101647619Y-70868571D01*
X101838095Y-71820952D01*
X102504761Y-70011428D02*
X101171428Y-70011428D01*
X101552380Y-70011428D02*
X101361904Y-69916190D01*
X101266666Y-69820952D01*
X101171428Y-69630476D01*
X101171428Y-69440000D01*
X106572857Y-110332857D02*
X106644285Y-110118571D01*
X106715714Y-110047142D01*
X106858571Y-109975714D01*
X107072857Y-109975714D01*
X107215714Y-110047142D01*
X107287142Y-110118571D01*
X107358571Y-110261428D01*
X107358571Y-110832857D01*
X105858571Y-110832857D01*
X105858571Y-110332857D01*
X105930000Y-110190000D01*
X106001428Y-110118571D01*
X106144285Y-110047142D01*
X106287142Y-110047142D01*
X106430000Y-110118571D01*
X106501428Y-110190000D01*
X106572857Y-110332857D01*
X106572857Y-110832857D01*
X107358571Y-109332857D02*
X106358571Y-109332857D01*
X105858571Y-109332857D02*
X105930000Y-109404285D01*
X106001428Y-109332857D01*
X105930000Y-109261428D01*
X105858571Y-109332857D01*
X106001428Y-109332857D01*
X107358571Y-108404285D02*
X107287142Y-108547142D01*
X107215714Y-108618571D01*
X107072857Y-108690000D01*
X106644285Y-108690000D01*
X106501428Y-108618571D01*
X106430000Y-108547142D01*
X106358571Y-108404285D01*
X106358571Y-108190000D01*
X106430000Y-108047142D01*
X106501428Y-107975714D01*
X106644285Y-107904285D01*
X107072857Y-107904285D01*
X107215714Y-107975714D01*
X107287142Y-108047142D01*
X107358571Y-108190000D01*
X107358571Y-108404285D01*
X107287142Y-107332857D02*
X107358571Y-107118571D01*
X107358571Y-106761428D01*
X107287142Y-106618571D01*
X107215714Y-106547142D01*
X107072857Y-106475714D01*
X106930000Y-106475714D01*
X106787142Y-106547142D01*
X106715714Y-106618571D01*
X106644285Y-106761428D01*
X106572857Y-107047142D01*
X106501428Y-107190000D01*
X106430000Y-107261428D01*
X106287142Y-107332857D01*
X106144285Y-107332857D01*
X106001428Y-107261428D01*
X105930000Y-107190000D01*
X105858571Y-107047142D01*
X105858571Y-106690000D01*
X105930000Y-106475714D01*
X107287142Y-105261428D02*
X107358571Y-105404285D01*
X107358571Y-105690000D01*
X107287142Y-105832857D01*
X107144285Y-105904285D01*
X106572857Y-105904285D01*
X106430000Y-105832857D01*
X106358571Y-105690000D01*
X106358571Y-105404285D01*
X106430000Y-105261428D01*
X106572857Y-105190000D01*
X106715714Y-105190000D01*
X106858571Y-105904285D01*
X107358571Y-104547142D02*
X106358571Y-104547142D01*
X106501428Y-104547142D02*
X106430000Y-104475714D01*
X106358571Y-104332857D01*
X106358571Y-104118571D01*
X106430000Y-103975714D01*
X106572857Y-103904285D01*
X107358571Y-103904285D01*
X106572857Y-103904285D02*
X106430000Y-103832857D01*
X106358571Y-103690000D01*
X106358571Y-103475714D01*
X106430000Y-103332857D01*
X106572857Y-103261428D01*
X107358571Y-103261428D01*
X107358571Y-102547142D02*
X106358571Y-102547142D01*
X105858571Y-102547142D02*
X105930000Y-102618571D01*
X106001428Y-102547142D01*
X105930000Y-102475714D01*
X105858571Y-102547142D01*
X106001428Y-102547142D01*
X106930000Y-100761428D02*
X106930000Y-100047142D01*
X107358571Y-100904285D02*
X105858571Y-100404285D01*
X107358571Y-99904285D01*
X107287142Y-98761428D02*
X107358571Y-98904285D01*
X107358571Y-99190000D01*
X107287142Y-99332857D01*
X107215714Y-99404285D01*
X107072857Y-99475714D01*
X106644285Y-99475714D01*
X106501428Y-99404285D01*
X106430000Y-99332857D01*
X106358571Y-99190000D01*
X106358571Y-98904285D01*
X106430000Y-98761428D01*
X106358571Y-98332857D02*
X106358571Y-97761428D01*
X105858571Y-98118571D02*
X107144285Y-98118571D01*
X107287142Y-98047142D01*
X107358571Y-97904285D01*
X107358571Y-97761428D01*
X107358571Y-97261428D02*
X106358571Y-97261428D01*
X105858571Y-97261428D02*
X105930000Y-97332857D01*
X106001428Y-97261428D01*
X105930000Y-97190000D01*
X105858571Y-97261428D01*
X106001428Y-97261428D01*
X106358571Y-96690000D02*
X107358571Y-96332857D01*
X106358571Y-95975714D01*
X107287142Y-94832857D02*
X107358571Y-94975714D01*
X107358571Y-95261428D01*
X107287142Y-95404285D01*
X107144285Y-95475714D01*
X106572857Y-95475714D01*
X106430000Y-95404285D01*
X106358571Y-95261428D01*
X106358571Y-94975714D01*
X106430000Y-94832857D01*
X106572857Y-94761428D01*
X106715714Y-94761428D01*
X106858571Y-95475714D01*
X105858571Y-94332857D02*
X105858571Y-93475714D01*
X107358571Y-93904285D02*
X105858571Y-93904285D01*
X106358571Y-93118571D02*
X107358571Y-92832857D01*
X106644285Y-92547142D01*
X107358571Y-92261428D01*
X106358571Y-91975714D01*
X107358571Y-91190000D02*
X107287142Y-91332857D01*
X107215714Y-91404285D01*
X107072857Y-91475714D01*
X106644285Y-91475714D01*
X106501428Y-91404285D01*
X106430000Y-91332857D01*
X106358571Y-91190000D01*
X106358571Y-90975714D01*
X106430000Y-90832857D01*
X106501428Y-90761428D01*
X106644285Y-90690000D01*
X107072857Y-90690000D01*
X107215714Y-90761428D01*
X107287142Y-90832857D01*
X107358571Y-90975714D01*
X107358571Y-91190000D01*
X107358571Y-88904285D02*
X105858571Y-88904285D01*
X105858571Y-88547142D01*
X105930000Y-88332857D01*
X106072857Y-88190000D01*
X106215714Y-88118571D01*
X106501428Y-88047142D01*
X106715714Y-88047142D01*
X107001428Y-88118571D01*
X107144285Y-88190000D01*
X107287142Y-88332857D01*
X107358571Y-88547142D01*
X107358571Y-88904285D01*
X107215714Y-86547142D02*
X107287142Y-86618571D01*
X107358571Y-86832857D01*
X107358571Y-86975714D01*
X107287142Y-87190000D01*
X107144285Y-87332857D01*
X107001428Y-87404285D01*
X106715714Y-87475714D01*
X106501428Y-87475714D01*
X106215714Y-87404285D01*
X106072857Y-87332857D01*
X105930000Y-87190000D01*
X105858571Y-86975714D01*
X105858571Y-86832857D01*
X105930000Y-86618571D01*
X106001428Y-86547142D01*
X106787142Y-85904285D02*
X106787142Y-84761428D01*
X105858571Y-84190000D02*
X105858571Y-83261428D01*
X106430000Y-83761428D01*
X106430000Y-83547142D01*
X106501428Y-83404285D01*
X106572857Y-83332857D01*
X106715714Y-83261428D01*
X107072857Y-83261428D01*
X107215714Y-83332857D01*
X107287142Y-83404285D01*
X107358571Y-83547142D01*
X107358571Y-83975714D01*
X107287142Y-84118571D01*
X107215714Y-84190000D01*
X105858571Y-82761428D02*
X105858571Y-81761428D01*
X107358571Y-82404285D01*
X107930000Y-79618571D02*
X107858571Y-79690000D01*
X107644285Y-79832857D01*
X107501428Y-79904285D01*
X107287142Y-79975714D01*
X106930000Y-80047142D01*
X106644285Y-80047142D01*
X106287142Y-79975714D01*
X106072857Y-79904285D01*
X105930000Y-79832857D01*
X105715714Y-79690000D01*
X105644285Y-79618571D01*
X106501428Y-78832857D02*
X106430000Y-78975714D01*
X106358571Y-79047142D01*
X106215714Y-79118571D01*
X106144285Y-79118571D01*
X106001428Y-79047142D01*
X105930000Y-78975714D01*
X105858571Y-78832857D01*
X105858571Y-78547142D01*
X105930000Y-78404285D01*
X106001428Y-78332857D01*
X106144285Y-78261428D01*
X106215714Y-78261428D01*
X106358571Y-78332857D01*
X106430000Y-78404285D01*
X106501428Y-78547142D01*
X106501428Y-78832857D01*
X106572857Y-78975714D01*
X106644285Y-79047142D01*
X106787142Y-79118571D01*
X107072857Y-79118571D01*
X107215714Y-79047142D01*
X107287142Y-78975714D01*
X107358571Y-78832857D01*
X107358571Y-78547142D01*
X107287142Y-78404285D01*
X107215714Y-78332857D01*
X107072857Y-78261428D01*
X106787142Y-78261428D01*
X106644285Y-78332857D01*
X106572857Y-78404285D01*
X106501428Y-78547142D01*
X107358571Y-76475714D02*
X105858571Y-76475714D01*
X106430000Y-76475714D02*
X106358571Y-76332857D01*
X106358571Y-76047142D01*
X106430000Y-75904285D01*
X106501428Y-75832857D01*
X106644285Y-75761428D01*
X107072857Y-75761428D01*
X107215714Y-75832857D01*
X107287142Y-75904285D01*
X107358571Y-76047142D01*
X107358571Y-76332857D01*
X107287142Y-76475714D01*
X107358571Y-75118571D02*
X106358571Y-75118571D01*
X105858571Y-75118571D02*
X105930000Y-75190000D01*
X106001428Y-75118571D01*
X105930000Y-75047142D01*
X105858571Y-75118571D01*
X106001428Y-75118571D01*
X106358571Y-74618571D02*
X106358571Y-74047142D01*
X105858571Y-74404285D02*
X107144285Y-74404285D01*
X107287142Y-74332857D01*
X107358571Y-74190000D01*
X107358571Y-74047142D01*
X107287142Y-73618571D02*
X107358571Y-73475714D01*
X107358571Y-73190000D01*
X107287142Y-73047142D01*
X107144285Y-72975714D01*
X107072857Y-72975714D01*
X106930000Y-73047142D01*
X106858571Y-73190000D01*
X106858571Y-73404285D01*
X106787142Y-73547142D01*
X106644285Y-73618571D01*
X106572857Y-73618571D01*
X106430000Y-73547142D01*
X106358571Y-73404285D01*
X106358571Y-73190000D01*
X106430000Y-73047142D01*
X107930000Y-72475714D02*
X107858571Y-72404285D01*
X107644285Y-72261428D01*
X107501428Y-72190000D01*
X107287142Y-72118571D01*
X106930000Y-72047142D01*
X106644285Y-72047142D01*
X106287142Y-72118571D01*
X106072857Y-72190000D01*
X105930000Y-72261428D01*
X105715714Y-72404285D01*
X105644285Y-72475714D01*
X96412857Y-114225714D02*
X96484285Y-114011428D01*
X96555714Y-113940000D01*
X96698571Y-113868571D01*
X96912857Y-113868571D01*
X97055714Y-113940000D01*
X97127142Y-114011428D01*
X97198571Y-114154285D01*
X97198571Y-114725714D01*
X95698571Y-114725714D01*
X95698571Y-114225714D01*
X95770000Y-114082857D01*
X95841428Y-114011428D01*
X95984285Y-113940000D01*
X96127142Y-113940000D01*
X96270000Y-114011428D01*
X96341428Y-114082857D01*
X96412857Y-114225714D01*
X96412857Y-114725714D01*
X97198571Y-113225714D02*
X96198571Y-113225714D01*
X96484285Y-113225714D02*
X96341428Y-113154285D01*
X96270000Y-113082857D01*
X96198571Y-112940000D01*
X96198571Y-112797142D01*
X97198571Y-111654285D02*
X96412857Y-111654285D01*
X96270000Y-111725714D01*
X96198571Y-111868571D01*
X96198571Y-112154285D01*
X96270000Y-112297142D01*
X97127142Y-111654285D02*
X97198571Y-111797142D01*
X97198571Y-112154285D01*
X97127142Y-112297142D01*
X96984285Y-112368571D01*
X96841428Y-112368571D01*
X96698571Y-112297142D01*
X96627142Y-112154285D01*
X96627142Y-111797142D01*
X96555714Y-111654285D01*
X97198571Y-110940000D02*
X96198571Y-110940000D01*
X95698571Y-110940000D02*
X95770000Y-111011428D01*
X95841428Y-110940000D01*
X95770000Y-110868571D01*
X95698571Y-110940000D01*
X95841428Y-110940000D01*
X96198571Y-110225714D02*
X97198571Y-110225714D01*
X96341428Y-110225714D02*
X96270000Y-110154285D01*
X96198571Y-110011428D01*
X96198571Y-109797142D01*
X96270000Y-109654285D01*
X96412857Y-109582857D01*
X97198571Y-109582857D01*
X97198571Y-108868571D02*
X95698571Y-108868571D01*
X95698571Y-108297142D01*
X95770000Y-108154285D01*
X95841428Y-108082857D01*
X95984285Y-108011428D01*
X96198571Y-108011428D01*
X96341428Y-108082857D01*
X96412857Y-108154285D01*
X96484285Y-108297142D01*
X96484285Y-108868571D01*
X97198571Y-107368571D02*
X96198571Y-107368571D01*
X96484285Y-107368571D02*
X96341428Y-107297142D01*
X96270000Y-107225714D01*
X96198571Y-107082857D01*
X96198571Y-106940000D01*
X97198571Y-106225714D02*
X97127142Y-106368571D01*
X97055714Y-106440000D01*
X96912857Y-106511428D01*
X96484285Y-106511428D01*
X96341428Y-106440000D01*
X96270000Y-106368571D01*
X96198571Y-106225714D01*
X96198571Y-106011428D01*
X96270000Y-105868571D01*
X96341428Y-105797142D01*
X96484285Y-105725714D01*
X96912857Y-105725714D01*
X97055714Y-105797142D01*
X97127142Y-105868571D01*
X97198571Y-106011428D01*
X97198571Y-106225714D01*
X97198571Y-104440000D02*
X95698571Y-104440000D01*
X97127142Y-104440000D02*
X97198571Y-104582857D01*
X97198571Y-104868571D01*
X97127142Y-105011428D01*
X97055714Y-105082857D01*
X96912857Y-105154285D01*
X96484285Y-105154285D01*
X96341428Y-105082857D01*
X96270000Y-105011428D01*
X96198571Y-104868571D01*
X96198571Y-104582857D01*
X96270000Y-104440000D01*
X96198571Y-103082857D02*
X97198571Y-103082857D01*
X96198571Y-103725714D02*
X96984285Y-103725714D01*
X97127142Y-103654285D01*
X97198571Y-103511428D01*
X97198571Y-103297142D01*
X97127142Y-103154285D01*
X97055714Y-103082857D01*
X97127142Y-101725714D02*
X97198571Y-101868571D01*
X97198571Y-102154285D01*
X97127142Y-102297142D01*
X97055714Y-102368571D01*
X96912857Y-102440000D01*
X96484285Y-102440000D01*
X96341428Y-102368571D01*
X96270000Y-102297142D01*
X96198571Y-102154285D01*
X96198571Y-101868571D01*
X96270000Y-101725714D01*
X96198571Y-101297142D02*
X96198571Y-100725714D01*
X95698571Y-101082857D02*
X96984285Y-101082857D01*
X97127142Y-101011428D01*
X97198571Y-100868571D01*
X97198571Y-100725714D01*
X97127142Y-100297142D02*
X97198571Y-100154285D01*
X97198571Y-99868571D01*
X97127142Y-99725714D01*
X96984285Y-99654285D01*
X96912857Y-99654285D01*
X96770000Y-99725714D01*
X96698571Y-99868571D01*
X96698571Y-100082857D01*
X96627142Y-100225714D01*
X96484285Y-100297142D01*
X96412857Y-100297142D01*
X96270000Y-100225714D01*
X96198571Y-100082857D01*
X96198571Y-99868571D01*
X96270000Y-99725714D01*
X96770000Y-97940000D02*
X96770000Y-97225714D01*
X97198571Y-98082857D02*
X95698571Y-97582857D01*
X97198571Y-97082857D01*
X97127142Y-95940000D02*
X97198571Y-96082857D01*
X97198571Y-96368571D01*
X97127142Y-96511428D01*
X97055714Y-96582857D01*
X96912857Y-96654285D01*
X96484285Y-96654285D01*
X96341428Y-96582857D01*
X96270000Y-96511428D01*
X96198571Y-96368571D01*
X96198571Y-96082857D01*
X96270000Y-95940000D01*
X96198571Y-95511428D02*
X96198571Y-94940000D01*
X95698571Y-95297142D02*
X96984285Y-95297142D01*
X97127142Y-95225714D01*
X97198571Y-95082857D01*
X97198571Y-94940000D01*
X97198571Y-94440000D02*
X96198571Y-94440000D01*
X95698571Y-94440000D02*
X95770000Y-94511428D01*
X95841428Y-94440000D01*
X95770000Y-94368571D01*
X95698571Y-94440000D01*
X95841428Y-94440000D01*
X97055714Y-92868571D02*
X97127142Y-92940000D01*
X97198571Y-93154285D01*
X97198571Y-93297142D01*
X97127142Y-93511428D01*
X96984285Y-93654285D01*
X96841428Y-93725714D01*
X96555714Y-93797142D01*
X96341428Y-93797142D01*
X96055714Y-93725714D01*
X95912857Y-93654285D01*
X95770000Y-93511428D01*
X95698571Y-93297142D01*
X95698571Y-93154285D01*
X95770000Y-92940000D01*
X95841428Y-92868571D01*
X97198571Y-92225714D02*
X95698571Y-92225714D01*
X97198571Y-91582857D02*
X96412857Y-91582857D01*
X96270000Y-91654285D01*
X96198571Y-91797142D01*
X96198571Y-92011428D01*
X96270000Y-92154285D01*
X96341428Y-92225714D01*
X97198571Y-90225714D02*
X96412857Y-90225714D01*
X96270000Y-90297142D01*
X96198571Y-90440000D01*
X96198571Y-90725714D01*
X96270000Y-90868571D01*
X97127142Y-90225714D02*
X97198571Y-90368571D01*
X97198571Y-90725714D01*
X97127142Y-90868571D01*
X96984285Y-90940000D01*
X96841428Y-90940000D01*
X96698571Y-90868571D01*
X96627142Y-90725714D01*
X96627142Y-90368571D01*
X96555714Y-90225714D01*
X97198571Y-89511428D02*
X96198571Y-89511428D01*
X96341428Y-89511428D02*
X96270000Y-89440000D01*
X96198571Y-89297142D01*
X96198571Y-89082857D01*
X96270000Y-88940000D01*
X96412857Y-88868571D01*
X97198571Y-88868571D01*
X96412857Y-88868571D02*
X96270000Y-88797142D01*
X96198571Y-88654285D01*
X96198571Y-88440000D01*
X96270000Y-88297142D01*
X96412857Y-88225714D01*
X97198571Y-88225714D01*
X96198571Y-87511428D02*
X97698571Y-87511428D01*
X96270000Y-87511428D02*
X96198571Y-87368571D01*
X96198571Y-87082857D01*
X96270000Y-86940000D01*
X96341428Y-86868571D01*
X96484285Y-86797142D01*
X96912857Y-86797142D01*
X97055714Y-86868571D01*
X97127142Y-86940000D01*
X97198571Y-87082857D01*
X97198571Y-87368571D01*
X97127142Y-87511428D01*
X97198571Y-85011428D02*
X95698571Y-85011428D01*
X95698571Y-84654285D01*
X95770000Y-84440000D01*
X95912857Y-84297142D01*
X96055714Y-84225714D01*
X96341428Y-84154285D01*
X96555714Y-84154285D01*
X96841428Y-84225714D01*
X96984285Y-84297142D01*
X97127142Y-84440000D01*
X97198571Y-84654285D01*
X97198571Y-85011428D01*
X96412857Y-83011428D02*
X96484285Y-82797142D01*
X96555714Y-82725714D01*
X96698571Y-82654285D01*
X96912857Y-82654285D01*
X97055714Y-82725714D01*
X97127142Y-82797142D01*
X97198571Y-82940000D01*
X97198571Y-83511428D01*
X95698571Y-83511428D01*
X95698571Y-83011428D01*
X95770000Y-82868571D01*
X95841428Y-82797142D01*
X95984285Y-82725714D01*
X96127142Y-82725714D01*
X96270000Y-82797142D01*
X96341428Y-82868571D01*
X96412857Y-83011428D01*
X96412857Y-83511428D01*
X96627142Y-82011428D02*
X96627142Y-80868571D01*
X95841428Y-80225714D02*
X95770000Y-80154285D01*
X95698571Y-80011428D01*
X95698571Y-79654285D01*
X95770000Y-79511428D01*
X95841428Y-79440000D01*
X95984285Y-79368571D01*
X96127142Y-79368571D01*
X96341428Y-79440000D01*
X97198571Y-80297142D01*
X97198571Y-79368571D01*
X95698571Y-78011428D02*
X95698571Y-78725714D01*
X96412857Y-78797142D01*
X96341428Y-78725714D01*
X96270000Y-78582857D01*
X96270000Y-78225714D01*
X96341428Y-78082857D01*
X96412857Y-78011428D01*
X96555714Y-77940000D01*
X96912857Y-77940000D01*
X97055714Y-78011428D01*
X97127142Y-78082857D01*
X97198571Y-78225714D01*
X97198571Y-78582857D01*
X97127142Y-78725714D01*
X97055714Y-78797142D01*
X97770000Y-75725714D02*
X97698571Y-75797142D01*
X97484285Y-75940000D01*
X97341428Y-76011428D01*
X97127142Y-76082857D01*
X96770000Y-76154285D01*
X96484285Y-76154285D01*
X96127142Y-76082857D01*
X95912857Y-76011428D01*
X95770000Y-75940000D01*
X95555714Y-75797142D01*
X95484285Y-75725714D01*
X96341428Y-74940000D02*
X96270000Y-75082857D01*
X96198571Y-75154285D01*
X96055714Y-75225714D01*
X95984285Y-75225714D01*
X95841428Y-75154285D01*
X95770000Y-75082857D01*
X95698571Y-74940000D01*
X95698571Y-74654285D01*
X95770000Y-74511428D01*
X95841428Y-74440000D01*
X95984285Y-74368571D01*
X96055714Y-74368571D01*
X96198571Y-74440000D01*
X96270000Y-74511428D01*
X96341428Y-74654285D01*
X96341428Y-74940000D01*
X96412857Y-75082857D01*
X96484285Y-75154285D01*
X96627142Y-75225714D01*
X96912857Y-75225714D01*
X97055714Y-75154285D01*
X97127142Y-75082857D01*
X97198571Y-74940000D01*
X97198571Y-74654285D01*
X97127142Y-74511428D01*
X97055714Y-74440000D01*
X96912857Y-74368571D01*
X96627142Y-74368571D01*
X96484285Y-74440000D01*
X96412857Y-74511428D01*
X96341428Y-74654285D01*
X97198571Y-72582857D02*
X95698571Y-72582857D01*
X96270000Y-72582857D02*
X96198571Y-72440000D01*
X96198571Y-72154285D01*
X96270000Y-72011428D01*
X96341428Y-71940000D01*
X96484285Y-71868571D01*
X96912857Y-71868571D01*
X97055714Y-71940000D01*
X97127142Y-72011428D01*
X97198571Y-72154285D01*
X97198571Y-72440000D01*
X97127142Y-72582857D01*
X97198571Y-71225714D02*
X96198571Y-71225714D01*
X95698571Y-71225714D02*
X95770000Y-71297142D01*
X95841428Y-71225714D01*
X95770000Y-71154285D01*
X95698571Y-71225714D01*
X95841428Y-71225714D01*
X96198571Y-70725714D02*
X96198571Y-70154285D01*
X95698571Y-70511428D02*
X96984285Y-70511428D01*
X97127142Y-70440000D01*
X97198571Y-70297142D01*
X97198571Y-70154285D01*
X97127142Y-69725714D02*
X97198571Y-69582857D01*
X97198571Y-69297142D01*
X97127142Y-69154285D01*
X96984285Y-69082857D01*
X96912857Y-69082857D01*
X96770000Y-69154285D01*
X96698571Y-69297142D01*
X96698571Y-69511428D01*
X96627142Y-69654285D01*
X96484285Y-69725714D01*
X96412857Y-69725714D01*
X96270000Y-69654285D01*
X96198571Y-69511428D01*
X96198571Y-69297142D01*
X96270000Y-69154285D01*
X97770000Y-68582857D02*
X97698571Y-68511428D01*
X97484285Y-68368571D01*
X97341428Y-68297142D01*
X97127142Y-68225714D01*
X96770000Y-68154285D01*
X96484285Y-68154285D01*
X96127142Y-68225714D01*
X95912857Y-68297142D01*
X95770000Y-68368571D01*
X95555714Y-68511428D01*
X95484285Y-68582857D01*
D11*
%TO.C,J2*%
X120885000Y-126185000D02*
X108545000Y-126185000D01*
X108545000Y-126185000D02*
X108545000Y-56665000D01*
X108545000Y-56665000D02*
X120885000Y-56665000D01*
X107650662Y-116605000D02*
X107650662Y-116105000D01*
X107650662Y-116105000D02*
X108083675Y-116355000D01*
X108083675Y-116355000D02*
X107650662Y-116605000D01*
%TO.C,J1*%
X95296325Y-74930000D02*
X95729338Y-74680000D01*
X95729338Y-75180000D02*
X95296325Y-74930000D01*
X95729338Y-74680000D02*
X95729338Y-75180000D01*
X94835000Y-118160000D02*
X84355000Y-118160000D01*
X94835000Y-64940000D02*
X94835000Y-118160000D01*
X84355000Y-64940000D02*
X94835000Y-64940000D01*
%TO.C,H2*%
D10*
X100838095Y-122372380D02*
X100838095Y-121372380D01*
X100838095Y-121848571D02*
X101409523Y-121848571D01*
X101409523Y-122372380D02*
X101409523Y-121372380D01*
X101838095Y-121467619D02*
X101885714Y-121420000D01*
X101980952Y-121372380D01*
X102219047Y-121372380D01*
X102314285Y-121420000D01*
X102361904Y-121467619D01*
X102409523Y-121562857D01*
X102409523Y-121658095D01*
X102361904Y-121800952D01*
X101790476Y-122372380D01*
X102409523Y-122372380D01*
%TO.C,H1*%
X100838095Y-61412380D02*
X100838095Y-60412380D01*
X100838095Y-60888571D02*
X101409523Y-60888571D01*
X101409523Y-61412380D02*
X101409523Y-60412380D01*
X102409523Y-61412380D02*
X101838095Y-61412380D01*
X102123809Y-61412380D02*
X102123809Y-60412380D01*
X102028571Y-60555238D01*
X101933333Y-60650476D01*
X101838095Y-60698095D01*
%TO.C,J2*%
X107057380Y-124793333D02*
X107771666Y-124793333D01*
X107914523Y-124840952D01*
X108009761Y-124936190D01*
X108057380Y-125079047D01*
X108057380Y-125174285D01*
X107152619Y-124364761D02*
X107105000Y-124317142D01*
X107057380Y-124221904D01*
X107057380Y-123983809D01*
X107105000Y-123888571D01*
X107152619Y-123840952D01*
X107247857Y-123793333D01*
X107343095Y-123793333D01*
X107485952Y-123840952D01*
X108057380Y-124412380D01*
X108057380Y-123793333D01*
%TO.C,J1*%
X85812380Y-119713333D02*
X86526666Y-119713333D01*
X86669523Y-119760952D01*
X86764761Y-119856190D01*
X86812380Y-119999047D01*
X86812380Y-120094285D01*
X86812380Y-118713333D02*
X86812380Y-119284761D01*
X86812380Y-118999047D02*
X85812380Y-118999047D01*
X85955238Y-119094285D01*
X86050476Y-119189523D01*
X86098095Y-119284761D01*
%TD*%
M02*
