M48
; DRILL file {KiCad 5.1.9-73d0e3b20d~88~ubuntu18.04.1} date Mon Sep 13 22:15:03 2021
; FORMAT={-:-/ absolute / inch / decimal}
; #@! TF.CreationDate,2021-09-13T22:15:03-04:00
; #@! TF.GenerationSoftware,Kicad,Pcbnew,5.1.9-73d0e3b20d~88~ubuntu18.04.1
; #@! TF.FileFunction,Plated,1,2,PTH
FMAT,2
INCH
T1C0.0157
T2C0.0394
T3C0.1260
%
G90
G05
T1
X3.95Y-3.825
X4.0715Y-3.9
X4.1Y-4.025
X4.15Y-4.125
X4.1929Y-4.25
X4.2215Y-4.35
X4.2465Y-4.425
T2
X3.5132Y-3.0045
X3.5132Y-3.1136
X3.5132Y-3.2226
X3.5132Y-3.3317
X3.5132Y-3.4407
X3.5132Y-3.5498
X3.5132Y-3.6589
X3.5132Y-3.7679
X3.5132Y-3.877
X3.5132Y-3.986
X3.5132Y-4.0951
X3.5132Y-4.2041
X3.625Y-2.95
X3.625Y-3.0591
X3.625Y-3.1681
X3.625Y-3.2772
X3.625Y-3.3862
X3.625Y-3.4953
X3.625Y-3.6043
X3.625Y-3.7134
X3.625Y-3.8224
X3.625Y-3.9315
X3.625Y-4.0406
X3.625Y-4.1496
X3.625Y-4.2587
X4.3467Y-2.6179
X4.3467Y-2.727
X4.3467Y-2.836
X4.3467Y-2.9451
X4.3467Y-3.0541
X4.3467Y-3.1632
X4.3467Y-3.2722
X4.3467Y-3.3813
X4.3467Y-3.4904
X4.3467Y-3.5994
X4.3467Y-3.7085
X4.3467Y-3.8175
X4.3467Y-3.9266
X4.3467Y-4.0356
X4.3467Y-4.1447
X4.3467Y-4.2537
X4.3467Y-4.3628
X4.3467Y-4.4719
X4.3467Y-4.5809
X4.4585Y-2.6724
X4.4585Y-2.7815
X4.4585Y-2.8906
X4.4585Y-2.9996
X4.4585Y-3.1087
X4.4585Y-3.2177
X4.4585Y-3.3268
X4.4585Y-3.4358
X4.4585Y-3.5449
X4.4585Y-3.6539
X4.4585Y-3.763
X4.4585Y-3.872
X4.4585Y-3.9811
X4.4585Y-4.0902
X4.4585Y-4.1992
X4.4585Y-4.3083
X4.4585Y-4.4173
X4.4585Y-4.5264
T3
X3.6132Y-2.6772
X3.6132Y-4.5315
X4.4026Y-2.3494
X4.4026Y-4.8494
T0
M30
