%TF.GenerationSoftware,KiCad,Pcbnew,5.1.9-73d0e3b20d~88~ubuntu18.04.1*%
%TF.CreationDate,2021-09-13T22:15:05-04:00*%
%TF.ProjectId,adapter,61646170-7465-4722-9e6b-696361645f70,rev?*%
%TF.SameCoordinates,Original*%
%TF.FileFunction,Soldermask,Bot*%
%TF.FilePolarity,Negative*%
%FSLAX46Y46*%
G04 Gerber Fmt 4.6, Leading zero omitted, Abs format (unit mm)*
G04 Created by KiCad (PCBNEW 5.1.9-73d0e3b20d~88~ubuntu18.04.1) date 2021-09-13 22:15:05*
%MOMM*%
%LPD*%
G01*
G04 APERTURE LIST*
%ADD10C,3.200000*%
%ADD11C,4.000000*%
%ADD12C,1.600000*%
%ADD13R,1.600000X1.600000*%
G04 APERTURE END LIST*
D10*
%TO.C,H2*%
X101600000Y-121920000D03*
%TD*%
%TO.C,H1*%
X101600000Y-60960000D03*
%TD*%
D11*
%TO.C,J2*%
X111825000Y-59675000D03*
X111825000Y-123175000D03*
D12*
X113245000Y-67880000D03*
X113245000Y-70650000D03*
X113245000Y-73420000D03*
X113245000Y-76190000D03*
X113245000Y-78960000D03*
X113245000Y-81730000D03*
X113245000Y-84500000D03*
X113245000Y-87270000D03*
X113245000Y-90040000D03*
X113245000Y-92810000D03*
X113245000Y-95580000D03*
X113245000Y-98350000D03*
X113245000Y-101120000D03*
X113245000Y-103890000D03*
X113245000Y-106660000D03*
X113245000Y-109430000D03*
X113245000Y-112200000D03*
X113245000Y-114970000D03*
X110405000Y-66495000D03*
X110405000Y-69265000D03*
X110405000Y-72035000D03*
X110405000Y-74805000D03*
X110405000Y-77575000D03*
X110405000Y-80345000D03*
X110405000Y-83115000D03*
X110405000Y-85885000D03*
X110405000Y-88655000D03*
X110405000Y-91425000D03*
X110405000Y-94195000D03*
X110405000Y-96965000D03*
X110405000Y-99735000D03*
X110405000Y-102505000D03*
X110405000Y-105275000D03*
X110405000Y-108045000D03*
X110405000Y-110815000D03*
X110405000Y-113585000D03*
D13*
X110405000Y-116355000D03*
%TD*%
D11*
%TO.C,J1*%
X91775000Y-115100000D03*
X91775000Y-68000000D03*
D12*
X89235000Y-106785000D03*
X89235000Y-104015000D03*
X89235000Y-101245000D03*
X89235000Y-98475000D03*
X89235000Y-95705000D03*
X89235000Y-92935000D03*
X89235000Y-90165000D03*
X89235000Y-87395000D03*
X89235000Y-84625000D03*
X89235000Y-81855000D03*
X89235000Y-79085000D03*
X89235000Y-76315000D03*
X92075000Y-108170000D03*
X92075000Y-105400000D03*
X92075000Y-102630000D03*
X92075000Y-99860000D03*
X92075000Y-97090000D03*
X92075000Y-94320000D03*
X92075000Y-91550000D03*
X92075000Y-88780000D03*
X92075000Y-86010000D03*
X92075000Y-83240000D03*
X92075000Y-80470000D03*
X92075000Y-77700000D03*
D13*
X92075000Y-74930000D03*
%TD*%
M02*
