%TF.GenerationSoftware,KiCad,Pcbnew,5.1.9-73d0e3b20d~88~ubuntu18.04.1*%
%TF.CreationDate,2021-09-13T22:15:05-04:00*%
%TF.ProjectId,adapter,61646170-7465-4722-9e6b-696361645f70,rev?*%
%TF.SameCoordinates,Original*%
%TF.FileFunction,Legend,Bot*%
%TF.FilePolarity,Positive*%
%FSLAX46Y46*%
G04 Gerber Fmt 4.6, Leading zero omitted, Abs format (unit mm)*
G04 Created by KiCad (PCBNEW 5.1.9-73d0e3b20d~88~ubuntu18.04.1) date 2021-09-13 22:15:05*
%MOMM*%
%LPD*%
G01*
G04 APERTURE LIST*
%ADD10C,0.150000*%
G04 APERTURE END LIST*
D10*
X101138095Y-69570952D02*
X99838095Y-69570952D01*
X99838095Y-69832857D01*
X99900000Y-69990000D01*
X100023809Y-70094761D01*
X100147619Y-70147142D01*
X100395238Y-70199523D01*
X100580952Y-70199523D01*
X100828571Y-70147142D01*
X100952380Y-70094761D01*
X101076190Y-69990000D01*
X101138095Y-69832857D01*
X101138095Y-69570952D01*
X101076190Y-71090000D02*
X101138095Y-70985238D01*
X101138095Y-70775714D01*
X101076190Y-70670952D01*
X100952380Y-70618571D01*
X100457142Y-70618571D01*
X100333333Y-70670952D01*
X100271428Y-70775714D01*
X100271428Y-70985238D01*
X100333333Y-71090000D01*
X100457142Y-71142380D01*
X100580952Y-71142380D01*
X100704761Y-70618571D01*
X101076190Y-71561428D02*
X101138095Y-71666190D01*
X101138095Y-71875714D01*
X101076190Y-71980476D01*
X100952380Y-72032857D01*
X100890476Y-72032857D01*
X100766666Y-71980476D01*
X100704761Y-71875714D01*
X100704761Y-71718571D01*
X100642857Y-71613809D01*
X100519047Y-71561428D01*
X100457142Y-71561428D01*
X100333333Y-71613809D01*
X100271428Y-71718571D01*
X100271428Y-71875714D01*
X100333333Y-71980476D01*
X101138095Y-72504285D02*
X100271428Y-72504285D01*
X99838095Y-72504285D02*
X99900000Y-72451904D01*
X99961904Y-72504285D01*
X99900000Y-72556666D01*
X99838095Y-72504285D01*
X99961904Y-72504285D01*
X100271428Y-73499523D02*
X101323809Y-73499523D01*
X101447619Y-73447142D01*
X101509523Y-73394761D01*
X101571428Y-73290000D01*
X101571428Y-73132857D01*
X101509523Y-73028095D01*
X101076190Y-73499523D02*
X101138095Y-73394761D01*
X101138095Y-73185238D01*
X101076190Y-73080476D01*
X101014285Y-73028095D01*
X100890476Y-72975714D01*
X100519047Y-72975714D01*
X100395238Y-73028095D01*
X100333333Y-73080476D01*
X100271428Y-73185238D01*
X100271428Y-73394761D01*
X100333333Y-73499523D01*
X100271428Y-74023333D02*
X101138095Y-74023333D01*
X100395238Y-74023333D02*
X100333333Y-74075714D01*
X100271428Y-74180476D01*
X100271428Y-74337619D01*
X100333333Y-74442380D01*
X100457142Y-74494761D01*
X101138095Y-74494761D01*
X101076190Y-75437619D02*
X101138095Y-75332857D01*
X101138095Y-75123333D01*
X101076190Y-75018571D01*
X100952380Y-74966190D01*
X100457142Y-74966190D01*
X100333333Y-75018571D01*
X100271428Y-75123333D01*
X100271428Y-75332857D01*
X100333333Y-75437619D01*
X100457142Y-75490000D01*
X100580952Y-75490000D01*
X100704761Y-74966190D01*
X101138095Y-76432857D02*
X99838095Y-76432857D01*
X101076190Y-76432857D02*
X101138095Y-76328095D01*
X101138095Y-76118571D01*
X101076190Y-76013809D01*
X101014285Y-75961428D01*
X100890476Y-75909047D01*
X100519047Y-75909047D01*
X100395238Y-75961428D01*
X100333333Y-76013809D01*
X100271428Y-76118571D01*
X100271428Y-76328095D01*
X100333333Y-76432857D01*
X101138095Y-77794761D02*
X99838095Y-77794761D01*
X100333333Y-77794761D02*
X100271428Y-77899523D01*
X100271428Y-78109047D01*
X100333333Y-78213809D01*
X100395238Y-78266190D01*
X100519047Y-78318571D01*
X100890476Y-78318571D01*
X101014285Y-78266190D01*
X101076190Y-78213809D01*
X101138095Y-78109047D01*
X101138095Y-77899523D01*
X101076190Y-77794761D01*
X100271428Y-78685238D02*
X101138095Y-78947142D01*
X100271428Y-79209047D02*
X101138095Y-78947142D01*
X101447619Y-78842380D01*
X101509523Y-78790000D01*
X101571428Y-78685238D01*
X101138095Y-81094761D02*
X100519047Y-80728095D01*
X101138095Y-80466190D02*
X99838095Y-80466190D01*
X99838095Y-80885238D01*
X99900000Y-80990000D01*
X99961904Y-81042380D01*
X100085714Y-81094761D01*
X100271428Y-81094761D01*
X100395238Y-81042380D01*
X100457142Y-80990000D01*
X100519047Y-80885238D01*
X100519047Y-80466190D01*
X101138095Y-81723333D02*
X101076190Y-81618571D01*
X101014285Y-81566190D01*
X100890476Y-81513809D01*
X100519047Y-81513809D01*
X100395238Y-81566190D01*
X100333333Y-81618571D01*
X100271428Y-81723333D01*
X100271428Y-81880476D01*
X100333333Y-81985238D01*
X100395238Y-82037619D01*
X100519047Y-82090000D01*
X100890476Y-82090000D01*
X101014285Y-82037619D01*
X101076190Y-81985238D01*
X101138095Y-81880476D01*
X101138095Y-81723333D01*
X101076190Y-82509047D02*
X101138095Y-82613809D01*
X101138095Y-82823333D01*
X101076190Y-82928095D01*
X100952380Y-82980476D01*
X100890476Y-82980476D01*
X100766666Y-82928095D01*
X100704761Y-82823333D01*
X100704761Y-82666190D01*
X100642857Y-82561428D01*
X100519047Y-82509047D01*
X100457142Y-82509047D01*
X100333333Y-82561428D01*
X100271428Y-82666190D01*
X100271428Y-82823333D01*
X100333333Y-82928095D01*
X101076190Y-83399523D02*
X101138095Y-83504285D01*
X101138095Y-83713809D01*
X101076190Y-83818571D01*
X100952380Y-83870952D01*
X100890476Y-83870952D01*
X100766666Y-83818571D01*
X100704761Y-83713809D01*
X100704761Y-83556666D01*
X100642857Y-83451904D01*
X100519047Y-83399523D01*
X100457142Y-83399523D01*
X100333333Y-83451904D01*
X100271428Y-83556666D01*
X100271428Y-83713809D01*
X100333333Y-83818571D01*
X101138095Y-85180476D02*
X99838095Y-85180476D01*
X100766666Y-85547142D01*
X99838095Y-85913809D01*
X101138095Y-85913809D01*
X101138095Y-86909047D02*
X100457142Y-86909047D01*
X100333333Y-86856666D01*
X100271428Y-86751904D01*
X100271428Y-86542380D01*
X100333333Y-86437619D01*
X101076190Y-86909047D02*
X101138095Y-86804285D01*
X101138095Y-86542380D01*
X101076190Y-86437619D01*
X100952380Y-86385238D01*
X100828571Y-86385238D01*
X100704761Y-86437619D01*
X100642857Y-86542380D01*
X100642857Y-86804285D01*
X100580952Y-86909047D01*
X101138095Y-87904285D02*
X99838095Y-87904285D01*
X101076190Y-87904285D02*
X101138095Y-87799523D01*
X101138095Y-87590000D01*
X101076190Y-87485238D01*
X101014285Y-87432857D01*
X100890476Y-87380476D01*
X100519047Y-87380476D01*
X100395238Y-87432857D01*
X100333333Y-87485238D01*
X100271428Y-87590000D01*
X100271428Y-87799523D01*
X100333333Y-87904285D01*
X101138095Y-88899523D02*
X99838095Y-88899523D01*
X101076190Y-88899523D02*
X101138095Y-88794761D01*
X101138095Y-88585238D01*
X101076190Y-88480476D01*
X101014285Y-88428095D01*
X100890476Y-88375714D01*
X100519047Y-88375714D01*
X100395238Y-88428095D01*
X100333333Y-88480476D01*
X100271428Y-88585238D01*
X100271428Y-88794761D01*
X100333333Y-88899523D01*
X101138095Y-89580476D02*
X101076190Y-89475714D01*
X101014285Y-89423333D01*
X100890476Y-89370952D01*
X100519047Y-89370952D01*
X100395238Y-89423333D01*
X100333333Y-89475714D01*
X100271428Y-89580476D01*
X100271428Y-89737619D01*
X100333333Y-89842380D01*
X100395238Y-89894761D01*
X100519047Y-89947142D01*
X100890476Y-89947142D01*
X101014285Y-89894761D01*
X101076190Y-89842380D01*
X101138095Y-89737619D01*
X101138095Y-89580476D01*
X101138095Y-90313809D02*
X100271428Y-90890000D01*
X100271428Y-90313809D02*
X101138095Y-90890000D01*
X100519047Y-92828095D02*
X100457142Y-92775714D01*
X100395238Y-92670952D01*
X100395238Y-92566190D01*
X100457142Y-92461428D01*
X100519047Y-92409047D01*
X100642857Y-92356666D01*
X100766666Y-92356666D01*
X100890476Y-92409047D01*
X100952380Y-92461428D01*
X101014285Y-92566190D01*
X101014285Y-92670952D01*
X100952380Y-92775714D01*
X100890476Y-92828095D01*
X100395238Y-92828095D02*
X100890476Y-92828095D01*
X100952380Y-92880476D01*
X100952380Y-92932857D01*
X100890476Y-93037619D01*
X100766666Y-93090000D01*
X100457142Y-93090000D01*
X100271428Y-92985238D01*
X100147619Y-92828095D01*
X100085714Y-92618571D01*
X100147619Y-92409047D01*
X100271428Y-92251904D01*
X100457142Y-92147142D01*
X100704761Y-92094761D01*
X100952380Y-92147142D01*
X101138095Y-92251904D01*
X101261904Y-92409047D01*
X101323809Y-92618571D01*
X101261904Y-92828095D01*
X101138095Y-92985238D01*
X99838095Y-94399523D02*
X100890476Y-94399523D01*
X101014285Y-94451904D01*
X101076190Y-94504285D01*
X101138095Y-94609047D01*
X101138095Y-94818571D01*
X101076190Y-94923333D01*
X101014285Y-94975714D01*
X100890476Y-95028095D01*
X99838095Y-95028095D01*
X100271428Y-95551904D02*
X101138095Y-95551904D01*
X100395238Y-95551904D02*
X100333333Y-95604285D01*
X100271428Y-95709047D01*
X100271428Y-95866190D01*
X100333333Y-95970952D01*
X100457142Y-96023333D01*
X101138095Y-96023333D01*
X101138095Y-96547142D02*
X100271428Y-96547142D01*
X99838095Y-96547142D02*
X99900000Y-96494761D01*
X99961904Y-96547142D01*
X99900000Y-96599523D01*
X99838095Y-96547142D01*
X99961904Y-96547142D01*
X100271428Y-96966190D02*
X101138095Y-97228095D01*
X100271428Y-97490000D01*
X101076190Y-98328095D02*
X101138095Y-98223333D01*
X101138095Y-98013809D01*
X101076190Y-97909047D01*
X100952380Y-97856666D01*
X100457142Y-97856666D01*
X100333333Y-97909047D01*
X100271428Y-98013809D01*
X100271428Y-98223333D01*
X100333333Y-98328095D01*
X100457142Y-98380476D01*
X100580952Y-98380476D01*
X100704761Y-97856666D01*
X101138095Y-98851904D02*
X100271428Y-98851904D01*
X100519047Y-98851904D02*
X100395238Y-98904285D01*
X100333333Y-98956666D01*
X100271428Y-99061428D01*
X100271428Y-99166190D01*
X101076190Y-99480476D02*
X101138095Y-99585238D01*
X101138095Y-99794761D01*
X101076190Y-99899523D01*
X100952380Y-99951904D01*
X100890476Y-99951904D01*
X100766666Y-99899523D01*
X100704761Y-99794761D01*
X100704761Y-99637619D01*
X100642857Y-99532857D01*
X100519047Y-99480476D01*
X100457142Y-99480476D01*
X100333333Y-99532857D01*
X100271428Y-99637619D01*
X100271428Y-99794761D01*
X100333333Y-99899523D01*
X101138095Y-100423333D02*
X100271428Y-100423333D01*
X99838095Y-100423333D02*
X99900000Y-100370952D01*
X99961904Y-100423333D01*
X99900000Y-100475714D01*
X99838095Y-100423333D01*
X99961904Y-100423333D01*
X100271428Y-100790000D02*
X100271428Y-101209047D01*
X99838095Y-100947142D02*
X100952380Y-100947142D01*
X101076190Y-100999523D01*
X101138095Y-101104285D01*
X101138095Y-101209047D01*
X100271428Y-101470952D02*
X101138095Y-101732857D01*
X100271428Y-101994761D02*
X101138095Y-101732857D01*
X101447619Y-101628095D01*
X101509523Y-101575714D01*
X101571428Y-101470952D01*
X101138095Y-103409047D02*
X101076190Y-103304285D01*
X101014285Y-103251904D01*
X100890476Y-103199523D01*
X100519047Y-103199523D01*
X100395238Y-103251904D01*
X100333333Y-103304285D01*
X100271428Y-103409047D01*
X100271428Y-103566190D01*
X100333333Y-103670952D01*
X100395238Y-103723333D01*
X100519047Y-103775714D01*
X100890476Y-103775714D01*
X101014285Y-103723333D01*
X101076190Y-103670952D01*
X101138095Y-103566190D01*
X101138095Y-103409047D01*
X100271428Y-104090000D02*
X100271428Y-104509047D01*
X101138095Y-104247142D02*
X100023809Y-104247142D01*
X99900000Y-104299523D01*
X99838095Y-104404285D01*
X99838095Y-104509047D01*
X101138095Y-106342380D02*
X100519047Y-105975714D01*
X101138095Y-105713809D02*
X99838095Y-105713809D01*
X99838095Y-106132857D01*
X99900000Y-106237619D01*
X99961904Y-106290000D01*
X100085714Y-106342380D01*
X100271428Y-106342380D01*
X100395238Y-106290000D01*
X100457142Y-106237619D01*
X100519047Y-106132857D01*
X100519047Y-105713809D01*
X101138095Y-106970952D02*
X101076190Y-106866190D01*
X101014285Y-106813809D01*
X100890476Y-106761428D01*
X100519047Y-106761428D01*
X100395238Y-106813809D01*
X100333333Y-106866190D01*
X100271428Y-106970952D01*
X100271428Y-107128095D01*
X100333333Y-107232857D01*
X100395238Y-107285238D01*
X100519047Y-107337619D01*
X100890476Y-107337619D01*
X101014285Y-107285238D01*
X101076190Y-107232857D01*
X101138095Y-107128095D01*
X101138095Y-106970952D01*
X101076190Y-108280476D02*
X101138095Y-108175714D01*
X101138095Y-107966190D01*
X101076190Y-107861428D01*
X101014285Y-107809047D01*
X100890476Y-107756666D01*
X100519047Y-107756666D01*
X100395238Y-107809047D01*
X100333333Y-107861428D01*
X100271428Y-107966190D01*
X100271428Y-108175714D01*
X100333333Y-108280476D01*
X101138095Y-108751904D02*
X99838095Y-108751904D01*
X101138095Y-109223333D02*
X100457142Y-109223333D01*
X100333333Y-109170952D01*
X100271428Y-109066190D01*
X100271428Y-108909047D01*
X100333333Y-108804285D01*
X100395238Y-108751904D01*
X101076190Y-110166190D02*
X101138095Y-110061428D01*
X101138095Y-109851904D01*
X101076190Y-109747142D01*
X100952380Y-109694761D01*
X100457142Y-109694761D01*
X100333333Y-109747142D01*
X100271428Y-109851904D01*
X100271428Y-110061428D01*
X100333333Y-110166190D01*
X100457142Y-110218571D01*
X100580952Y-110218571D01*
X100704761Y-109694761D01*
X101076190Y-110637619D02*
X101138095Y-110742380D01*
X101138095Y-110951904D01*
X101076190Y-111056666D01*
X100952380Y-111109047D01*
X100890476Y-111109047D01*
X100766666Y-111056666D01*
X100704761Y-110951904D01*
X100704761Y-110794761D01*
X100642857Y-110690000D01*
X100519047Y-110637619D01*
X100457142Y-110637619D01*
X100333333Y-110690000D01*
X100271428Y-110794761D01*
X100271428Y-110951904D01*
X100333333Y-111056666D01*
X100271428Y-111423333D02*
X100271428Y-111842380D01*
X99838095Y-111580476D02*
X100952380Y-111580476D01*
X101076190Y-111632857D01*
X101138095Y-111737619D01*
X101138095Y-111842380D01*
X101076190Y-112628095D02*
X101138095Y-112523333D01*
X101138095Y-112313809D01*
X101076190Y-112209047D01*
X100952380Y-112156666D01*
X100457142Y-112156666D01*
X100333333Y-112209047D01*
X100271428Y-112313809D01*
X100271428Y-112523333D01*
X100333333Y-112628095D01*
X100457142Y-112680476D01*
X100580952Y-112680476D01*
X100704761Y-112156666D01*
X101138095Y-113151904D02*
X100271428Y-113151904D01*
X100519047Y-113151904D02*
X100395238Y-113204285D01*
X100333333Y-113256666D01*
X100271428Y-113361428D01*
X100271428Y-113466190D01*
X103238095Y-66768571D02*
X101938095Y-66768571D01*
X101938095Y-67030476D01*
X102000000Y-67187619D01*
X102123809Y-67292380D01*
X102247619Y-67344761D01*
X102495238Y-67397142D01*
X102680952Y-67397142D01*
X102928571Y-67344761D01*
X103052380Y-67292380D01*
X103176190Y-67187619D01*
X103238095Y-67030476D01*
X103238095Y-66768571D01*
X103176190Y-68287619D02*
X103238095Y-68182857D01*
X103238095Y-67973333D01*
X103176190Y-67868571D01*
X103052380Y-67816190D01*
X102557142Y-67816190D01*
X102433333Y-67868571D01*
X102371428Y-67973333D01*
X102371428Y-68182857D01*
X102433333Y-68287619D01*
X102557142Y-68340000D01*
X102680952Y-68340000D01*
X102804761Y-67816190D01*
X103176190Y-68759047D02*
X103238095Y-68863809D01*
X103238095Y-69073333D01*
X103176190Y-69178095D01*
X103052380Y-69230476D01*
X102990476Y-69230476D01*
X102866666Y-69178095D01*
X102804761Y-69073333D01*
X102804761Y-68916190D01*
X102742857Y-68811428D01*
X102619047Y-68759047D01*
X102557142Y-68759047D01*
X102433333Y-68811428D01*
X102371428Y-68916190D01*
X102371428Y-69073333D01*
X102433333Y-69178095D01*
X103238095Y-69701904D02*
X102371428Y-69701904D01*
X101938095Y-69701904D02*
X102000000Y-69649523D01*
X102061904Y-69701904D01*
X102000000Y-69754285D01*
X101938095Y-69701904D01*
X102061904Y-69701904D01*
X102371428Y-70697142D02*
X103423809Y-70697142D01*
X103547619Y-70644761D01*
X103609523Y-70592380D01*
X103671428Y-70487619D01*
X103671428Y-70330476D01*
X103609523Y-70225714D01*
X103176190Y-70697142D02*
X103238095Y-70592380D01*
X103238095Y-70382857D01*
X103176190Y-70278095D01*
X103114285Y-70225714D01*
X102990476Y-70173333D01*
X102619047Y-70173333D01*
X102495238Y-70225714D01*
X102433333Y-70278095D01*
X102371428Y-70382857D01*
X102371428Y-70592380D01*
X102433333Y-70697142D01*
X102371428Y-71220952D02*
X103238095Y-71220952D01*
X102495238Y-71220952D02*
X102433333Y-71273333D01*
X102371428Y-71378095D01*
X102371428Y-71535238D01*
X102433333Y-71640000D01*
X102557142Y-71692380D01*
X103238095Y-71692380D01*
X102371428Y-72897142D02*
X102371428Y-73316190D01*
X103238095Y-73054285D02*
X102123809Y-73054285D01*
X102000000Y-73106666D01*
X101938095Y-73211428D01*
X101938095Y-73316190D01*
X103238095Y-73682857D02*
X102371428Y-73682857D01*
X101938095Y-73682857D02*
X102000000Y-73630476D01*
X102061904Y-73682857D01*
X102000000Y-73735238D01*
X101938095Y-73682857D01*
X102061904Y-73682857D01*
X103238095Y-74363809D02*
X103176190Y-74259047D01*
X103052380Y-74206666D01*
X101938095Y-74206666D01*
X103176190Y-75201904D02*
X103238095Y-75097142D01*
X103238095Y-74887619D01*
X103176190Y-74782857D01*
X103052380Y-74730476D01*
X102557142Y-74730476D01*
X102433333Y-74782857D01*
X102371428Y-74887619D01*
X102371428Y-75097142D01*
X102433333Y-75201904D01*
X102557142Y-75254285D01*
X102680952Y-75254285D01*
X102804761Y-74730476D01*
X103176190Y-75673333D02*
X103238095Y-75778095D01*
X103238095Y-75987619D01*
X103176190Y-76092380D01*
X103052380Y-76144761D01*
X102990476Y-76144761D01*
X102866666Y-76092380D01*
X102804761Y-75987619D01*
X102804761Y-75830476D01*
X102742857Y-75725714D01*
X102619047Y-75673333D01*
X102557142Y-75673333D01*
X102433333Y-75725714D01*
X102371428Y-75830476D01*
X102371428Y-75987619D01*
X102433333Y-76092380D01*
X103176190Y-76668571D02*
X103238095Y-76668571D01*
X103361904Y-76616190D01*
X103423809Y-76563809D01*
X103238095Y-78449523D02*
X101938095Y-78449523D01*
X103176190Y-78449523D02*
X103238095Y-78344761D01*
X103238095Y-78135238D01*
X103176190Y-78030476D01*
X103114285Y-77978095D01*
X102990476Y-77925714D01*
X102619047Y-77925714D01*
X102495238Y-77978095D01*
X102433333Y-78030476D01*
X102371428Y-78135238D01*
X102371428Y-78344761D01*
X102433333Y-78449523D01*
X103238095Y-79130476D02*
X103176190Y-79025714D01*
X103114285Y-78973333D01*
X102990476Y-78920952D01*
X102619047Y-78920952D01*
X102495238Y-78973333D01*
X102433333Y-79025714D01*
X102371428Y-79130476D01*
X102371428Y-79287619D01*
X102433333Y-79392380D01*
X102495238Y-79444761D01*
X102619047Y-79497142D01*
X102990476Y-79497142D01*
X103114285Y-79444761D01*
X103176190Y-79392380D01*
X103238095Y-79287619D01*
X103238095Y-79130476D01*
X103176190Y-80440000D02*
X103238095Y-80335238D01*
X103238095Y-80125714D01*
X103176190Y-80020952D01*
X103114285Y-79968571D01*
X102990476Y-79916190D01*
X102619047Y-79916190D01*
X102495238Y-79968571D01*
X102433333Y-80020952D01*
X102371428Y-80125714D01*
X102371428Y-80335238D01*
X102433333Y-80440000D01*
X103176190Y-80859047D02*
X103238095Y-80963809D01*
X103238095Y-81173333D01*
X103176190Y-81278095D01*
X103052380Y-81330476D01*
X102990476Y-81330476D01*
X102866666Y-81278095D01*
X102804761Y-81173333D01*
X102804761Y-81016190D01*
X102742857Y-80911428D01*
X102619047Y-80859047D01*
X102557142Y-80859047D01*
X102433333Y-80911428D01*
X102371428Y-81016190D01*
X102371428Y-81173333D01*
X102433333Y-81278095D01*
X103238095Y-83111428D02*
X102557142Y-83111428D01*
X102433333Y-83059047D01*
X102371428Y-82954285D01*
X102371428Y-82744761D01*
X102433333Y-82640000D01*
X103176190Y-83111428D02*
X103238095Y-83006666D01*
X103238095Y-82744761D01*
X103176190Y-82640000D01*
X103052380Y-82587619D01*
X102928571Y-82587619D01*
X102804761Y-82640000D01*
X102742857Y-82744761D01*
X102742857Y-83006666D01*
X102680952Y-83111428D01*
X102371428Y-83478095D02*
X102371428Y-83897142D01*
X101938095Y-83635238D02*
X103052380Y-83635238D01*
X103176190Y-83687619D01*
X103238095Y-83792380D01*
X103238095Y-83897142D01*
X102371428Y-85573333D02*
X103423809Y-85573333D01*
X103547619Y-85520952D01*
X103609523Y-85468571D01*
X103671428Y-85363809D01*
X103671428Y-85206666D01*
X103609523Y-85101904D01*
X103176190Y-85573333D02*
X103238095Y-85468571D01*
X103238095Y-85259047D01*
X103176190Y-85154285D01*
X103114285Y-85101904D01*
X102990476Y-85049523D01*
X102619047Y-85049523D01*
X102495238Y-85101904D01*
X102433333Y-85154285D01*
X102371428Y-85259047D01*
X102371428Y-85468571D01*
X102433333Y-85573333D01*
X103238095Y-86097142D02*
X102371428Y-86097142D01*
X101938095Y-86097142D02*
X102000000Y-86044761D01*
X102061904Y-86097142D01*
X102000000Y-86149523D01*
X101938095Y-86097142D01*
X102061904Y-86097142D01*
X102371428Y-86463809D02*
X102371428Y-86882857D01*
X101938095Y-86620952D02*
X103052380Y-86620952D01*
X103176190Y-86673333D01*
X103238095Y-86778095D01*
X103238095Y-86882857D01*
X103238095Y-87249523D02*
X101938095Y-87249523D01*
X103238095Y-87720952D02*
X102557142Y-87720952D01*
X102433333Y-87668571D01*
X102371428Y-87563809D01*
X102371428Y-87406666D01*
X102433333Y-87301904D01*
X102495238Y-87249523D01*
X102371428Y-88716190D02*
X103238095Y-88716190D01*
X102371428Y-88244761D02*
X103052380Y-88244761D01*
X103176190Y-88297142D01*
X103238095Y-88401904D01*
X103238095Y-88559047D01*
X103176190Y-88663809D01*
X103114285Y-88716190D01*
X103238095Y-89240000D02*
X101938095Y-89240000D01*
X102433333Y-89240000D02*
X102371428Y-89344761D01*
X102371428Y-89554285D01*
X102433333Y-89659047D01*
X102495238Y-89711428D01*
X102619047Y-89763809D01*
X102990476Y-89763809D01*
X103114285Y-89711428D01*
X103176190Y-89659047D01*
X103238095Y-89554285D01*
X103238095Y-89344761D01*
X103176190Y-89240000D01*
X103114285Y-90235238D02*
X103176190Y-90287619D01*
X103238095Y-90235238D01*
X103176190Y-90182857D01*
X103114285Y-90235238D01*
X103238095Y-90235238D01*
X103176190Y-91230476D02*
X103238095Y-91125714D01*
X103238095Y-90916190D01*
X103176190Y-90811428D01*
X103114285Y-90759047D01*
X102990476Y-90706666D01*
X102619047Y-90706666D01*
X102495238Y-90759047D01*
X102433333Y-90811428D01*
X102371428Y-90916190D01*
X102371428Y-91125714D01*
X102433333Y-91230476D01*
X103238095Y-91859047D02*
X103176190Y-91754285D01*
X103114285Y-91701904D01*
X102990476Y-91649523D01*
X102619047Y-91649523D01*
X102495238Y-91701904D01*
X102433333Y-91754285D01*
X102371428Y-91859047D01*
X102371428Y-92016190D01*
X102433333Y-92120952D01*
X102495238Y-92173333D01*
X102619047Y-92225714D01*
X102990476Y-92225714D01*
X103114285Y-92173333D01*
X103176190Y-92120952D01*
X103238095Y-92016190D01*
X103238095Y-91859047D01*
X103238095Y-92697142D02*
X102371428Y-92697142D01*
X102495238Y-92697142D02*
X102433333Y-92749523D01*
X102371428Y-92854285D01*
X102371428Y-93011428D01*
X102433333Y-93116190D01*
X102557142Y-93168571D01*
X103238095Y-93168571D01*
X102557142Y-93168571D02*
X102433333Y-93220952D01*
X102371428Y-93325714D01*
X102371428Y-93482857D01*
X102433333Y-93587619D01*
X102557142Y-93640000D01*
X103238095Y-93640000D01*
X101876190Y-94949523D02*
X103547619Y-94006666D01*
X103238095Y-95316190D02*
X102371428Y-95316190D01*
X102495238Y-95316190D02*
X102433333Y-95368571D01*
X102371428Y-95473333D01*
X102371428Y-95630476D01*
X102433333Y-95735238D01*
X102557142Y-95787619D01*
X103238095Y-95787619D01*
X102557142Y-95787619D02*
X102433333Y-95840000D01*
X102371428Y-95944761D01*
X102371428Y-96101904D01*
X102433333Y-96206666D01*
X102557142Y-96259047D01*
X103238095Y-96259047D01*
X103238095Y-97254285D02*
X102557142Y-97254285D01*
X102433333Y-97201904D01*
X102371428Y-97097142D01*
X102371428Y-96887619D01*
X102433333Y-96782857D01*
X103176190Y-97254285D02*
X103238095Y-97149523D01*
X103238095Y-96887619D01*
X103176190Y-96782857D01*
X103052380Y-96730476D01*
X102928571Y-96730476D01*
X102804761Y-96782857D01*
X102742857Y-96887619D01*
X102742857Y-97149523D01*
X102680952Y-97254285D01*
X103238095Y-98249523D02*
X101938095Y-98249523D01*
X103176190Y-98249523D02*
X103238095Y-98144761D01*
X103238095Y-97935238D01*
X103176190Y-97830476D01*
X103114285Y-97778095D01*
X102990476Y-97725714D01*
X102619047Y-97725714D01*
X102495238Y-97778095D01*
X102433333Y-97830476D01*
X102371428Y-97935238D01*
X102371428Y-98144761D01*
X102433333Y-98249523D01*
X103238095Y-99244761D02*
X101938095Y-99244761D01*
X103176190Y-99244761D02*
X103238095Y-99140000D01*
X103238095Y-98930476D01*
X103176190Y-98825714D01*
X103114285Y-98773333D01*
X102990476Y-98720952D01*
X102619047Y-98720952D01*
X102495238Y-98773333D01*
X102433333Y-98825714D01*
X102371428Y-98930476D01*
X102371428Y-99140000D01*
X102433333Y-99244761D01*
X103238095Y-99925714D02*
X103176190Y-99820952D01*
X103114285Y-99768571D01*
X102990476Y-99716190D01*
X102619047Y-99716190D01*
X102495238Y-99768571D01*
X102433333Y-99820952D01*
X102371428Y-99925714D01*
X102371428Y-100082857D01*
X102433333Y-100187619D01*
X102495238Y-100240000D01*
X102619047Y-100292380D01*
X102990476Y-100292380D01*
X103114285Y-100240000D01*
X103176190Y-100187619D01*
X103238095Y-100082857D01*
X103238095Y-99925714D01*
X103238095Y-100659047D02*
X102371428Y-101235238D01*
X102371428Y-100659047D02*
X103238095Y-101235238D01*
X103238095Y-101811428D02*
X103176190Y-101706666D01*
X103052380Y-101654285D01*
X101938095Y-101654285D01*
X103238095Y-102701904D02*
X102557142Y-102701904D01*
X102433333Y-102649523D01*
X102371428Y-102544761D01*
X102371428Y-102335238D01*
X102433333Y-102230476D01*
X103176190Y-102701904D02*
X103238095Y-102597142D01*
X103238095Y-102335238D01*
X103176190Y-102230476D01*
X103052380Y-102178095D01*
X102928571Y-102178095D01*
X102804761Y-102230476D01*
X102742857Y-102335238D01*
X102742857Y-102597142D01*
X102680952Y-102701904D01*
X103238095Y-103225714D02*
X101938095Y-103225714D01*
X102433333Y-103225714D02*
X102371428Y-103330476D01*
X102371428Y-103540000D01*
X102433333Y-103644761D01*
X102495238Y-103697142D01*
X102619047Y-103749523D01*
X102990476Y-103749523D01*
X103114285Y-103697142D01*
X103176190Y-103644761D01*
X103238095Y-103540000D01*
X103238095Y-103330476D01*
X103176190Y-103225714D01*
X101876190Y-105006666D02*
X103547619Y-104063809D01*
X103176190Y-105320952D02*
X103238095Y-105425714D01*
X103238095Y-105635238D01*
X103176190Y-105740000D01*
X103052380Y-105792380D01*
X102990476Y-105792380D01*
X102866666Y-105740000D01*
X102804761Y-105635238D01*
X102804761Y-105478095D01*
X102742857Y-105373333D01*
X102619047Y-105320952D01*
X102557142Y-105320952D01*
X102433333Y-105373333D01*
X102371428Y-105478095D01*
X102371428Y-105635238D01*
X102433333Y-105740000D01*
X102371428Y-106263809D02*
X103671428Y-106263809D01*
X102433333Y-106263809D02*
X102371428Y-106368571D01*
X102371428Y-106578095D01*
X102433333Y-106682857D01*
X102495238Y-106735238D01*
X102619047Y-106787619D01*
X102990476Y-106787619D01*
X103114285Y-106735238D01*
X103176190Y-106682857D01*
X103238095Y-106578095D01*
X103238095Y-106368571D01*
X103176190Y-106263809D01*
X103238095Y-107730476D02*
X101938095Y-107730476D01*
X103176190Y-107730476D02*
X103238095Y-107625714D01*
X103238095Y-107416190D01*
X103176190Y-107311428D01*
X103114285Y-107259047D01*
X102990476Y-107206666D01*
X102619047Y-107206666D01*
X102495238Y-107259047D01*
X102433333Y-107311428D01*
X102371428Y-107416190D01*
X102371428Y-107625714D01*
X102433333Y-107730476D01*
X103238095Y-108254285D02*
X102371428Y-108254285D01*
X101938095Y-108254285D02*
X102000000Y-108201904D01*
X102061904Y-108254285D01*
X102000000Y-108306666D01*
X101938095Y-108254285D01*
X102061904Y-108254285D01*
X102371428Y-108620952D02*
X102371428Y-109040000D01*
X103238095Y-108778095D02*
X102123809Y-108778095D01*
X102000000Y-108830476D01*
X101938095Y-108935238D01*
X101938095Y-109040000D01*
X102742857Y-109406666D02*
X102742857Y-110244761D01*
X103176190Y-110716190D02*
X103238095Y-110820952D01*
X103238095Y-111030476D01*
X103176190Y-111135238D01*
X103052380Y-111187619D01*
X102990476Y-111187619D01*
X102866666Y-111135238D01*
X102804761Y-111030476D01*
X102804761Y-110873333D01*
X102742857Y-110768571D01*
X102619047Y-110716190D01*
X102557142Y-110716190D01*
X102433333Y-110768571D01*
X102371428Y-110873333D01*
X102371428Y-111030476D01*
X102433333Y-111135238D01*
X102371428Y-111659047D02*
X103671428Y-111659047D01*
X102433333Y-111659047D02*
X102371428Y-111763809D01*
X102371428Y-111973333D01*
X102433333Y-112078095D01*
X102495238Y-112130476D01*
X102619047Y-112182857D01*
X102990476Y-112182857D01*
X103114285Y-112130476D01*
X103176190Y-112078095D01*
X103238095Y-111973333D01*
X103238095Y-111763809D01*
X103176190Y-111659047D01*
X103238095Y-112811428D02*
X103176190Y-112706666D01*
X103052380Y-112654285D01*
X101938095Y-112654285D01*
X103238095Y-113230476D02*
X102371428Y-113230476D01*
X101938095Y-113230476D02*
X102000000Y-113178095D01*
X102061904Y-113230476D01*
X102000000Y-113282857D01*
X101938095Y-113230476D01*
X102061904Y-113230476D01*
X102371428Y-113597142D02*
X102371428Y-114016190D01*
X101938095Y-113754285D02*
X103052380Y-113754285D01*
X103176190Y-113806666D01*
X103238095Y-113911428D01*
X103238095Y-114016190D01*
X102371428Y-114225714D02*
X102371428Y-114644761D01*
X101938095Y-114382857D02*
X103052380Y-114382857D01*
X103176190Y-114435238D01*
X103238095Y-114540000D01*
X103238095Y-114644761D01*
X103176190Y-115430476D02*
X103238095Y-115325714D01*
X103238095Y-115116190D01*
X103176190Y-115011428D01*
X103052380Y-114959047D01*
X102557142Y-114959047D01*
X102433333Y-115011428D01*
X102371428Y-115116190D01*
X102371428Y-115325714D01*
X102433333Y-115430476D01*
X102557142Y-115482857D01*
X102680952Y-115482857D01*
X102804761Y-114959047D01*
X103238095Y-115954285D02*
X102371428Y-115954285D01*
X102619047Y-115954285D02*
X102495238Y-116006666D01*
X102433333Y-116059047D01*
X102371428Y-116163809D01*
X102371428Y-116268571D01*
M02*
